<svg width="320" height="540" viewBox="0 0 320 540" fill="none" xmlns="http://www.w3.org/2000/svg">
<rect width="320" height="540" fill="#F8FAFC"/>
<path d="M78.9423 257.126C78.0663 257.126 77.2743 256.976 76.5663 256.676C75.8703 256.376 75.3183 255.944 74.9103 255.38C74.5023 254.816 74.2923 254.15 74.2803 253.382H76.9803C77.0163 253.898 77.1963 254.306 77.5203 254.606C77.8563 254.906 78.3123 255.056 78.8883 255.056C79.4763 255.056 79.9383 254.918 80.2743 254.642C80.6103 254.354 80.7783 253.982 80.7783 253.526C80.7783 253.154 80.6643 252.848 80.4363 252.608C80.2083 252.368 79.9203 252.182 79.5723 252.05C79.2363 251.906 78.7683 251.75 78.1683 251.582C77.3523 251.342 76.6863 251.108 76.1703 250.88C75.6663 250.64 75.2283 250.286 74.8563 249.818C74.4963 249.338 74.3163 248.702 74.3163 247.91C74.3163 247.166 74.5023 246.518 74.8743 245.966C75.2463 245.414 75.7683 244.994 76.4403 244.706C77.1123 244.406 77.8803 244.256 78.7443 244.256C80.0403 244.256 81.0903 244.574 81.8943 245.21C82.7103 245.834 83.1603 246.71 83.2443 247.838H80.4723C80.4483 247.406 80.2623 247.052 79.9143 246.776C79.5783 246.488 79.1283 246.344 78.5643 246.344C78.0723 246.344 77.6763 246.47 77.3763 246.722C77.0883 246.974 76.9443 247.34 76.9443 247.82C76.9443 248.156 77.0523 248.438 77.2683 248.666C77.4963 248.882 77.7723 249.062 78.0963 249.206C78.4323 249.338 78.9003 249.494 79.5003 249.674C80.3163 249.914 80.9823 250.154 81.4983 250.394C82.0143 250.634 82.4583 250.994 82.8303 251.474C83.2023 251.954 83.3883 252.584 83.3883 253.364C83.3883 254.036 83.2143 254.66 82.8663 255.236C82.5183 255.812 82.0083 256.274 81.3363 256.622C80.6643 256.958 79.8663 257.126 78.9423 257.126ZM94.8431 251.798C94.8431 252.158 94.8191 252.482 94.7711 252.77H87.4811C87.5411 253.49 87.7931 254.054 88.2371 254.462C88.6811 254.87 89.2271 255.074 89.8751 255.074C90.8111 255.074 91.4771 254.672 91.8731 253.868H94.5911C94.3031 254.828 93.7511 255.62 92.9351 256.244C92.1191 256.856 91.1171 257.162 89.9291 257.162C88.9691 257.162 88.1051 256.952 87.3371 256.532C86.5811 256.1 85.9871 255.494 85.5551 254.714C85.1351 253.934 84.9251 253.034 84.9251 252.014C84.9251 250.982 85.1351 250.076 85.5551 249.296C85.9751 248.516 86.5631 247.916 87.3191 247.496C88.0751 247.076 88.9451 246.866 89.9291 246.866C90.8771 246.866 91.7231 247.07 92.4671 247.478C93.2231 247.886 93.8051 248.468 94.2131 249.224C94.6331 249.968 94.8431 250.826 94.8431 251.798ZM92.2331 251.078C92.2211 250.43 91.9871 249.914 91.5311 249.53C91.0751 249.134 90.5171 248.936 89.8571 248.936C89.2331 248.936 88.7051 249.128 88.2731 249.512C87.8531 249.884 87.5951 250.406 87.4991 251.078H92.2331ZM97.9604 245.84C97.5044 245.84 97.1264 245.702 96.8264 245.426C96.5384 245.138 96.3944 244.784 96.3944 244.364C96.3944 243.944 96.5384 243.596 96.8264 243.32C97.1264 243.032 97.5044 242.888 97.9604 242.888C98.4044 242.888 98.7704 243.032 99.0584 243.32C99.3464 243.596 99.4904 243.944 99.4904 244.364C99.4904 244.784 99.3464 245.138 99.0584 245.426C98.7704 245.702 98.4044 245.84 97.9604 245.84ZM99.2024 258.638C99.2024 259.742 98.9264 260.534 98.3744 261.014C97.8344 261.506 97.0544 261.752 96.0344 261.752H94.9184V259.61H95.6384C96.0224 259.61 96.2924 259.532 96.4484 259.376C96.6044 259.232 96.6824 258.992 96.6824 258.656V247.028H99.2024V258.638ZM101.044 251.978C101.044 250.97 101.242 250.076 101.638 249.296C102.046 248.516 102.592 247.916 103.276 247.496C103.972 247.076 104.746 246.866 105.598 246.866C106.342 246.866 106.99 247.016 107.542 247.316C108.106 247.616 108.556 247.994 108.892 248.45V247.028H111.43V257H108.892V255.542C108.568 256.01 108.118 256.4 107.542 256.712C106.978 257.012 106.324 257.162 105.58 257.162C104.74 257.162 103.972 256.946 103.276 256.514C102.592 256.082 102.046 255.476 101.638 254.696C101.242 253.904 101.044 252.998 101.044 251.978ZM108.892 252.014C108.892 251.402 108.772 250.88 108.532 250.448C108.292 250.004 107.968 249.668 107.56 249.44C107.152 249.2 106.714 249.08 106.246 249.08C105.778 249.08 105.346 249.194 104.95 249.422C104.554 249.65 104.23 249.986 103.978 250.43C103.738 250.862 103.618 251.378 103.618 251.978C103.618 252.578 103.738 253.106 103.978 253.562C104.23 254.006 104.554 254.348 104.95 254.588C105.358 254.828 105.79 254.948 106.246 254.948C106.714 254.948 107.152 254.834 107.56 254.606C107.968 254.366 108.292 254.03 108.532 253.598C108.772 253.154 108.892 252.626 108.892 252.014ZM120.7 248.486C121.024 248.006 121.468 247.616 122.032 247.316C122.608 247.016 123.262 246.866 123.994 246.866C124.846 246.866 125.614 247.076 126.298 247.496C126.994 247.916 127.54 248.516 127.936 249.296C128.344 250.064 128.548 250.958 128.548 251.978C128.548 252.998 128.344 253.904 127.936 254.696C127.54 255.476 126.994 256.082 126.298 256.514C125.614 256.946 124.846 257.162 123.994 257.162C123.25 257.162 122.596 257.018 122.032 256.73C121.48 256.43 121.036 256.046 120.7 255.578V257H118.18V243.68H120.7V248.486ZM125.974 251.978C125.974 251.378 125.848 250.862 125.596 250.43C125.356 249.986 125.032 249.65 124.624 249.422C124.228 249.194 123.796 249.08 123.328 249.08C122.872 249.08 122.44 249.2 122.032 249.44C121.636 249.668 121.312 250.004 121.06 250.448C120.82 250.892 120.7 251.414 120.7 252.014C120.7 252.614 120.82 253.136 121.06 253.58C121.312 254.024 121.636 254.366 122.032 254.606C122.44 254.834 122.872 254.948 123.328 254.948C123.796 254.948 124.228 254.828 124.624 254.588C125.032 254.348 125.356 254.006 125.596 253.562C125.848 253.118 125.974 252.59 125.974 251.978ZM139.65 251.798C139.65 252.158 139.626 252.482 139.578 252.77H132.288C132.348 253.49 132.6 254.054 133.044 254.462C133.488 254.87 134.034 255.074 134.682 255.074C135.618 255.074 136.284 254.672 136.68 253.868H139.398C139.11 254.828 138.558 255.62 137.742 256.244C136.926 256.856 135.924 257.162 134.736 257.162C133.776 257.162 132.912 256.952 132.144 256.532C131.388 256.1 130.794 255.494 130.362 254.714C129.942 253.934 129.732 253.034 129.732 252.014C129.732 250.982 129.942 250.076 130.362 249.296C130.782 248.516 131.37 247.916 132.126 247.496C132.882 247.076 133.752 246.866 134.736 246.866C135.684 246.866 136.53 247.07 137.274 247.478C138.03 247.886 138.612 248.468 139.02 249.224C139.44 249.968 139.65 250.826 139.65 251.798ZM137.04 251.078C137.028 250.43 136.794 249.914 136.338 249.53C135.882 249.134 135.324 248.936 134.664 248.936C134.04 248.936 133.512 249.128 133.08 249.512C132.66 249.884 132.402 250.406 132.306 251.078H137.04ZM153.873 246.884C155.097 246.884 156.081 247.262 156.825 248.018C157.581 248.762 157.959 249.806 157.959 251.15V257H155.439V251.492C155.439 250.712 155.241 250.118 154.845 249.71C154.449 249.29 153.909 249.08 153.225 249.08C152.541 249.08 151.995 249.29 151.587 249.71C151.191 250.118 150.993 250.712 150.993 251.492V257H148.473V251.492C148.473 250.712 148.275 250.118 147.879 249.71C147.483 249.29 146.943 249.08 146.259 249.08C145.563 249.08 145.011 249.29 144.603 249.71C144.207 250.118 144.009 250.712 144.009 251.492V257H141.489V247.028H144.009V248.234C144.333 247.814 144.747 247.484 145.251 247.244C145.767 247.004 146.331 246.884 146.943 246.884C147.723 246.884 148.419 247.052 149.031 247.388C149.643 247.712 150.117 248.18 150.453 248.792C150.777 248.216 151.245 247.754 151.857 247.406C152.481 247.058 153.153 246.884 153.873 246.884ZM168.018 249.512V251.636H160.386V249.512H168.018ZM175.003 254.678L177.523 247.028H180.205L176.515 257H173.455L169.783 247.028H172.483L175.003 254.678ZM182.898 245.84C182.454 245.84 182.082 245.702 181.782 245.426C181.494 245.138 181.35 244.784 181.35 244.364C181.35 243.944 181.494 243.596 181.782 243.32C182.082 243.032 182.454 242.888 182.898 242.888C183.342 242.888 183.708 243.032 183.996 243.32C184.296 243.596 184.446 243.944 184.446 244.364C184.446 244.784 184.296 245.138 183.996 245.426C183.708 245.702 183.342 245.84 182.898 245.84ZM184.14 247.028V257H181.62V247.028H184.14ZM192.156 246.884C193.344 246.884 194.304 247.262 195.036 248.018C195.768 248.762 196.134 249.806 196.134 251.15V257H193.614V251.492C193.614 250.7 193.416 250.094 193.02 249.674C192.624 249.242 192.084 249.026 191.4 249.026C190.704 249.026 190.152 249.242 189.744 249.674C189.348 250.094 189.15 250.7 189.15 251.492V257H186.63V247.028H189.15V248.27C189.486 247.838 189.912 247.502 190.428 247.262C190.956 247.01 191.532 246.884 192.156 246.884ZM197.882 251.978C197.882 250.97 198.08 250.076 198.476 249.296C198.884 248.516 199.436 247.916 200.132 247.496C200.828 247.076 201.602 246.866 202.454 246.866C203.102 246.866 203.72 247.01 204.308 247.298C204.896 247.574 205.364 247.946 205.712 248.414V243.68H208.268V257H205.712V255.524C205.4 256.016 204.962 256.412 204.398 256.712C203.834 257.012 203.18 257.162 202.436 257.162C201.596 257.162 200.828 256.946 200.132 256.514C199.436 256.082 198.884 255.476 198.476 254.696C198.08 253.904 197.882 252.998 197.882 251.978ZM205.73 252.014C205.73 251.402 205.61 250.88 205.37 250.448C205.13 250.004 204.806 249.668 204.398 249.44C203.99 249.2 203.552 249.08 203.084 249.08C202.616 249.08 202.184 249.194 201.788 249.422C201.392 249.65 201.068 249.986 200.816 250.43C200.576 250.862 200.456 251.378 200.456 251.978C200.456 252.578 200.576 253.106 200.816 253.562C201.068 254.006 201.392 254.348 201.788 254.588C202.196 254.828 202.628 254.948 203.084 254.948C203.552 254.948 203.99 254.834 204.398 254.606C204.806 254.366 205.13 254.03 205.37 253.598C205.61 253.154 205.73 252.626 205.73 252.014ZM215.157 257.162C214.197 257.162 213.333 256.952 212.565 256.532C211.797 256.1 211.191 255.494 210.747 254.714C210.315 253.934 210.099 253.034 210.099 252.014C210.099 250.994 210.321 250.094 210.765 249.314C211.221 248.534 211.839 247.934 212.619 247.514C213.399 247.082 214.269 246.866 215.229 246.866C216.189 246.866 217.059 247.082 217.839 247.514C218.619 247.934 219.231 248.534 219.675 249.314C220.131 250.094 220.359 250.994 220.359 252.014C220.359 253.034 220.125 253.934 219.657 254.714C219.201 255.494 218.577 256.1 217.785 256.532C217.005 256.952 216.129 257.162 215.157 257.162ZM215.157 254.966C215.613 254.966 216.039 254.858 216.435 254.642C216.843 254.414 217.167 254.078 217.407 253.634C217.647 253.19 217.767 252.65 217.767 252.014C217.767 251.066 217.515 250.34 217.011 249.836C216.519 249.32 215.913 249.062 215.193 249.062C214.473 249.062 213.867 249.32 213.375 249.836C212.895 250.34 212.655 251.066 212.655 252.014C212.655 252.962 212.889 253.694 213.357 254.21C213.837 254.714 214.437 254.966 215.157 254.966ZM226.564 260.546C225.4 259.418 224.494 257.978 223.846 256.226C223.21 254.474 222.892 252.596 222.892 250.592C222.892 248.54 223.228 246.614 223.9 244.814C224.572 243.002 225.55 241.52 226.834 240.368H229.372V240.602C228.052 241.862 227.044 243.374 226.348 245.138C225.664 246.902 225.322 248.72 225.322 250.592C225.322 252.416 225.646 254.18 226.294 255.884C226.954 257.576 227.89 259.046 229.102 260.294V260.546H226.564ZM230.296 251.978C230.296 250.97 230.494 250.076 230.89 249.296C231.298 248.516 231.844 247.916 232.528 247.496C233.224 247.076 233.998 246.866 234.85 246.866C235.594 246.866 236.242 247.016 236.794 247.316C237.358 247.616 237.808 247.994 238.144 248.45V247.028H240.682V257H238.144V255.542C237.82 256.01 237.37 256.4 236.794 256.712C236.23 257.012 235.576 257.162 234.832 257.162C233.992 257.162 233.224 256.946 232.528 256.514C231.844 256.082 231.298 255.476 230.89 254.696C230.494 253.904 230.296 252.998 230.296 251.978ZM238.144 252.014C238.144 251.402 238.024 250.88 237.784 250.448C237.544 250.004 237.22 249.668 236.812 249.44C236.404 249.2 235.966 249.08 235.498 249.08C235.03 249.08 234.598 249.194 234.202 249.422C233.806 249.65 233.482 249.986 233.23 250.43C232.99 250.862 232.87 251.378 232.87 251.978C232.87 252.578 232.99 253.106 233.23 253.562C233.482 254.006 233.806 254.348 234.202 254.588C234.61 254.828 235.042 254.948 235.498 254.948C235.966 254.948 236.404 254.834 236.812 254.606C237.22 254.366 237.544 254.03 237.784 253.598C238.024 253.154 238.144 252.626 238.144 252.014ZM242.495 260.546V260.294C243.707 259.046 244.637 257.576 245.285 255.884C245.945 254.18 246.275 252.416 246.275 250.592C246.275 248.72 245.927 246.902 245.231 245.138C244.547 243.374 243.545 241.862 242.225 240.602V240.368H244.763C246.047 241.52 247.025 243.002 247.697 244.814C248.369 246.614 248.705 248.54 248.705 250.592C248.705 252.596 248.381 254.474 247.733 256.226C247.097 257.978 246.197 259.418 245.033 260.546H242.495Z" fill="#334155"/>
<path d="M15.8201 272.242V279.452C15.8201 280.255 15.5728 280.899 15.0781 281.384C14.5835 281.86 13.9301 282.098 13.1181 282.098C12.2968 282.098 11.6388 281.855 11.1441 281.37C10.6495 280.875 10.4021 280.203 10.4021 279.354H11.6761C11.6855 279.83 11.8068 280.217 12.0401 280.516C12.2828 280.815 12.6421 280.964 13.1181 280.964C13.5941 280.964 13.9488 280.824 14.1821 280.544C14.4155 280.255 14.5321 279.891 14.5321 279.452V272.242H15.8201ZM25.134 274.328V282H23.86V280.866C23.6173 281.258 23.2766 281.566 22.838 281.79C22.4086 282.005 21.9326 282.112 21.41 282.112C20.8126 282.112 20.276 281.991 19.8 281.748C19.324 281.496 18.946 281.123 18.666 280.628C18.3953 280.133 18.26 279.531 18.26 278.822V274.328H19.52V278.654C19.52 279.41 19.7113 279.993 20.094 280.404C20.4766 280.805 20.9993 281.006 21.662 281.006C22.3433 281.006 22.88 280.796 23.272 280.376C23.664 279.956 23.86 279.345 23.86 278.542V274.328H25.134ZM31.023 274.188C31.9564 274.188 32.7124 274.473 33.291 275.042C33.8697 275.602 34.159 276.414 34.159 277.478V282H32.899V277.66C32.899 276.895 32.7077 276.311 32.325 275.91C31.9424 275.499 31.4197 275.294 30.757 275.294C30.085 275.294 29.5484 275.504 29.147 275.924C28.755 276.344 28.559 276.955 28.559 277.758V282H27.285V274.328H28.559V275.42C28.811 275.028 29.1517 274.725 29.581 274.51C30.0197 274.295 30.5004 274.188 31.023 274.188ZM37.7941 275.378V279.9C37.7941 280.273 37.8734 280.539 38.0321 280.698C38.1908 280.847 38.4661 280.922 38.8581 280.922H39.7961V282H38.6481C37.9388 282 37.4068 281.837 37.0521 281.51C36.6974 281.183 36.5201 280.647 36.5201 279.9V275.378H35.5261V274.328H36.5201V272.396H37.7941V274.328H39.7961V275.378H37.7941ZM48.3397 277.87C48.3397 278.113 48.3257 278.369 48.2977 278.64H42.1657C42.2124 279.396 42.4691 279.989 42.9357 280.418C43.4117 280.838 43.9857 281.048 44.6577 281.048C45.2084 281.048 45.6657 280.922 46.0297 280.67C46.4031 280.409 46.6644 280.063 46.8137 279.634H48.1857C47.9804 280.371 47.5697 280.973 46.9537 281.44C46.3377 281.897 45.5724 282.126 44.6577 282.126C43.9297 282.126 43.2764 281.963 42.6977 281.636C42.1284 281.309 41.6804 280.847 41.3537 280.25C41.0271 279.643 40.8637 278.943 40.8637 278.15C40.8637 277.357 41.0224 276.661 41.3397 276.064C41.6571 275.467 42.1004 275.009 42.6697 274.692C43.2484 274.365 43.9111 274.202 44.6577 274.202C45.3857 274.202 46.0297 274.361 46.5897 274.678C47.1497 274.995 47.5791 275.434 47.8777 275.994C48.1857 276.545 48.3397 277.17 48.3397 277.87ZM47.0237 277.604C47.0237 277.119 46.9164 276.703 46.7017 276.358C46.4871 276.003 46.1931 275.737 45.8197 275.56C45.4557 275.373 45.0497 275.28 44.6017 275.28C43.9577 275.28 43.4071 275.485 42.9497 275.896C42.5017 276.307 42.2451 276.876 42.1797 277.604H47.0237ZM55.3414 276.33V277.408H49.7554V276.33H55.3414ZM60.4483 282.126C59.8603 282.126 59.333 282.028 58.8663 281.832C58.3996 281.627 58.031 281.347 57.7603 280.992C57.4896 280.628 57.3403 280.213 57.3123 279.746H58.6283C58.6656 280.129 58.843 280.441 59.1603 280.684C59.487 280.927 59.9116 281.048 60.4343 281.048C60.9196 281.048 61.3023 280.941 61.5823 280.726C61.8623 280.511 62.0023 280.241 62.0023 279.914C62.0023 279.578 61.853 279.331 61.5543 279.172C61.2556 279.004 60.7936 278.841 60.1683 278.682C59.599 278.533 59.1323 278.383 58.7683 278.234C58.4136 278.075 58.1056 277.847 57.8443 277.548C57.5923 277.24 57.4663 276.839 57.4663 276.344C57.4663 275.952 57.583 275.593 57.8163 275.266C58.0496 274.939 58.381 274.683 58.8103 274.496C59.2396 274.3 59.7296 274.202 60.2803 274.202C61.1296 274.202 61.8156 274.417 62.3383 274.846C62.861 275.275 63.141 275.863 63.1783 276.61H61.9043C61.8763 276.209 61.713 275.887 61.4143 275.644C61.125 275.401 60.733 275.28 60.2383 275.28C59.781 275.28 59.417 275.378 59.1463 275.574C58.8756 275.77 58.7403 276.027 58.7403 276.344C58.7403 276.596 58.8196 276.806 58.9783 276.974C59.1463 277.133 59.3516 277.263 59.5943 277.366C59.8463 277.459 60.1916 277.567 60.6303 277.688C61.181 277.837 61.629 277.987 61.9743 278.136C62.3196 278.276 62.6136 278.491 62.8563 278.78C63.1083 279.069 63.239 279.447 63.2483 279.914C63.2483 280.334 63.1316 280.712 62.8983 281.048C62.665 281.384 62.3336 281.65 61.9043 281.846C61.4843 282.033 60.999 282.126 60.4483 282.126ZM72.0468 277.87C72.0468 278.113 72.0328 278.369 72.0048 278.64H65.8728C65.9194 279.396 66.1761 279.989 66.6428 280.418C67.1188 280.838 67.6928 281.048 68.3648 281.048C68.9154 281.048 69.3728 280.922 69.7368 280.67C70.1101 280.409 70.3714 280.063 70.5208 279.634H71.8928C71.6874 280.371 71.2768 280.973 70.6608 281.44C70.0448 281.897 69.2794 282.126 68.3648 282.126C67.6368 282.126 66.9834 281.963 66.4048 281.636C65.8354 281.309 65.3874 280.847 65.0608 280.25C64.7341 279.643 64.5708 278.943 64.5708 278.15C64.5708 277.357 64.7294 276.661 65.0468 276.064C65.3641 275.467 65.8074 275.009 66.3768 274.692C66.9554 274.365 67.6181 274.202 68.3648 274.202C69.0928 274.202 69.7368 274.361 70.2968 274.678C70.8568 274.995 71.2861 275.434 71.5848 275.994C71.8928 276.545 72.0468 277.17 72.0468 277.87ZM70.7308 277.604C70.7308 277.119 70.6234 276.703 70.4088 276.358C70.1941 276.003 69.9001 275.737 69.5268 275.56C69.1628 275.373 68.7568 275.28 68.3088 275.28C67.6648 275.28 67.1141 275.485 66.6568 275.896C66.2088 276.307 65.9521 276.876 65.8868 277.604H70.7308ZM76.9848 278.136C76.9848 277.352 77.1435 276.666 77.4608 276.078C77.7781 275.481 78.2121 275.019 78.7628 274.692C79.3228 274.365 79.9435 274.202 80.6248 274.202C81.2968 274.202 81.8801 274.347 82.3748 274.636C82.8695 274.925 83.2381 275.289 83.4808 275.728V274.328H84.7688V282H83.4808V280.572C83.2288 281.02 82.8508 281.393 82.3468 281.692C81.8521 281.981 81.2735 282.126 80.6108 282.126C79.9295 282.126 79.3135 281.958 78.7628 281.622C78.2121 281.286 77.7781 280.815 77.4608 280.208C77.1435 279.601 76.9848 278.911 76.9848 278.136ZM83.4808 278.15C83.4808 277.571 83.3641 277.067 83.1308 276.638C82.8975 276.209 82.5801 275.882 82.1788 275.658C81.7868 275.425 81.3528 275.308 80.8768 275.308C80.4008 275.308 79.9668 275.42 79.5748 275.644C79.1828 275.868 78.8701 276.195 78.6368 276.624C78.4035 277.053 78.2868 277.557 78.2868 278.136C78.2868 278.724 78.4035 279.237 78.6368 279.676C78.8701 280.105 79.1828 280.437 79.5748 280.67C79.9668 280.894 80.4008 281.006 80.8768 281.006C81.3528 281.006 81.7868 280.894 82.1788 280.67C82.5801 280.437 82.8975 280.105 83.1308 279.676C83.3641 279.237 83.4808 278.729 83.4808 278.15ZM94.3922 274.188C95.3255 274.188 96.0815 274.473 96.6602 275.042C97.2388 275.602 97.5282 276.414 97.5282 277.478V282H96.2682V277.66C96.2682 276.895 96.0768 276.311 95.6942 275.91C95.3115 275.499 94.7888 275.294 94.1262 275.294C93.4542 275.294 92.9175 275.504 92.5162 275.924C92.1242 276.344 91.9282 276.955 91.9282 277.758V282H90.6542V274.328H91.9282V275.42C92.1802 275.028 92.5208 274.725 92.9502 274.51C93.3888 274.295 93.8695 274.188 94.3922 274.188ZM102.955 282.126C102.237 282.126 101.583 281.963 100.995 281.636C100.417 281.309 99.9593 280.847 99.6233 280.25C99.2966 279.643 99.1333 278.943 99.1333 278.15C99.1333 277.366 99.3013 276.675 99.6373 276.078C99.9826 275.471 100.449 275.009 101.037 274.692C101.625 274.365 102.283 274.202 103.011 274.202C103.739 274.202 104.397 274.365 104.985 274.692C105.573 275.009 106.035 275.467 106.371 276.064C106.717 276.661 106.889 277.357 106.889 278.15C106.889 278.943 106.712 279.643 106.357 280.25C106.012 280.847 105.541 281.309 104.943 281.636C104.346 281.963 103.683 282.126 102.955 282.126ZM102.955 281.006C103.413 281.006 103.842 280.899 104.243 280.684C104.645 280.469 104.967 280.147 105.209 279.718C105.461 279.289 105.587 278.766 105.587 278.15C105.587 277.534 105.466 277.011 105.223 276.582C104.981 276.153 104.663 275.835 104.271 275.63C103.879 275.415 103.455 275.308 102.997 275.308C102.531 275.308 102.101 275.415 101.709 275.63C101.327 275.835 101.019 276.153 100.785 276.582C100.552 277.011 100.435 277.534 100.435 278.15C100.435 278.775 100.547 279.303 100.771 279.732C101.005 280.161 101.313 280.483 101.695 280.698C102.078 280.903 102.498 281.006 102.955 281.006ZM104.383 272.06L101.401 273.656V272.704L104.383 270.954V272.06ZM111.28 282.126C110.692 282.126 110.165 282.028 109.698 281.832C109.232 281.627 108.863 281.347 108.592 280.992C108.322 280.628 108.172 280.213 108.144 279.746H109.46C109.498 280.129 109.675 280.441 109.992 280.684C110.319 280.927 110.744 281.048 111.266 281.048C111.752 281.048 112.134 280.941 112.414 280.726C112.694 280.511 112.834 280.241 112.834 279.914C112.834 279.578 112.685 279.331 112.386 279.172C112.088 279.004 111.626 278.841 111 278.682C110.431 278.533 109.964 278.383 109.6 278.234C109.246 278.075 108.938 277.847 108.676 277.548C108.424 277.24 108.298 276.839 108.298 276.344C108.298 275.952 108.415 275.593 108.648 275.266C108.882 274.939 109.213 274.683 109.642 274.496C110.072 274.3 110.562 274.202 111.112 274.202C111.962 274.202 112.648 274.417 113.17 274.846C113.693 275.275 113.973 275.863 114.01 276.61H112.736C112.708 276.209 112.545 275.887 112.246 275.644C111.957 275.401 111.565 275.28 111.07 275.28C110.613 275.28 110.249 275.378 109.978 275.574C109.708 275.77 109.572 276.027 109.572 276.344C109.572 276.596 109.652 276.806 109.81 276.974C109.978 277.133 110.184 277.263 110.426 277.366C110.678 277.459 111.024 277.567 111.462 277.688C112.013 277.837 112.461 277.987 112.806 278.136C113.152 278.276 113.446 278.491 113.688 278.78C113.94 279.069 114.071 279.447 114.08 279.914C114.08 280.334 113.964 280.712 113.73 281.048C113.497 281.384 113.166 281.65 112.736 281.846C112.316 282.033 111.831 282.126 111.28 282.126ZM126.611 277.87C126.611 278.113 126.597 278.369 126.569 278.64H120.437C120.484 279.396 120.741 279.989 121.207 280.418C121.683 280.838 122.257 281.048 122.929 281.048C123.48 281.048 123.937 280.922 124.301 280.67C124.675 280.409 124.936 280.063 125.085 279.634H126.457C126.252 280.371 125.841 280.973 125.225 281.44C124.609 281.897 123.844 282.126 122.929 282.126C122.201 282.126 121.548 281.963 120.969 281.636C120.4 281.309 119.952 280.847 119.625 280.25C119.299 279.643 119.135 278.943 119.135 278.15C119.135 277.357 119.294 276.661 119.611 276.064C119.929 275.467 120.372 275.009 120.941 274.692C121.52 274.365 122.183 274.202 122.929 274.202C123.657 274.202 124.301 274.361 124.861 274.678C125.421 274.995 125.851 275.434 126.149 275.994C126.457 276.545 126.611 277.17 126.611 277.87ZM125.295 277.604C125.295 277.119 125.188 276.703 124.973 276.358C124.759 276.003 124.465 275.737 124.091 275.56C123.727 275.373 123.321 275.28 122.873 275.28C122.229 275.28 121.679 275.485 121.221 275.896C120.773 276.307 120.517 276.876 120.451 277.604H125.295ZM139.025 277.87C139.025 278.113 139.011 278.369 138.983 278.64H132.851C132.898 279.396 133.155 279.989 133.621 280.418C134.097 280.838 134.671 281.048 135.343 281.048C135.894 281.048 136.351 280.922 136.715 280.67C137.089 280.409 137.35 280.063 137.499 279.634H138.871C138.666 280.371 138.255 280.973 137.639 281.44C137.023 281.897 136.258 282.126 135.343 282.126C134.615 282.126 133.962 281.963 133.383 281.636C132.814 281.309 132.366 280.847 132.039 280.25C131.713 279.643 131.549 278.943 131.549 278.15C131.549 277.357 131.708 276.661 132.025 276.064C132.343 275.467 132.786 275.009 133.355 274.692C133.934 274.365 134.597 274.202 135.343 274.202C136.071 274.202 136.715 274.361 137.275 274.678C137.835 274.995 138.265 275.434 138.563 275.994C138.871 276.545 139.025 277.17 139.025 277.87ZM137.709 277.604C137.709 277.119 137.602 276.703 137.387 276.358C137.173 276.003 136.879 275.737 136.505 275.56C136.141 275.373 135.735 275.28 135.287 275.28C134.643 275.28 134.093 275.485 133.635 275.896C133.187 276.307 132.931 276.876 132.865 277.604H137.709ZM144.445 274.188C145.378 274.188 146.134 274.473 146.713 275.042C147.292 275.602 147.581 276.414 147.581 277.478V282H146.321V277.66C146.321 276.895 146.13 276.311 145.747 275.91C145.364 275.499 144.842 275.294 144.179 275.294C143.507 275.294 142.97 275.504 142.569 275.924C142.177 276.344 141.981 276.955 141.981 277.758V282H140.707V274.328H141.981V275.42C142.233 275.028 142.574 274.725 143.003 274.51C143.442 274.295 143.922 274.188 144.445 274.188ZM149.186 278.15C149.186 277.357 149.345 276.666 149.662 276.078C149.979 275.481 150.418 275.019 150.978 274.692C151.547 274.365 152.196 274.202 152.924 274.202C153.867 274.202 154.641 274.431 155.248 274.888C155.864 275.345 156.27 275.98 156.466 276.792H155.094C154.963 276.325 154.707 275.957 154.324 275.686C153.951 275.415 153.484 275.28 152.924 275.28C152.196 275.28 151.608 275.532 151.16 276.036C150.712 276.531 150.488 277.235 150.488 278.15C150.488 279.074 150.712 279.788 151.16 280.292C151.608 280.796 152.196 281.048 152.924 281.048C153.484 281.048 153.951 280.917 154.324 280.656C154.697 280.395 154.954 280.021 155.094 279.536H156.466C156.261 280.32 155.85 280.95 155.234 281.426C154.618 281.893 153.848 282.126 152.924 282.126C152.196 282.126 151.547 281.963 150.978 281.636C150.418 281.309 149.979 280.847 149.662 280.25C149.345 279.653 149.186 278.953 149.186 278.15ZM161.512 282.126C160.793 282.126 160.14 281.963 159.552 281.636C158.973 281.309 158.516 280.847 158.18 280.25C157.853 279.643 157.69 278.943 157.69 278.15C157.69 277.366 157.858 276.675 158.194 276.078C158.539 275.471 159.006 275.009 159.594 274.692C160.182 274.365 160.84 274.202 161.568 274.202C162.296 274.202 162.954 274.365 163.542 274.692C164.13 275.009 164.592 275.467 164.928 276.064C165.273 276.661 165.446 277.357 165.446 278.15C165.446 278.943 165.269 279.643 164.914 280.25C164.569 280.847 164.097 281.309 163.5 281.636C162.903 281.963 162.24 282.126 161.512 282.126ZM161.512 281.006C161.969 281.006 162.399 280.899 162.8 280.684C163.201 280.469 163.523 280.147 163.766 279.718C164.018 279.289 164.144 278.766 164.144 278.15C164.144 277.534 164.023 277.011 163.78 276.582C163.537 276.153 163.22 275.835 162.828 275.63C162.436 275.415 162.011 275.308 161.554 275.308C161.087 275.308 160.658 275.415 160.266 275.63C159.883 275.835 159.575 276.153 159.342 276.582C159.109 277.011 158.992 277.534 158.992 278.15C158.992 278.775 159.104 279.303 159.328 279.732C159.561 280.161 159.869 280.483 160.252 280.698C160.635 280.903 161.055 281.006 161.512 281.006ZM170.859 274.188C171.792 274.188 172.548 274.473 173.127 275.042C173.706 275.602 173.995 276.414 173.995 277.478V282H172.735V277.66C172.735 276.895 172.544 276.311 172.161 275.91C171.778 275.499 171.256 275.294 170.593 275.294C169.921 275.294 169.384 275.504 168.983 275.924C168.591 276.344 168.395 276.955 168.395 277.758V282H167.121V274.328H168.395V275.42C168.647 275.028 168.988 274.725 169.417 274.51C169.856 274.295 170.336 274.188 170.859 274.188ZM177.63 275.378V279.9C177.63 280.273 177.709 280.539 177.868 280.698C178.027 280.847 178.302 280.922 178.694 280.922H179.632V282H178.484C177.775 282 177.243 281.837 176.888 281.51C176.533 281.183 176.356 280.647 176.356 279.9V275.378H175.362V274.328H176.356V272.396H177.63V274.328H179.632V275.378H177.63ZM182.45 275.574C182.674 275.135 182.991 274.795 183.402 274.552C183.822 274.309 184.33 274.188 184.928 274.188V275.504H184.592C183.164 275.504 182.45 276.279 182.45 277.828V282H181.176V274.328H182.45V275.574ZM193.398 277.87C193.398 278.113 193.384 278.369 193.356 278.64H187.224C187.271 279.396 187.528 279.989 187.994 280.418C188.47 280.838 189.044 281.048 189.716 281.048C190.267 281.048 190.724 280.922 191.088 280.67C191.462 280.409 191.723 280.063 191.872 279.634H193.244C193.039 280.371 192.628 280.973 192.012 281.44C191.396 281.897 190.631 282.126 189.716 282.126C188.988 282.126 188.335 281.963 187.756 281.636C187.187 281.309 186.739 280.847 186.412 280.25C186.086 279.643 185.922 278.943 185.922 278.15C185.922 277.357 186.081 276.661 186.398 276.064C186.716 275.467 187.159 275.009 187.728 274.692C188.307 274.365 188.97 274.202 189.716 274.202C190.444 274.202 191.088 274.361 191.648 274.678C192.208 274.995 192.638 275.434 192.936 275.994C193.244 276.545 193.398 277.17 193.398 277.87ZM192.082 277.604C192.082 277.119 191.975 276.703 191.76 276.358C191.546 276.003 191.252 275.737 190.878 275.56C190.514 275.373 190.108 275.28 189.66 275.28C189.016 275.28 188.466 275.485 188.008 275.896C187.56 276.307 187.304 276.876 187.238 277.604H192.082ZM202.158 282.126C201.44 282.126 200.786 281.963 200.198 281.636C199.62 281.309 199.162 280.847 198.826 280.25C198.5 279.643 198.336 278.943 198.336 278.15C198.336 277.366 198.504 276.675 198.84 276.078C199.186 275.471 199.652 275.009 200.24 274.692C200.828 274.365 201.486 274.202 202.214 274.202C202.942 274.202 203.6 274.365 204.188 274.692C204.776 275.009 205.238 275.467 205.574 276.064C205.92 276.661 206.092 277.357 206.092 278.15C206.092 278.943 205.915 279.643 205.56 280.25C205.215 280.847 204.744 281.309 204.146 281.636C203.549 281.963 202.886 282.126 202.158 282.126ZM202.158 281.006C202.616 281.006 203.045 280.899 203.446 280.684C203.848 280.469 204.17 280.147 204.412 279.718C204.664 279.289 204.79 278.766 204.79 278.15C204.79 277.534 204.669 277.011 204.426 276.582C204.184 276.153 203.866 275.835 203.474 275.63C203.082 275.415 202.658 275.308 202.2 275.308C201.734 275.308 201.304 275.415 200.912 275.63C200.53 275.835 200.222 276.153 199.988 276.582C199.755 277.011 199.638 277.534 199.638 278.15C199.638 278.775 199.75 279.303 199.974 279.732C200.208 280.161 200.516 280.483 200.898 280.698C201.281 280.903 201.701 281.006 202.158 281.006ZM214.216 282.126C213.628 282.126 213.101 282.028 212.634 281.832C212.167 281.627 211.799 281.347 211.528 280.992C211.257 280.628 211.108 280.213 211.08 279.746H212.396C212.433 280.129 212.611 280.441 212.928 280.684C213.255 280.927 213.679 281.048 214.202 281.048C214.687 281.048 215.07 280.941 215.35 280.726C215.63 280.511 215.77 280.241 215.77 279.914C215.77 279.578 215.621 279.331 215.322 279.172C215.023 279.004 214.561 278.841 213.936 278.682C213.367 278.533 212.9 278.383 212.536 278.234C212.181 278.075 211.873 277.847 211.612 277.548C211.36 277.24 211.234 276.839 211.234 276.344C211.234 275.952 211.351 275.593 211.584 275.266C211.817 274.939 212.149 274.683 212.578 274.496C213.007 274.3 213.497 274.202 214.048 274.202C214.897 274.202 215.583 274.417 216.106 274.846C216.629 275.275 216.909 275.863 216.946 276.61H215.672C215.644 276.209 215.481 275.887 215.182 275.644C214.893 275.401 214.501 275.28 214.006 275.28C213.549 275.28 213.185 275.378 212.914 275.574C212.643 275.77 212.508 276.027 212.508 276.344C212.508 276.596 212.587 276.806 212.746 276.974C212.914 277.133 213.119 277.263 213.362 277.366C213.614 277.459 213.959 277.567 214.398 277.688C214.949 277.837 215.397 277.987 215.742 278.136C216.087 278.276 216.381 278.491 216.624 278.78C216.876 279.069 217.007 279.447 217.016 279.914C217.016 280.334 216.899 280.712 216.666 281.048C216.433 281.384 216.101 281.65 215.672 281.846C215.252 282.033 214.767 282.126 214.216 282.126ZM225.814 277.87C225.814 278.113 225.8 278.369 225.772 278.64H219.64C219.687 279.396 219.944 279.989 220.41 280.418C220.886 280.838 221.46 281.048 222.132 281.048C222.683 281.048 223.14 280.922 223.504 280.67C223.878 280.409 224.139 280.063 224.288 279.634H225.66C225.455 280.371 225.044 280.973 224.428 281.44C223.812 281.897 223.047 282.126 222.132 282.126C221.404 282.126 220.751 281.963 220.172 281.636C219.603 281.309 219.155 280.847 218.828 280.25C218.502 279.643 218.338 278.943 218.338 278.15C218.338 277.357 218.497 276.661 218.814 276.064C219.132 275.467 219.575 275.009 220.144 274.692C220.723 274.365 221.386 274.202 222.132 274.202C222.86 274.202 223.504 274.361 224.064 274.678C224.624 274.995 225.054 275.434 225.352 275.994C225.66 276.545 225.814 277.17 225.814 277.87ZM224.498 277.604C224.498 277.119 224.391 276.703 224.176 276.358C223.962 276.003 223.668 275.737 223.294 275.56C222.93 275.373 222.524 275.28 222.076 275.28C221.432 275.28 220.882 275.485 220.424 275.896C219.976 276.307 219.72 276.876 219.654 277.604H224.498ZM234.3 274.328V282H233.026V280.866C232.783 281.258 232.443 281.566 232.004 281.79C231.575 282.005 231.099 282.112 230.576 282.112C229.979 282.112 229.442 281.991 228.966 281.748C228.49 281.496 228.112 281.123 227.832 280.628C227.561 280.133 227.426 279.531 227.426 278.822V274.328H228.686V278.654C228.686 279.41 228.877 279.993 229.26 280.404C229.643 280.805 230.165 281.006 230.828 281.006C231.509 281.006 232.046 280.796 232.438 280.376C232.83 279.956 233.026 279.345 233.026 278.542V274.328H234.3ZM239.707 278.136C239.707 277.352 239.866 276.666 240.183 276.078C240.501 275.481 240.935 275.019 241.485 274.692C242.045 274.365 242.666 274.202 243.347 274.202C244.019 274.202 244.603 274.347 245.097 274.636C245.592 274.925 245.961 275.289 246.203 275.728V274.328H247.491V282H246.203V280.572C245.951 281.02 245.573 281.393 245.069 281.692C244.575 281.981 243.996 282.126 243.333 282.126C242.652 282.126 242.036 281.958 241.485 281.622C240.935 281.286 240.501 280.815 240.183 280.208C239.866 279.601 239.707 278.911 239.707 278.136ZM246.203 278.15C246.203 277.571 246.087 277.067 245.853 276.638C245.62 276.209 245.303 275.882 244.901 275.658C244.509 275.425 244.075 275.308 243.599 275.308C243.123 275.308 242.689 275.42 242.297 275.644C241.905 275.868 241.593 276.195 241.359 276.624C241.126 277.053 241.009 277.557 241.009 278.136C241.009 278.724 241.126 279.237 241.359 279.676C241.593 280.105 241.905 280.437 242.297 280.67C242.689 280.894 243.123 281.006 243.599 281.006C244.075 281.006 244.509 280.894 244.901 280.67C245.303 280.437 245.62 280.105 245.853 279.676C246.087 279.237 246.203 278.729 246.203 278.15ZM253.382 274.188C254.316 274.188 255.072 274.473 255.65 275.042C256.229 275.602 256.518 276.414 256.518 277.478V282H255.258V277.66C255.258 276.895 255.067 276.311 254.684 275.91C254.302 275.499 253.779 275.294 253.116 275.294C252.444 275.294 251.908 275.504 251.506 275.924C251.114 276.344 250.918 276.955 250.918 277.758V282H249.644V274.328H250.918V275.42C251.17 275.028 251.511 274.725 251.94 274.51C252.379 274.295 252.86 274.188 253.382 274.188ZM259.257 273.082C259.015 273.082 258.809 272.998 258.641 272.83C258.473 272.662 258.389 272.457 258.389 272.214C258.389 271.971 258.473 271.766 258.641 271.598C258.809 271.43 259.015 271.346 259.257 271.346C259.491 271.346 259.687 271.43 259.845 271.598C260.013 271.766 260.097 271.971 260.097 272.214C260.097 272.457 260.013 272.662 259.845 272.83C259.687 272.998 259.491 273.082 259.257 273.082ZM259.873 274.328V282H258.599V274.328H259.873ZM271.271 274.188C271.868 274.188 272.4 274.314 272.867 274.566C273.333 274.809 273.702 275.177 273.973 275.672C274.243 276.167 274.379 276.769 274.379 277.478V282H273.119V277.66C273.119 276.895 272.927 276.311 272.545 275.91C272.171 275.499 271.663 275.294 271.019 275.294C270.356 275.294 269.829 275.509 269.437 275.938C269.045 276.358 268.849 276.969 268.849 277.772V282H267.589V277.66C267.589 276.895 267.397 276.311 267.015 275.91C266.641 275.499 266.133 275.294 265.489 275.294C264.826 275.294 264.299 275.509 263.907 275.938C263.515 276.358 263.319 276.969 263.319 277.772V282H262.045V274.328H263.319V275.434C263.571 275.033 263.907 274.725 264.327 274.51C264.756 274.295 265.227 274.188 265.741 274.188C266.385 274.188 266.954 274.333 267.449 274.622C267.943 274.911 268.312 275.336 268.555 275.896C268.769 275.355 269.124 274.935 269.619 274.636C270.113 274.337 270.664 274.188 271.271 274.188ZM275.993 278.136C275.993 277.352 276.151 276.666 276.469 276.078C276.786 275.481 277.22 275.019 277.771 274.692C278.331 274.365 278.951 274.202 279.633 274.202C280.305 274.202 280.888 274.347 281.383 274.636C281.877 274.925 282.246 275.289 282.489 275.728V274.328H283.777V282H282.489V280.572C282.237 281.02 281.859 281.393 281.355 281.692C280.86 281.981 280.281 282.126 279.619 282.126C278.937 282.126 278.321 281.958 277.771 281.622C277.22 281.286 276.786 280.815 276.469 280.208C276.151 279.601 275.993 278.911 275.993 278.136ZM282.489 278.15C282.489 277.571 282.372 277.067 282.139 276.638C281.905 276.209 281.588 275.882 281.187 275.658C280.795 275.425 280.361 275.308 279.885 275.308C279.409 275.308 278.975 275.42 278.583 275.644C278.191 275.868 277.878 276.195 277.645 276.624C277.411 277.053 277.295 277.557 277.295 278.136C277.295 278.724 277.411 279.237 277.645 279.676C277.878 280.105 278.191 280.437 278.583 280.67C278.975 280.894 279.409 281.006 279.885 281.006C280.361 281.006 280.795 280.894 281.187 280.67C281.588 280.437 281.905 280.105 282.139 279.676C282.372 279.237 282.489 278.729 282.489 278.15ZM287.204 271.64V282H285.93V271.64H287.204ZM292.631 278.136C292.631 277.352 292.79 276.666 293.107 276.078C293.425 275.481 293.859 275.019 294.409 274.692C294.969 274.365 295.595 274.202 296.285 274.202C296.883 274.202 297.438 274.342 297.951 274.622C298.465 274.893 298.857 275.252 299.127 275.7V271.64H300.415V282H299.127V280.558C298.875 281.015 298.502 281.393 298.007 281.692C297.513 281.981 296.934 282.126 296.271 282.126C295.59 282.126 294.969 281.958 294.409 281.622C293.859 281.286 293.425 280.815 293.107 280.208C292.79 279.601 292.631 278.911 292.631 278.136ZM299.127 278.15C299.127 277.571 299.011 277.067 298.777 276.638C298.544 276.209 298.227 275.882 297.825 275.658C297.433 275.425 296.999 275.308 296.523 275.308C296.047 275.308 295.613 275.42 295.221 275.644C294.829 275.868 294.517 276.195 294.283 276.624C294.05 277.053 293.933 277.557 293.933 278.136C293.933 278.724 294.05 279.237 294.283 279.676C294.517 280.105 294.829 280.437 295.221 280.67C295.613 280.894 296.047 281.006 296.523 281.006C296.999 281.006 297.433 280.894 297.825 280.67C298.227 280.437 298.544 280.105 298.777 279.676C299.011 279.237 299.127 278.729 299.127 278.15ZM309.568 277.87C309.568 278.113 309.554 278.369 309.526 278.64H303.394C303.441 279.396 303.698 279.989 304.164 280.418C304.64 280.838 305.214 281.048 305.886 281.048C306.437 281.048 306.894 280.922 307.258 280.67C307.632 280.409 307.893 280.063 308.042 279.634H309.414C309.209 280.371 308.798 280.973 308.182 281.44C307.566 281.897 306.801 282.126 305.886 282.126C305.158 282.126 304.505 281.963 303.926 281.636C303.357 281.309 302.909 280.847 302.582 280.25C302.256 279.643 302.092 278.943 302.092 278.15C302.092 277.357 302.251 276.661 302.568 276.064C302.886 275.467 303.329 275.009 303.898 274.692C304.477 274.365 305.14 274.202 305.886 274.202C306.614 274.202 307.258 274.361 307.818 274.678C308.378 274.995 308.808 275.434 309.106 275.994C309.414 276.545 309.568 277.17 309.568 277.87ZM308.252 277.604C308.252 277.119 308.145 276.703 307.93 276.358C307.716 276.003 307.422 275.737 307.048 275.56C306.684 275.373 306.278 275.28 305.83 275.28C305.186 275.28 304.636 275.485 304.178 275.896C303.73 276.307 303.474 276.876 303.408 277.604H308.252ZM69.5858 295.87C69.5858 296.113 69.5718 296.369 69.5438 296.64H63.4118C63.4585 297.396 63.7151 297.989 64.1818 298.418C64.6578 298.838 65.2318 299.048 65.9038 299.048C66.4545 299.048 66.9118 298.922 67.2758 298.67C67.6491 298.409 67.9105 298.063 68.0598 297.634H69.4318C69.2265 298.371 68.8158 298.973 68.1998 299.44C67.5838 299.897 66.8185 300.126 65.9038 300.126C65.1758 300.126 64.5225 299.963 63.9438 299.636C63.3745 299.309 62.9265 298.847 62.5998 298.25C62.2731 297.643 62.1098 296.943 62.1098 296.15C62.1098 295.357 62.2685 294.661 62.5858 294.064C62.9031 293.467 63.3465 293.009 63.9158 292.692C64.4945 292.365 65.1571 292.202 65.9038 292.202C66.6318 292.202 67.2758 292.361 67.8358 292.678C68.3958 292.995 68.8251 293.434 69.1238 293.994C69.4318 294.545 69.5858 295.17 69.5858 295.87ZM68.2698 295.604C68.2698 295.119 68.1625 294.703 67.9478 294.358C67.7331 294.003 67.4391 293.737 67.0658 293.56C66.7018 293.373 66.2958 293.28 65.8478 293.28C65.2038 293.28 64.6531 293.485 64.1958 293.896C63.7478 294.307 63.4911 294.876 63.4258 295.604H68.2698ZM73.9835 300.126C73.3955 300.126 72.8681 300.028 72.4015 299.832C71.9348 299.627 71.5661 299.347 71.2955 298.992C71.0248 298.628 70.8755 298.213 70.8475 297.746H72.1635C72.2008 298.129 72.3781 298.441 72.6955 298.684C73.0221 298.927 73.4468 299.048 73.9695 299.048C74.4548 299.048 74.8375 298.941 75.1175 298.726C75.3975 298.511 75.5375 298.241 75.5375 297.914C75.5375 297.578 75.3881 297.331 75.0895 297.172C74.7908 297.004 74.3288 296.841 73.7035 296.682C73.1341 296.533 72.6675 296.383 72.3035 296.234C71.9488 296.075 71.6408 295.847 71.3795 295.548C71.1275 295.24 71.0015 294.839 71.0015 294.344C71.0015 293.952 71.1181 293.593 71.3515 293.266C71.5848 292.939 71.9161 292.683 72.3455 292.496C72.7748 292.3 73.2648 292.202 73.8155 292.202C74.6648 292.202 75.3508 292.417 75.8735 292.846C76.3961 293.275 76.6761 293.863 76.7135 294.61H75.4395C75.4115 294.209 75.2481 293.887 74.9495 293.644C74.6601 293.401 74.2681 293.28 73.7735 293.28C73.3161 293.28 72.9521 293.378 72.6815 293.574C72.4108 293.77 72.2755 294.027 72.2755 294.344C72.2755 294.596 72.3548 294.806 72.5135 294.974C72.6815 295.133 72.8868 295.263 73.1295 295.366C73.3815 295.459 73.7268 295.567 74.1655 295.688C74.7161 295.837 75.1641 295.987 75.5095 296.136C75.8548 296.276 76.1488 296.491 76.3915 296.78C76.6435 297.069 76.7741 297.447 76.7835 297.914C76.7835 298.334 76.6668 298.712 76.4335 299.048C76.2001 299.384 75.8688 299.65 75.4395 299.846C75.0195 300.033 74.5341 300.126 73.9835 300.126ZM80.1359 293.378V297.9C80.1359 298.273 80.2152 298.539 80.3739 298.698C80.5326 298.847 80.8079 298.922 81.1999 298.922H82.1379V300H80.9899C80.2806 300 79.7486 299.837 79.3939 299.51C79.0392 299.183 78.8619 298.647 78.8619 297.9V293.378H77.8679V292.328H78.8619V290.396H80.1359V292.328H82.1379V293.378H80.1359ZM84.3395 291.082C84.0968 291.082 83.8915 290.998 83.7235 290.83C83.5555 290.662 83.4715 290.457 83.4715 290.214C83.4715 289.971 83.5555 289.766 83.7235 289.598C83.8915 289.43 84.0968 289.346 84.3395 289.346C84.5728 289.346 84.7688 289.43 84.9275 289.598C85.0955 289.766 85.1795 289.971 85.1795 290.214C85.1795 290.457 85.0955 290.662 84.9275 290.83C84.7688 290.998 84.5728 291.082 84.3395 291.082ZM84.9555 292.328V300H83.6815V292.328H84.9555ZM96.3528 292.188C96.9502 292.188 97.4822 292.314 97.9488 292.566C98.4155 292.809 98.7842 293.177 99.0548 293.672C99.3255 294.167 99.4608 294.769 99.4608 295.478V300H98.2008V295.66C98.2008 294.895 98.0095 294.311 97.6268 293.91C97.2535 293.499 96.7448 293.294 96.1008 293.294C95.4382 293.294 94.9108 293.509 94.5188 293.938C94.1268 294.358 93.9308 294.969 93.9308 295.772V300H92.6708V295.66C92.6708 294.895 92.4795 294.311 92.0968 293.91C91.7235 293.499 91.2148 293.294 90.5708 293.294C89.9082 293.294 89.3808 293.509 88.9888 293.938C88.5968 294.358 88.4008 294.969 88.4008 295.772V300H87.1268V292.328H88.4008V293.434C88.6528 293.033 88.9888 292.725 89.4088 292.51C89.8382 292.295 90.3095 292.188 90.8228 292.188C91.4668 292.188 92.0362 292.333 92.5308 292.622C93.0255 292.911 93.3942 293.336 93.6368 293.896C93.8515 293.355 94.2062 292.935 94.7008 292.636C95.1955 292.337 95.7462 292.188 96.3528 292.188ZM101.075 296.136C101.075 295.352 101.233 294.666 101.551 294.078C101.868 293.481 102.302 293.019 102.853 292.692C103.413 292.365 104.033 292.202 104.715 292.202C105.387 292.202 105.97 292.347 106.465 292.636C106.959 292.925 107.328 293.289 107.571 293.728V292.328H108.859V300H107.571V298.572C107.319 299.02 106.941 299.393 106.437 299.692C105.942 299.981 105.363 300.126 104.701 300.126C104.019 300.126 103.403 299.958 102.853 299.622C102.302 299.286 101.868 298.815 101.551 298.208C101.233 297.601 101.075 296.911 101.075 296.136ZM107.571 296.15C107.571 295.571 107.454 295.067 107.221 294.638C106.987 294.209 106.67 293.882 106.269 293.658C105.877 293.425 105.443 293.308 104.967 293.308C104.491 293.308 104.057 293.42 103.665 293.644C103.273 293.868 102.96 294.195 102.727 294.624C102.493 295.053 102.377 295.557 102.377 296.136C102.377 296.724 102.493 297.237 102.727 297.676C102.96 298.105 103.273 298.437 103.665 298.67C104.057 298.894 104.491 299.006 104.967 299.006C105.443 299.006 105.877 298.894 106.269 298.67C106.67 298.437 106.987 298.105 107.221 297.676C107.454 297.237 107.571 296.729 107.571 296.15ZM114.274 299.048C114.834 299.048 115.3 298.917 115.674 298.656C116.047 298.395 116.304 298.021 116.444 297.536H117.816C117.629 298.264 117.26 298.861 116.71 299.328C116.168 299.785 115.487 300.047 114.666 300.112V300.812C115.216 300.803 115.655 300.919 115.982 301.162C116.308 301.405 116.472 301.75 116.472 302.198C116.472 302.637 116.313 302.987 115.996 303.248C115.678 303.509 115.268 303.64 114.764 303.64H113.154V302.814H114.512C114.82 302.814 115.044 302.767 115.184 302.674C115.333 302.581 115.408 302.422 115.408 302.198C115.408 301.983 115.333 301.829 115.184 301.736C115.044 301.643 114.82 301.596 114.512 301.596H113.812V300.098C113.168 300.033 112.598 299.832 112.104 299.496C111.609 299.151 111.222 298.693 110.942 298.124C110.671 297.545 110.536 296.887 110.536 296.15C110.536 295.357 110.694 294.666 111.012 294.078C111.329 293.481 111.768 293.019 112.328 292.692C112.897 292.365 113.546 292.202 114.274 292.202C115.216 292.202 115.991 292.431 116.598 292.888C117.214 293.345 117.62 293.98 117.816 294.792H116.444C116.313 294.325 116.056 293.957 115.674 293.686C115.3 293.415 114.834 293.28 114.274 293.28C113.546 293.28 112.958 293.532 112.51 294.036C112.062 294.531 111.838 295.235 111.838 296.15C111.838 297.074 112.062 297.788 112.51 298.292C112.958 298.796 113.546 299.048 114.274 299.048ZM119.04 296.136C119.04 295.352 119.198 294.666 119.516 294.078C119.833 293.481 120.267 293.019 120.818 292.692C121.378 292.365 121.998 292.202 122.68 292.202C123.352 292.202 123.935 292.347 124.43 292.636C124.924 292.925 125.293 293.289 125.536 293.728V292.328H126.824V300H125.536V298.572C125.284 299.02 124.906 299.393 124.402 299.692C123.907 299.981 123.328 300.126 122.666 300.126C121.984 300.126 121.368 299.958 120.818 299.622C120.267 299.286 119.833 298.815 119.516 298.208C119.198 297.601 119.04 296.911 119.04 296.136ZM125.536 296.15C125.536 295.571 125.419 295.067 125.186 294.638C124.952 294.209 124.635 293.882 124.234 293.658C123.842 293.425 123.408 293.308 122.932 293.308C122.456 293.308 122.022 293.42 121.63 293.644C121.238 293.868 120.925 294.195 120.692 294.624C120.458 295.053 120.342 295.557 120.342 296.136C120.342 296.724 120.458 297.237 120.692 297.676C120.925 298.105 121.238 298.437 121.63 298.67C122.022 298.894 122.456 299.006 122.932 299.006C123.408 299.006 123.842 298.894 124.234 298.67C124.635 298.437 124.952 298.105 125.186 297.676C125.419 297.237 125.536 296.729 125.536 296.15ZM121.126 291.502C121.191 291.026 121.345 290.662 121.588 290.41C121.84 290.158 122.152 290.032 122.526 290.032C122.703 290.032 122.852 290.065 122.974 290.13C123.104 290.186 123.258 290.27 123.436 290.382C123.566 290.475 123.683 290.55 123.786 290.606C123.888 290.653 124 290.676 124.122 290.676C124.28 290.676 124.416 290.625 124.528 290.522C124.64 290.419 124.71 290.27 124.738 290.074H125.466C125.41 290.541 125.256 290.9 125.004 291.152C124.752 291.404 124.439 291.53 124.066 291.53C123.888 291.53 123.73 291.502 123.59 291.446C123.459 291.381 123.31 291.287 123.142 291.166C122.992 291.073 122.871 291.003 122.778 290.956C122.694 290.909 122.591 290.886 122.47 290.886C122.311 290.886 122.176 290.937 122.064 291.04C121.961 291.143 121.896 291.297 121.868 291.502H121.126ZM132.322 300.126C131.604 300.126 130.95 299.963 130.362 299.636C129.784 299.309 129.326 298.847 128.99 298.25C128.664 297.643 128.5 296.943 128.5 296.15C128.5 295.366 128.668 294.675 129.004 294.078C129.35 293.471 129.816 293.009 130.404 292.692C130.992 292.365 131.65 292.202 132.378 292.202C133.106 292.202 133.764 292.365 134.352 292.692C134.94 293.009 135.402 293.467 135.738 294.064C136.084 294.661 136.256 295.357 136.256 296.15C136.256 296.943 136.079 297.643 135.724 298.25C135.379 298.847 134.908 299.309 134.31 299.636C133.713 299.963 133.05 300.126 132.322 300.126ZM132.322 299.006C132.78 299.006 133.209 298.899 133.61 298.684C134.012 298.469 134.334 298.147 134.576 297.718C134.828 297.289 134.954 296.766 134.954 296.15C134.954 295.534 134.833 295.011 134.59 294.582C134.348 294.153 134.03 293.835 133.638 293.63C133.246 293.415 132.822 293.308 132.364 293.308C131.898 293.308 131.468 293.415 131.076 293.63C130.694 293.835 130.386 294.153 130.152 294.582C129.919 295.011 129.802 295.534 129.802 296.15C129.802 296.775 129.914 297.303 130.138 297.732C130.372 298.161 130.68 298.483 131.062 298.698C131.445 298.903 131.865 299.006 132.322 299.006ZM141.188 296.136C141.188 295.352 141.347 294.666 141.664 294.078C141.981 293.481 142.415 293.019 142.966 292.692C143.526 292.365 144.151 292.202 144.842 292.202C145.439 292.202 145.995 292.342 146.508 292.622C147.021 292.893 147.413 293.252 147.684 293.7V289.64H148.972V300H147.684V298.558C147.432 299.015 147.059 299.393 146.564 299.692C146.069 299.981 145.491 300.126 144.828 300.126C144.147 300.126 143.526 299.958 142.966 299.622C142.415 299.286 141.981 298.815 141.664 298.208C141.347 297.601 141.188 296.911 141.188 296.136ZM147.684 296.15C147.684 295.571 147.567 295.067 147.334 294.638C147.101 294.209 146.783 293.882 146.382 293.658C145.99 293.425 145.556 293.308 145.08 293.308C144.604 293.308 144.17 293.42 143.778 293.644C143.386 293.868 143.073 294.195 142.84 294.624C142.607 295.053 142.49 295.557 142.49 296.136C142.49 296.724 142.607 297.237 142.84 297.676C143.073 298.105 143.386 298.437 143.778 298.67C144.17 298.894 144.604 299.006 145.08 299.006C145.556 299.006 145.99 298.894 146.382 298.67C146.783 298.437 147.101 298.105 147.334 297.676C147.567 297.237 147.684 296.729 147.684 296.15ZM154.471 300.126C153.752 300.126 153.099 299.963 152.511 299.636C151.932 299.309 151.475 298.847 151.139 298.25C150.812 297.643 150.649 296.943 150.649 296.15C150.649 295.366 150.817 294.675 151.153 294.078C151.498 293.471 151.965 293.009 152.553 292.692C153.141 292.365 153.799 292.202 154.527 292.202C155.255 292.202 155.913 292.365 156.501 292.692C157.089 293.009 157.551 293.467 157.887 294.064C158.232 294.661 158.405 295.357 158.405 296.15C158.405 296.943 158.228 297.643 157.873 298.25C157.528 298.847 157.056 299.309 156.459 299.636C155.862 299.963 155.199 300.126 154.471 300.126ZM154.471 299.006C154.928 299.006 155.358 298.899 155.759 298.684C156.16 298.469 156.482 298.147 156.725 297.718C156.977 297.289 157.103 296.766 157.103 296.15C157.103 295.534 156.982 295.011 156.739 294.582C156.496 294.153 156.179 293.835 155.787 293.63C155.395 293.415 154.97 293.308 154.513 293.308C154.046 293.308 153.617 293.415 153.225 293.63C152.842 293.835 152.534 294.153 152.301 294.582C152.068 295.011 151.951 295.534 151.951 296.15C151.951 296.775 152.063 297.303 152.287 297.732C152.52 298.161 152.828 298.483 153.211 298.698C153.594 298.903 154.014 299.006 154.471 299.006ZM162.796 300.126C162.208 300.126 161.681 300.028 161.214 299.832C160.747 299.627 160.379 299.347 160.108 298.992C159.837 298.628 159.688 298.213 159.66 297.746H160.976C161.013 298.129 161.191 298.441 161.508 298.684C161.835 298.927 162.259 299.048 162.782 299.048C163.267 299.048 163.65 298.941 163.93 298.726C164.21 298.511 164.35 298.241 164.35 297.914C164.35 297.578 164.201 297.331 163.902 297.172C163.603 297.004 163.141 296.841 162.516 296.682C161.947 296.533 161.48 296.383 161.116 296.234C160.761 296.075 160.453 295.847 160.192 295.548C159.94 295.24 159.814 294.839 159.814 294.344C159.814 293.952 159.931 293.593 160.164 293.266C160.397 292.939 160.729 292.683 161.158 292.496C161.587 292.3 162.077 292.202 162.628 292.202C163.477 292.202 164.163 292.417 164.686 292.846C165.209 293.275 165.489 293.863 165.526 294.61H164.252C164.224 294.209 164.061 293.887 163.762 293.644C163.473 293.401 163.081 293.28 162.586 293.28C162.129 293.28 161.765 293.378 161.494 293.574C161.223 293.77 161.088 294.027 161.088 294.344C161.088 294.596 161.167 294.806 161.326 294.974C161.494 295.133 161.699 295.263 161.942 295.366C162.194 295.459 162.539 295.567 162.978 295.688C163.529 295.837 163.977 295.987 164.322 296.136C164.667 296.276 164.961 296.491 165.204 296.78C165.456 297.069 165.587 297.447 165.596 297.914C165.596 298.334 165.479 298.712 165.246 299.048C165.013 299.384 164.681 299.65 164.252 299.846C163.832 300.033 163.347 300.126 162.796 300.126ZM173.843 300.126C173.255 300.126 172.727 300.028 172.261 299.832C171.794 299.627 171.425 299.347 171.155 298.992C170.884 298.628 170.735 298.213 170.707 297.746H172.023C172.06 298.129 172.237 298.441 172.555 298.684C172.881 298.927 173.306 299.048 173.829 299.048C174.314 299.048 174.697 298.941 174.977 298.726C175.257 298.511 175.397 298.241 175.397 297.914C175.397 297.578 175.247 297.331 174.949 297.172C174.65 297.004 174.188 296.841 173.563 296.682C172.993 296.533 172.527 296.383 172.163 296.234C171.808 296.075 171.5 295.847 171.239 295.548C170.987 295.24 170.861 294.839 170.861 294.344C170.861 293.952 170.977 293.593 171.211 293.266C171.444 292.939 171.775 292.683 172.205 292.496C172.634 292.3 173.124 292.202 173.675 292.202C174.524 292.202 175.21 292.417 175.733 292.846C176.255 293.275 176.535 293.863 176.573 294.61H175.299C175.271 294.209 175.107 293.887 174.809 293.644C174.519 293.401 174.127 293.28 173.633 293.28C173.175 293.28 172.811 293.378 172.541 293.574C172.27 293.77 172.135 294.027 172.135 294.344C172.135 294.596 172.214 294.806 172.373 294.974C172.541 295.133 172.746 295.263 172.989 295.366C173.241 295.459 173.586 295.567 174.025 295.688C174.575 295.837 175.023 295.987 175.369 296.136C175.714 296.276 176.008 296.491 176.251 296.78C176.503 297.069 176.633 297.447 176.643 297.914C176.643 298.334 176.526 298.712 176.293 299.048C176.059 299.384 175.728 299.65 175.299 299.846C174.879 300.033 174.393 300.126 173.843 300.126ZM181.787 300.126C181.069 300.126 180.415 299.963 179.827 299.636C179.249 299.309 178.791 298.847 178.455 298.25C178.129 297.643 177.965 296.943 177.965 296.15C177.965 295.366 178.133 294.675 178.469 294.078C178.815 293.471 179.281 293.009 179.869 292.692C180.457 292.365 181.115 292.202 181.843 292.202C182.571 292.202 183.229 292.365 183.817 292.692C184.405 293.009 184.867 293.467 185.203 294.064C185.549 294.661 185.721 295.357 185.721 296.15C185.721 296.943 185.544 297.643 185.189 298.25C184.844 298.847 184.373 299.309 183.775 299.636C183.178 299.963 182.515 300.126 181.787 300.126ZM181.787 299.006C182.245 299.006 182.674 298.899 183.075 298.684C183.477 298.469 183.799 298.147 184.041 297.718C184.293 297.289 184.419 296.766 184.419 296.15C184.419 295.534 184.298 295.011 184.055 294.582C183.813 294.153 183.495 293.835 183.103 293.63C182.711 293.415 182.287 293.308 181.829 293.308C181.363 293.308 180.933 293.415 180.541 293.63C180.159 293.835 179.851 294.153 179.617 294.582C179.384 295.011 179.267 295.534 179.267 296.15C179.267 296.775 179.379 297.303 179.603 297.732C179.837 298.161 180.145 298.483 180.527 298.698C180.91 298.903 181.33 299.006 181.787 299.006ZM191.134 292.188C192.068 292.188 192.824 292.473 193.402 293.042C193.981 293.602 194.27 294.414 194.27 295.478V300H193.01V295.66C193.01 294.895 192.819 294.311 192.436 293.91C192.054 293.499 191.531 293.294 190.868 293.294C190.196 293.294 189.66 293.504 189.258 293.924C188.866 294.344 188.67 294.955 188.67 295.758V300H187.396V292.328H188.67V293.42C188.922 293.028 189.263 292.725 189.692 292.51C190.131 292.295 190.612 292.188 191.134 292.188ZM200.159 292.188C200.738 292.188 201.261 292.314 201.727 292.566C202.194 292.809 202.558 293.177 202.819 293.672C203.09 294.167 203.225 294.769 203.225 295.478V300H201.965V295.66C201.965 294.895 201.774 294.311 201.391 293.91C201.009 293.499 200.486 293.294 199.823 293.294C199.151 293.294 198.615 293.504 198.213 293.924C197.821 294.344 197.625 294.955 197.625 295.758V300H196.351V289.64H197.625V293.42C197.877 293.028 198.223 292.725 198.661 292.51C199.109 292.295 199.609 292.188 200.159 292.188ZM208.653 300.126C207.934 300.126 207.281 299.963 206.693 299.636C206.114 299.309 205.657 298.847 205.321 298.25C204.994 297.643 204.831 296.943 204.831 296.15C204.831 295.366 204.999 294.675 205.335 294.078C205.68 293.471 206.147 293.009 206.735 292.692C207.323 292.365 207.981 292.202 208.709 292.202C209.437 292.202 210.095 292.365 210.683 292.692C211.271 293.009 211.733 293.467 212.069 294.064C212.414 294.661 212.587 295.357 212.587 296.15C212.587 296.943 212.409 297.643 212.055 298.25C211.709 298.847 211.238 299.309 210.641 299.636C210.043 299.963 209.381 300.126 208.653 300.126ZM208.653 299.006C209.11 299.006 209.539 298.899 209.941 298.684C210.342 298.469 210.664 298.147 210.907 297.718C211.159 297.289 211.285 296.766 211.285 296.15C211.285 295.534 211.163 295.011 210.921 294.582C210.678 294.153 210.361 293.835 209.969 293.63C209.577 293.415 209.152 293.308 208.695 293.308C208.228 293.308 207.799 293.415 207.407 293.63C207.024 293.835 206.716 294.153 206.483 294.582C206.249 295.011 206.133 295.534 206.133 296.15C206.133 296.775 206.245 297.303 206.469 297.732C206.702 298.161 207.01 298.483 207.393 298.698C207.775 298.903 208.195 299.006 208.653 299.006ZM216.978 300.126C216.39 300.126 215.862 300.028 215.396 299.832C214.929 299.627 214.56 299.347 214.29 298.992C214.019 298.628 213.87 298.213 213.842 297.746H215.158C215.195 298.129 215.372 298.441 215.69 298.684C216.016 298.927 216.441 299.048 216.964 299.048C217.449 299.048 217.832 298.941 218.112 298.726C218.392 298.511 218.532 298.241 218.532 297.914C218.532 297.578 218.382 297.331 218.084 297.172C217.785 297.004 217.323 296.841 216.698 296.682C216.128 296.533 215.662 296.383 215.298 296.234C214.943 296.075 214.635 295.847 214.374 295.548C214.122 295.24 213.996 294.839 213.996 294.344C213.996 293.952 214.112 293.593 214.346 293.266C214.579 292.939 214.91 292.683 215.34 292.496C215.769 292.3 216.259 292.202 216.81 292.202C217.659 292.202 218.345 292.417 218.868 292.846C219.39 293.275 219.67 293.863 219.708 294.61H218.434C218.406 294.209 218.242 293.887 217.944 293.644C217.654 293.401 217.262 293.28 216.768 293.28C216.31 293.28 215.946 293.378 215.676 293.574C215.405 293.77 215.27 294.027 215.27 294.344C215.27 294.596 215.349 294.806 215.508 294.974C215.676 295.133 215.881 295.263 216.124 295.366C216.376 295.459 216.721 295.567 217.16 295.688C217.71 295.837 218.158 295.987 218.504 296.136C218.849 296.276 219.143 296.491 219.386 296.78C219.638 297.069 219.768 297.447 219.778 297.914C219.778 298.334 219.661 298.712 219.428 299.048C219.194 299.384 218.863 299.65 218.434 299.846C218.014 300.033 217.528 300.126 216.978 300.126ZM224.832 296.136C224.832 295.352 224.991 294.666 225.308 294.078C225.626 293.481 226.06 293.019 226.61 292.692C227.17 292.365 227.791 292.202 228.472 292.202C229.144 292.202 229.728 292.347 230.222 292.636C230.717 292.925 231.086 293.289 231.328 293.728V292.328H232.616V300H231.328V298.572C231.076 299.02 230.698 299.393 230.194 299.692C229.7 299.981 229.121 300.126 228.458 300.126C227.777 300.126 227.161 299.958 226.61 299.622C226.06 299.286 225.626 298.815 225.308 298.208C224.991 297.601 224.832 296.911 224.832 296.136ZM231.328 296.15C231.328 295.571 231.212 295.067 230.978 294.638C230.745 294.209 230.428 293.882 230.026 293.658C229.634 293.425 229.2 293.308 228.724 293.308C228.248 293.308 227.814 293.42 227.422 293.644C227.03 293.868 226.718 294.195 226.484 294.624C226.251 295.053 226.134 295.557 226.134 296.136C226.134 296.724 226.251 297.237 226.484 297.676C226.718 298.105 227.03 298.437 227.422 298.67C227.814 298.894 228.248 299.006 228.724 299.006C229.2 299.006 229.634 298.894 230.026 298.67C230.428 298.437 230.745 298.105 230.978 297.676C231.212 297.237 231.328 296.729 231.328 296.15ZM234.293 296.136C234.293 295.352 234.452 294.666 234.769 294.078C235.087 293.481 235.521 293.019 236.071 292.692C236.631 292.365 237.257 292.202 237.947 292.202C238.61 292.202 239.189 292.351 239.683 292.65C240.187 292.939 240.556 293.299 240.789 293.728V292.328H242.077V303.64H240.789V298.586C240.547 299.015 240.173 299.379 239.669 299.678C239.165 299.977 238.577 300.126 237.905 300.126C237.233 300.126 236.622 299.958 236.071 299.622C235.521 299.286 235.087 298.815 234.769 298.208C234.452 297.601 234.293 296.911 234.293 296.136ZM240.789 296.15C240.789 295.571 240.673 295.067 240.439 294.638C240.206 294.209 239.889 293.882 239.487 293.658C239.095 293.425 238.661 293.308 238.185 293.308C237.709 293.308 237.275 293.42 236.883 293.644C236.491 293.868 236.179 294.195 235.945 294.624C235.712 295.053 235.595 295.557 235.595 296.136C235.595 296.724 235.712 297.237 235.945 297.676C236.179 298.105 236.491 298.437 236.883 298.67C237.275 298.894 237.709 299.006 238.185 299.006C238.661 299.006 239.095 298.894 239.487 298.67C239.889 298.437 240.206 298.105 240.439 297.676C240.673 297.237 240.789 296.729 240.789 296.15ZM251.034 292.328V300H249.76V298.866C249.518 299.258 249.177 299.566 248.738 299.79C248.309 300.005 247.833 300.112 247.31 300.112C246.713 300.112 246.176 299.991 245.7 299.748C245.224 299.496 244.846 299.123 244.566 298.628C244.296 298.133 244.16 297.531 244.16 296.822V292.328H245.42V296.654C245.42 297.41 245.612 297.993 245.994 298.404C246.377 298.805 246.9 299.006 247.562 299.006C248.244 299.006 248.78 298.796 249.172 298.376C249.564 297.956 249.76 297.345 249.76 296.542V292.328H251.034ZM253.843 291.082C253.601 291.082 253.395 290.998 253.227 290.83C253.059 290.662 252.975 290.457 252.975 290.214C252.975 289.971 253.059 289.766 253.227 289.598C253.395 289.43 253.601 289.346 253.843 289.346C254.077 289.346 254.273 289.43 254.431 289.598C254.599 289.766 254.683 289.971 254.683 290.214C254.683 290.457 254.599 290.662 254.431 290.83C254.273 290.998 254.077 291.082 253.843 291.082ZM254.459 292.328V300H253.185V292.328H254.459ZM257.037 300.084C256.794 300.084 256.589 300 256.421 299.832C256.253 299.664 256.169 299.459 256.169 299.216C256.169 298.973 256.253 298.768 256.421 298.6C256.589 298.432 256.794 298.348 257.037 298.348C257.27 298.348 257.466 298.432 257.625 298.6C257.793 298.768 257.877 298.973 257.877 299.216C257.877 299.459 257.793 299.664 257.625 299.832C257.466 300 257.27 300.084 257.037 300.084Z" fill="#64748B"/>
<path d="M104.163 122.592H105.49L104.893 120.676H100.797L100.199 122.592H101.605V125H96.5518V122.592H97.5449L101.175 111.676H104.699L108.25 122.592H109.217V125H104.163V122.592ZM101.491 118.426H104.181L102.827 114.093L101.491 118.426ZM115.519 111.324H119.5V122.592H121.275V125H116.793V124.648C116.477 124.812 116.151 124.941 115.817 125.035C115.489 125.129 115.155 125.176 114.815 125.176C114.118 125.176 113.477 125.053 112.891 124.807C112.311 124.555 111.81 124.212 111.388 123.778C110.972 123.345 110.646 122.838 110.412 122.258C110.178 121.672 110.061 121.045 110.061 120.377C110.061 119.709 110.175 119.088 110.403 118.514C110.638 117.934 110.96 117.43 111.37 117.002C111.786 116.574 112.281 116.237 112.855 115.991C113.436 115.745 114.071 115.622 114.763 115.622C115.144 115.622 115.501 115.66 115.835 115.736C116.169 115.807 116.488 115.909 116.793 116.044V113.732H115.519V111.324ZM114.965 122.75C115.352 122.738 115.7 122.639 116.011 122.451C116.327 122.264 116.588 122.018 116.793 121.713V119.032C116.588 118.722 116.321 118.481 115.993 118.312C115.671 118.136 115.328 118.051 114.965 118.057C114.66 118.051 114.373 118.104 114.104 118.215C113.84 118.326 113.605 118.484 113.4 118.689C113.201 118.895 113.043 119.141 112.926 119.428C112.809 119.715 112.75 120.04 112.75 120.403C112.75 120.761 112.809 121.086 112.926 121.379C113.043 121.666 113.201 121.912 113.4 122.117C113.605 122.316 113.84 122.469 114.104 122.574C114.373 122.68 114.66 122.738 114.965 122.75ZM122.365 120.412C122.365 119.75 122.485 119.129 122.726 118.549C122.966 117.969 123.3 117.462 123.728 117.028C124.155 116.595 124.665 116.252 125.257 116C125.849 115.748 126.499 115.622 127.208 115.622C127.917 115.622 128.567 115.748 129.159 116C129.757 116.252 130.27 116.595 130.697 117.028C131.125 117.462 131.456 117.969 131.69 118.549C131.931 119.129 132.051 119.75 132.051 120.412C132.051 121.074 131.934 121.698 131.699 122.284C131.471 122.864 131.143 123.374 130.715 123.813C130.293 124.247 129.783 124.59 129.186 124.842C128.594 125.094 127.935 125.22 127.208 125.22C126.476 125.22 125.811 125.094 125.213 124.842C124.621 124.59 124.114 124.247 123.692 123.813C123.271 123.38 122.942 122.873 122.708 122.293C122.479 121.707 122.365 121.08 122.365 120.412ZM124.993 120.412C124.993 120.758 125.052 121.077 125.169 121.37C125.286 121.657 125.444 121.906 125.644 122.117C125.849 122.328 126.083 122.492 126.347 122.609C126.616 122.727 126.903 122.785 127.208 122.785C127.519 122.785 127.806 122.729 128.069 122.618C128.339 122.501 128.57 122.337 128.764 122.126C128.963 121.915 129.118 121.666 129.229 121.379C129.341 121.086 129.396 120.764 129.396 120.412C129.396 120.049 129.341 119.721 129.229 119.428C129.118 119.135 128.963 118.886 128.764 118.681C128.57 118.476 128.339 118.32 128.069 118.215C127.806 118.104 127.519 118.051 127.208 118.057C126.903 118.051 126.616 118.104 126.347 118.215C126.083 118.32 125.849 118.476 125.644 118.681C125.444 118.886 125.286 119.135 125.169 119.428C125.052 119.721 124.993 120.049 124.993 120.412ZM136.823 115.895H138.643V118.197H136.806L136.788 122.047C136.788 122.27 136.806 122.451 136.841 122.592C136.876 122.727 136.926 122.835 136.99 122.917C137.061 122.999 137.143 123.055 137.236 123.084C137.33 123.113 137.438 123.128 137.562 123.128C137.784 123.128 137.98 123.107 138.15 123.066C138.32 123.02 138.49 122.967 138.66 122.908L139.038 124.604C138.739 124.792 138.405 124.941 138.036 125.053C137.673 125.164 137.239 125.22 136.735 125.22C136.378 125.22 136.035 125.158 135.707 125.035C135.385 124.912 135.101 124.728 134.854 124.481C134.608 124.229 134.412 123.916 134.266 123.541C134.119 123.166 134.049 122.729 134.055 122.231L134.081 118.197H132.771V115.895H134.09L134.107 113.715L136.841 112.414L136.823 115.895ZM142.782 121.019L142.809 121.291C142.873 121.555 142.981 121.786 143.134 121.985C143.292 122.185 143.477 122.352 143.688 122.486C143.898 122.621 144.133 122.724 144.391 122.794C144.648 122.858 144.909 122.891 145.173 122.891C145.437 122.891 145.686 122.876 145.92 122.847C146.16 122.812 146.392 122.768 146.614 122.715C146.837 122.656 147.054 122.592 147.265 122.521C147.476 122.445 147.689 122.366 147.906 122.284L148.873 124.086C148.539 124.291 148.231 124.467 147.95 124.613C147.675 124.754 147.396 124.871 147.115 124.965C146.834 125.059 146.535 125.126 146.219 125.167C145.902 125.214 145.533 125.237 145.111 125.237C144.32 125.237 143.617 125.108 143.002 124.851C142.387 124.587 141.868 124.232 141.446 123.787C141.03 123.342 140.711 122.82 140.488 122.223C140.271 121.625 140.163 120.992 140.163 120.324C140.163 119.656 140.277 119.029 140.506 118.443C140.74 117.857 141.068 117.348 141.49 116.914C141.912 116.475 142.416 116.129 143.002 115.877C143.588 115.625 144.238 115.499 144.953 115.499C145.668 115.499 146.301 115.619 146.852 115.859C147.408 116.094 147.877 116.422 148.258 116.844C148.639 117.26 148.932 117.752 149.137 118.32C149.342 118.883 149.453 119.489 149.471 120.14C149.488 120.286 149.497 120.433 149.497 120.579C149.503 120.72 149.5 120.866 149.488 121.019H142.782ZM144.883 117.696C144.555 117.696 144.273 117.737 144.039 117.819C143.811 117.896 143.617 118.004 143.459 118.145C143.301 118.279 143.175 118.435 143.081 118.61C142.987 118.786 142.914 118.971 142.861 119.164H146.667C146.626 118.965 146.567 118.777 146.491 118.602C146.415 118.426 146.31 118.271 146.175 118.136C146.04 118.001 145.867 117.896 145.656 117.819C145.451 117.737 145.193 117.696 144.883 117.696ZM161.591 122.592H162.918L162.32 120.676H158.225L157.627 122.592H159.033V125H153.979V122.592H154.973L158.603 111.676H162.127L165.678 122.592H166.645V125H161.591V122.592ZM158.919 118.426H161.608L160.255 114.093L158.919 118.426ZM175.047 119.762C175.047 119.252 174.912 118.854 174.643 118.566C174.373 118.273 174.016 118.127 173.57 118.127C173.266 118.127 172.958 118.194 172.647 118.329C172.337 118.464 172.035 118.716 171.742 119.085V122.592H173.219V125H167.559V122.592H168.895V118.303H167.576V115.895H171.725V116.694C172.105 116.396 172.53 116.161 172.999 115.991C173.474 115.815 173.972 115.728 174.493 115.728C175.589 115.728 176.433 116.035 177.024 116.65C177.616 117.26 177.912 118.153 177.912 119.331V122.592H179.204V125H175.047V119.762ZM180.391 115.895H184.478V122.592H185.743V125H180.391V122.592H181.762V118.303H180.391V115.895ZM181.621 112.959C181.621 112.742 181.659 112.54 181.735 112.353C181.817 112.159 181.929 111.992 182.069 111.852C182.21 111.711 182.374 111.6 182.562 111.518C182.755 111.436 182.963 111.395 183.186 111.395C183.396 111.395 183.596 111.436 183.783 111.518C183.971 111.6 184.135 111.711 184.275 111.852C184.416 111.992 184.527 112.159 184.609 112.353C184.691 112.54 184.732 112.742 184.732 112.959C184.732 113.176 184.691 113.381 184.609 113.574C184.527 113.762 184.416 113.926 184.275 114.066C184.135 114.207 183.971 114.318 183.783 114.4C183.596 114.482 183.396 114.523 183.186 114.523C182.963 114.523 182.755 114.482 182.562 114.4C182.374 114.318 182.21 114.207 182.069 114.066C181.929 113.926 181.817 113.762 181.735 113.574C181.659 113.381 181.621 113.176 181.621 112.959ZM187.352 115.895H191.518V116.686C191.893 116.387 192.314 116.149 192.783 115.974C193.252 115.798 193.735 115.71 194.233 115.71C194.925 115.71 195.517 115.833 196.009 116.079C196.507 116.319 196.896 116.688 197.178 117.187C197.371 116.97 197.588 116.773 197.828 116.598C198.074 116.416 198.335 116.261 198.61 116.132C198.886 115.997 199.173 115.895 199.472 115.824C199.776 115.748 200.087 115.71 200.403 115.71C201.517 115.71 202.372 116.018 202.97 116.633C203.567 117.248 203.866 118.147 203.866 119.331V122.592H205.158V125H201.001V119.779C201.001 119.264 200.866 118.859 200.597 118.566C200.333 118.273 199.964 118.127 199.489 118.127C199.161 118.127 198.851 118.206 198.558 118.364C198.271 118.517 197.983 118.783 197.696 119.164C197.702 119.229 197.705 119.296 197.705 119.366C197.705 119.431 197.705 119.498 197.705 119.568V122.592H199.023V125H194.866V119.762C194.866 119.516 194.828 119.293 194.752 119.094C194.676 118.895 194.57 118.725 194.436 118.584C194.301 118.443 194.14 118.335 193.952 118.259C193.771 118.177 193.568 118.133 193.346 118.127C193.053 118.121 192.748 118.186 192.432 118.32C192.121 118.455 191.822 118.704 191.535 119.067V122.592H192.994V125H187.334V122.592H188.688V118.303H187.352V115.895ZM211.882 124.508C211.677 124.637 211.489 124.748 211.319 124.842C211.149 124.93 210.979 125 210.81 125.053C210.64 125.111 210.464 125.152 210.282 125.176C210.101 125.205 209.901 125.22 209.685 125.22C209.14 125.22 208.65 125.146 208.217 125C207.789 124.848 207.426 124.643 207.127 124.385C206.834 124.121 206.608 123.813 206.45 123.462C206.292 123.104 206.213 122.718 206.213 122.302C206.213 121.88 206.292 121.49 206.45 121.133C206.614 120.775 206.849 120.471 207.153 120.219C207.458 119.961 207.83 119.762 208.27 119.621C208.715 119.475 209.222 119.401 209.79 119.401C210.206 119.401 210.584 119.425 210.924 119.472C211.27 119.513 211.589 119.565 211.882 119.63V119.349C211.882 119.12 211.838 118.924 211.75 118.76C211.662 118.59 211.539 118.452 211.381 118.347C211.223 118.235 211.032 118.156 210.81 118.109C210.587 118.057 210.344 118.03 210.08 118.03C209.529 118.03 209.043 118.086 208.621 118.197C208.205 118.303 207.804 118.458 207.417 118.663L206.573 116.958C207.171 116.548 207.795 116.234 208.445 116.018C209.102 115.801 209.796 115.692 210.528 115.692C211.097 115.692 211.621 115.757 212.102 115.886C212.588 116.009 213.004 116.214 213.35 116.501C213.695 116.782 213.965 117.151 214.158 117.608C214.357 118.065 214.457 118.622 214.457 119.278V122.592H215.679V125H211.882V124.508ZM209.878 123.146C210.294 123.146 210.672 123.078 211.012 122.943C211.352 122.809 211.642 122.645 211.882 122.451V121.291H209.772C209.638 121.291 209.506 121.312 209.377 121.353C209.248 121.394 209.131 121.452 209.025 121.528C208.926 121.604 208.844 121.698 208.779 121.81C208.721 121.921 208.691 122.05 208.691 122.196C208.691 122.466 208.788 122.691 208.981 122.873C209.181 123.055 209.479 123.146 209.878 123.146ZM217.349 111.324H221.453V122.592H222.859V125H217.349V122.592H218.755V113.732H217.349V111.324Z" fill="#334155"/>
<g clip-path="url(#clip0_438_3715)">
<path fill-rule="evenodd" clip-rule="evenodd" d="M151.502 24.9885L147.441 26.8353L151.28 29.4176L151.502 24.9885Z" fill="#4079AC"/>
<path fill-rule="evenodd" clip-rule="evenodd" d="M184.598 55.4406C180.866 52.9425 184.598 55.4406 180.866 52.9425L181.073 56.5057L184.598 55.4406Z" fill="#4079AC"/>
<path fill-rule="evenodd" clip-rule="evenodd" d="M155.54 73.0728L163.755 79.6935C158.636 84.2452 157.724 79.0728 155.609 87.2414C154.789 90.3985 152.843 96.1303 152.743 99.4789C155.111 99.8238 157.54 100 160 100C172.981 100 184.805 95.0575 193.693 86.9425C194.789 85.8084 195.885 84.5747 196.981 83.2337C191.364 66.1762 180.92 72.59 175.732 68.8506C173.379 67.1571 171.87 65.7012 170.284 63.4176C161.885 61.1264 143.9 57.0575 135.272 55.5249C130.996 59.4713 127.418 65.1264 124.084 71.6782C122.253 75.2797 120.238 78.3218 121.149 81.4713C122.981 83.7241 124.996 85.8238 127.188 87.7241C127.356 87.8314 127.533 87.931 127.716 88.0383C138.184 82.3678 145.533 64.7969 155.54 73.0728Z" fill="#4079AC"/>
<path fill-rule="evenodd" clip-rule="evenodd" d="M210 50C210 22.3831 187.617 0 160 0C137.816 0 119.004 14.4521 112.467 34.4521C112.199 35.4176 111.992 36.3755 111.847 37.318L133.9 14.2912C138.146 9.36399 138.406 7.44061 141.441 7.47893C141.441 15.0498 140.552 13.908 146.59 16.5594C150.222 18.1609 152.981 19.6169 154.437 22.9502C160.13 35.9694 163.701 29.9157 167.51 37.249C164.674 43.1494 160.176 46.5441 151.578 46.7816C144.927 46.9655 137.533 52.1992 135.272 55.5249C143.9 57.0575 161.885 61.1264 170.283 63.4176L169.916 60.1839C178.743 55.7548 173.64 47.5862 187.877 44.1916L187.831 36.8659C190.835 37.8391 190.674 38.2146 191.655 40.1303C193.624 40.9808 192.95 40.3142 193.801 42.2835C199.816 45.4636 204.115 52.5287 209.517 56.9655C209.839 54.6897 210 52.3678 210 50Z" fill="#94A3B8"/>
<path fill-rule="evenodd" clip-rule="evenodd" d="M150.192 79.0268C153.602 78.3372 150.192 79.0268 153.602 78.3372L151.533 76.4981L150.192 79.0268Z" fill="#4079AC"/>
</g>
<path d="M43.6214 391.83H39.3654L38.5814 394H37.2374L40.7654 384.298H42.2354L45.7494 394H44.4054L43.6214 391.83ZM43.2574 390.794L41.4934 385.866L39.7294 390.794H43.2574ZM48.561 387.574C48.785 387.135 49.1023 386.795 49.513 386.552C49.933 386.309 50.4417 386.188 51.039 386.188V387.504H50.703C49.275 387.504 48.561 388.279 48.561 389.828V394H47.287V386.328H48.561V387.574ZM53.7836 387.574C54.0076 387.135 54.325 386.795 54.7356 386.552C55.1556 386.309 55.6643 386.188 56.2616 386.188V387.504H55.9256C54.4976 387.504 53.7836 388.279 53.7836 389.828V394H52.5096V386.328H53.7836V387.574ZM57.2563 390.136C57.2563 389.352 57.415 388.666 57.7323 388.078C58.0496 387.481 58.4836 387.019 59.0343 386.692C59.5943 386.365 60.215 386.202 60.8963 386.202C61.5683 386.202 62.1516 386.347 62.6463 386.636C63.141 386.925 63.5096 387.289 63.7523 387.728V386.328H65.0403V394H63.7523V392.572C63.5003 393.02 63.1223 393.393 62.6183 393.692C62.1236 393.981 61.545 394.126 60.8823 394.126C60.201 394.126 59.585 393.958 59.0343 393.622C58.4836 393.286 58.0496 392.815 57.7323 392.208C57.415 391.601 57.2563 390.911 57.2563 390.136ZM63.7523 390.15C63.7523 389.571 63.6356 389.067 63.4023 388.638C63.169 388.209 62.8516 387.882 62.4503 387.658C62.0583 387.425 61.6243 387.308 61.1483 387.308C60.6723 387.308 60.2383 387.42 59.8463 387.644C59.4543 387.868 59.1416 388.195 58.9083 388.624C58.675 389.053 58.5583 389.557 58.5583 390.136C58.5583 390.724 58.675 391.237 58.9083 391.676C59.1416 392.105 59.4543 392.437 59.8463 392.67C60.2383 392.894 60.6723 393.006 61.1483 393.006C61.6243 393.006 62.0583 392.894 62.4503 392.67C62.8516 392.437 63.169 392.105 63.4023 391.676C63.6356 391.237 63.7523 390.729 63.7523 390.15ZM69.9092 394.126C69.3212 394.126 68.7939 394.028 68.3272 393.832C67.8606 393.627 67.4919 393.347 67.2212 392.992C66.9506 392.628 66.8012 392.213 66.7732 391.746H68.0892C68.1266 392.129 68.3039 392.441 68.6212 392.684C68.9479 392.927 69.3726 393.048 69.8952 393.048C70.3806 393.048 70.7632 392.941 71.0432 392.726C71.3232 392.511 71.4632 392.241 71.4632 391.914C71.4632 391.578 71.3139 391.331 71.0152 391.172C70.7166 391.004 70.2546 390.841 69.6292 390.682C69.0599 390.533 68.5932 390.383 68.2292 390.234C67.8746 390.075 67.5666 389.847 67.3052 389.548C67.0532 389.24 66.9272 388.839 66.9272 388.344C66.9272 387.952 67.0439 387.593 67.2772 387.266C67.5106 386.939 67.8419 386.683 68.2712 386.496C68.7006 386.3 69.1906 386.202 69.7412 386.202C70.5906 386.202 71.2766 386.417 71.7992 386.846C72.3219 387.275 72.6019 387.863 72.6392 388.61H71.3652C71.3372 388.209 71.1739 387.887 70.8752 387.644C70.5859 387.401 70.1939 387.28 69.6992 387.28C69.2419 387.28 68.8779 387.378 68.6072 387.574C68.3366 387.77 68.2012 388.027 68.2012 388.344C68.2012 388.596 68.2806 388.806 68.4392 388.974C68.6072 389.133 68.8126 389.263 69.0552 389.366C69.3072 389.459 69.6526 389.567 70.0912 389.688C70.6419 389.837 71.0899 389.987 71.4352 390.136C71.7806 390.276 72.0746 390.491 72.3172 390.78C72.5692 391.069 72.6999 391.447 72.7092 391.914C72.7092 392.334 72.5926 392.712 72.3592 393.048C72.1259 393.384 71.7946 393.65 71.3652 393.846C70.9452 394.033 70.4599 394.126 69.9092 394.126ZM76.0617 387.378V391.9C76.0617 392.273 76.141 392.539 76.2997 392.698C76.4584 392.847 76.7337 392.922 77.1257 392.922H78.0637V394H76.9157C76.2064 394 75.6744 393.837 75.3197 393.51C74.965 393.183 74.7877 392.647 74.7877 391.9V387.378H73.7937V386.328H74.7877V384.396H76.0617V386.328H78.0637V387.378H76.0617ZM86.6073 389.87C86.6073 390.113 86.5933 390.369 86.5653 390.64H80.4333C80.48 391.396 80.7366 391.989 81.2033 392.418C81.6793 392.838 82.2533 393.048 82.9253 393.048C83.476 393.048 83.9333 392.922 84.2973 392.67C84.6706 392.409 84.932 392.063 85.0813 391.634H86.4533C86.248 392.371 85.8373 392.973 85.2213 393.44C84.6053 393.897 83.84 394.126 82.9253 394.126C82.1973 394.126 81.544 393.963 80.9653 393.636C80.396 393.309 79.948 392.847 79.6213 392.25C79.2946 391.643 79.1313 390.943 79.1313 390.15C79.1313 389.357 79.29 388.661 79.6073 388.064C79.9246 387.467 80.368 387.009 80.9373 386.692C81.516 386.365 82.1786 386.202 82.9253 386.202C83.6533 386.202 84.2973 386.361 84.8573 386.678C85.4173 386.995 85.8466 387.434 86.1453 387.994C86.4533 388.545 86.6073 389.17 86.6073 389.87ZM85.2913 389.604C85.2913 389.119 85.184 388.703 84.9693 388.358C84.7546 388.003 84.4606 387.737 84.0873 387.56C83.7233 387.373 83.3173 387.28 82.8693 387.28C82.2253 387.28 81.6746 387.485 81.2173 387.896C80.7693 388.307 80.5126 388.876 80.4473 389.604H85.2913ZM93.2954 387.742C93.5474 387.303 93.9207 386.939 94.4154 386.65C94.9194 386.351 95.5027 386.202 96.1654 386.202C96.8467 386.202 97.4627 386.365 98.0134 386.692C98.5734 387.019 99.012 387.481 99.3294 388.078C99.6467 388.666 99.8054 389.352 99.8054 390.136C99.8054 390.911 99.6467 391.601 99.3294 392.208C99.012 392.815 98.5734 393.286 98.0134 393.622C97.4627 393.958 96.8467 394.126 96.1654 394.126C95.512 394.126 94.9334 393.981 94.4294 393.692C93.9347 393.393 93.5567 393.025 93.2954 392.586V397.64H92.0214V386.328H93.2954V387.742ZM98.5034 390.136C98.5034 389.557 98.3867 389.053 98.1534 388.624C97.92 388.195 97.6027 387.868 97.2014 387.644C96.8094 387.42 96.3754 387.308 95.8994 387.308C95.4327 387.308 94.9987 387.425 94.5974 387.658C94.2054 387.882 93.888 388.213 93.6454 388.652C93.412 389.081 93.2954 389.581 93.2954 390.15C93.2954 390.729 93.412 391.237 93.6454 391.676C93.888 392.105 94.2054 392.437 94.5974 392.67C94.9987 392.894 95.4327 393.006 95.8994 393.006C96.3754 393.006 96.8094 392.894 97.2014 392.67C97.6027 392.437 97.92 392.105 98.1534 391.676C98.3867 391.237 98.5034 390.724 98.5034 390.136ZM101.006 390.136C101.006 389.352 101.165 388.666 101.482 388.078C101.8 387.481 102.234 387.019 102.784 386.692C103.344 386.365 103.965 386.202 104.646 386.202C105.318 386.202 105.902 386.347 106.396 386.636C106.891 386.925 107.26 387.289 107.502 387.728V386.328H108.79V394H107.502V392.572C107.25 393.02 106.872 393.393 106.368 393.692C105.874 393.981 105.295 394.126 104.632 394.126C103.951 394.126 103.335 393.958 102.784 393.622C102.234 393.286 101.8 392.815 101.482 392.208C101.165 391.601 101.006 390.911 101.006 390.136ZM107.502 390.15C107.502 389.571 107.386 389.067 107.152 388.638C106.919 388.209 106.602 387.882 106.2 387.658C105.808 387.425 105.374 387.308 104.898 387.308C104.422 387.308 103.988 387.42 103.596 387.644C103.204 387.868 102.892 388.195 102.658 388.624C102.425 389.053 102.308 389.557 102.308 390.136C102.308 390.724 102.425 391.237 102.658 391.676C102.892 392.105 103.204 392.437 103.596 392.67C103.988 392.894 104.422 393.006 104.898 393.006C105.374 393.006 105.808 392.894 106.2 392.67C106.602 392.437 106.919 392.105 107.152 391.676C107.386 391.237 107.502 390.729 107.502 390.15ZM112.217 387.574C112.441 387.135 112.759 386.795 113.169 386.552C113.589 386.309 114.098 386.188 114.695 386.188V387.504H114.359C112.931 387.504 112.217 388.279 112.217 389.828V394H110.943V386.328H112.217V387.574ZM115.69 390.136C115.69 389.352 115.849 388.666 116.166 388.078C116.483 387.481 116.917 387.019 117.468 386.692C118.028 386.365 118.649 386.202 119.33 386.202C120.002 386.202 120.585 386.347 121.08 386.636C121.575 386.925 121.943 387.289 122.186 387.728V386.328H123.474V394H122.186V392.572C121.934 393.02 121.556 393.393 121.052 393.692C120.557 393.981 119.979 394.126 119.316 394.126C118.635 394.126 118.019 393.958 117.468 393.622C116.917 393.286 116.483 392.815 116.166 392.208C115.849 391.601 115.69 390.911 115.69 390.136ZM122.186 390.15C122.186 389.571 122.069 389.067 121.836 388.638C121.603 388.209 121.285 387.882 120.884 387.658C120.492 387.425 120.058 387.308 119.582 387.308C119.106 387.308 118.672 387.42 118.28 387.644C117.888 387.868 117.575 388.195 117.342 388.624C117.109 389.053 116.992 389.557 116.992 390.136C116.992 390.724 117.109 391.237 117.342 391.676C117.575 392.105 117.888 392.437 118.28 392.67C118.672 392.894 119.106 393.006 119.582 393.006C120.058 393.006 120.492 392.894 120.884 392.67C121.285 392.437 121.603 392.105 121.836 391.676C122.069 391.237 122.186 390.729 122.186 390.15ZM128.883 390.15C128.883 389.357 129.042 388.666 129.359 388.078C129.677 387.481 130.115 387.019 130.675 386.692C131.245 386.365 131.893 386.202 132.621 386.202C133.564 386.202 134.339 386.431 134.945 386.888C135.561 387.345 135.967 387.98 136.163 388.792H134.791C134.661 388.325 134.404 387.957 134.021 387.686C133.648 387.415 133.181 387.28 132.621 387.28C131.893 387.28 131.305 387.532 130.857 388.036C130.409 388.531 130.185 389.235 130.185 390.15C130.185 391.074 130.409 391.788 130.857 392.292C131.305 392.796 131.893 393.048 132.621 393.048C133.181 393.048 133.648 392.917 134.021 392.656C134.395 392.395 134.651 392.021 134.791 391.536H136.163C135.958 392.32 135.547 392.95 134.931 393.426C134.315 393.893 133.545 394.126 132.621 394.126C131.893 394.126 131.245 393.963 130.675 393.636C130.115 393.309 129.677 392.847 129.359 392.25C129.042 391.653 128.883 390.953 128.883 390.15ZM141.209 394.126C140.49 394.126 139.837 393.963 139.249 393.636C138.67 393.309 138.213 392.847 137.877 392.25C137.55 391.643 137.387 390.943 137.387 390.15C137.387 389.366 137.555 388.675 137.891 388.078C138.236 387.471 138.703 387.009 139.291 386.692C139.879 386.365 140.537 386.202 141.265 386.202C141.993 386.202 142.651 386.365 143.239 386.692C143.827 387.009 144.289 387.467 144.625 388.064C144.97 388.661 145.143 389.357 145.143 390.15C145.143 390.943 144.966 391.643 144.611 392.25C144.266 392.847 143.794 393.309 143.197 393.636C142.6 393.963 141.937 394.126 141.209 394.126ZM141.209 393.006C141.666 393.006 142.096 392.899 142.497 392.684C142.898 392.469 143.22 392.147 143.463 391.718C143.715 391.289 143.841 390.766 143.841 390.15C143.841 389.534 143.72 389.011 143.477 388.582C143.234 388.153 142.917 387.835 142.525 387.63C142.133 387.415 141.708 387.308 141.251 387.308C140.784 387.308 140.355 387.415 139.963 387.63C139.58 387.835 139.272 388.153 139.039 388.582C138.806 389.011 138.689 389.534 138.689 390.15C138.689 390.775 138.801 391.303 139.025 391.732C139.258 392.161 139.566 392.483 139.949 392.698C140.332 392.903 140.752 393.006 141.209 393.006ZM150.556 386.188C151.49 386.188 152.246 386.473 152.824 387.042C153.403 387.602 153.692 388.414 153.692 389.478V394H152.432V389.66C152.432 388.895 152.241 388.311 151.858 387.91C151.476 387.499 150.953 387.294 150.29 387.294C149.618 387.294 149.082 387.504 148.68 387.924C148.288 388.344 148.092 388.955 148.092 389.758V394H146.818V386.328H148.092V387.42C148.344 387.028 148.685 386.725 149.114 386.51C149.553 386.295 150.034 386.188 150.556 386.188ZM159.581 386.188C160.16 386.188 160.683 386.314 161.149 386.566C161.616 386.809 161.98 387.177 162.241 387.672C162.512 388.167 162.647 388.769 162.647 389.478V394H161.387V389.66C161.387 388.895 161.196 388.311 160.813 387.91C160.431 387.499 159.908 387.294 159.245 387.294C158.573 387.294 158.037 387.504 157.635 387.924C157.243 388.344 157.047 388.955 157.047 389.758V394H155.773V383.64H157.047V387.42C157.299 387.028 157.645 386.725 158.083 386.51C158.531 386.295 159.031 386.188 159.581 386.188ZM171.728 389.87C171.728 390.113 171.714 390.369 171.686 390.64H165.554C165.601 391.396 165.858 391.989 166.324 392.418C166.8 392.838 167.374 393.048 168.046 393.048C168.597 393.048 169.054 392.922 169.418 392.67C169.792 392.409 170.053 392.063 170.202 391.634H171.574C171.369 392.371 170.958 392.973 170.342 393.44C169.726 393.897 168.961 394.126 168.046 394.126C167.318 394.126 166.665 393.963 166.086 393.636C165.517 393.309 165.069 392.847 164.742 392.25C164.416 391.643 164.252 390.943 164.252 390.15C164.252 389.357 164.411 388.661 164.728 388.064C165.046 387.467 165.489 387.009 166.058 386.692C166.637 386.365 167.3 386.202 168.046 386.202C168.774 386.202 169.418 386.361 169.978 386.678C170.538 386.995 170.968 387.434 171.266 387.994C171.574 388.545 171.728 389.17 171.728 389.87ZM170.412 389.604C170.412 389.119 170.305 388.703 170.09 388.358C169.876 388.003 169.582 387.737 169.208 387.56C168.844 387.373 168.438 387.28 167.99 387.28C167.346 387.28 166.796 387.485 166.338 387.896C165.89 388.307 165.634 388.876 165.568 389.604H170.412ZM172.934 390.15C172.934 389.357 173.093 388.666 173.41 388.078C173.727 387.481 174.166 387.019 174.726 386.692C175.295 386.365 175.944 386.202 176.672 386.202C177.615 386.202 178.389 386.431 178.996 386.888C179.612 387.345 180.018 387.98 180.214 388.792H178.842C178.711 388.325 178.455 387.957 178.072 387.686C177.699 387.415 177.232 387.28 176.672 387.28C175.944 387.28 175.356 387.532 174.908 388.036C174.46 388.531 174.236 389.235 174.236 390.15C174.236 391.074 174.46 391.788 174.908 392.292C175.356 392.796 175.944 393.048 176.672 393.048C177.232 393.048 177.699 392.917 178.072 392.656C178.445 392.395 178.702 392.021 178.842 391.536H180.214C180.009 392.32 179.598 392.95 178.982 393.426C178.366 393.893 177.596 394.126 176.672 394.126C175.944 394.126 175.295 393.963 174.726 393.636C174.166 393.309 173.727 392.847 173.41 392.25C173.093 391.653 172.934 390.953 172.934 390.15ZM188.914 389.87C188.914 390.113 188.9 390.369 188.872 390.64H182.74C182.787 391.396 183.043 391.989 183.51 392.418C183.986 392.838 184.56 393.048 185.232 393.048C185.783 393.048 186.24 392.922 186.604 392.67C186.977 392.409 187.239 392.063 187.388 391.634H188.76C188.555 392.371 188.144 392.973 187.528 393.44C186.912 393.897 186.147 394.126 185.232 394.126C184.504 394.126 183.851 393.963 183.272 393.636C182.703 393.309 182.255 392.847 181.928 392.25C181.601 391.643 181.438 390.943 181.438 390.15C181.438 389.357 181.597 388.661 181.914 388.064C182.231 387.467 182.675 387.009 183.244 386.692C183.823 386.365 184.485 386.202 185.232 386.202C185.96 386.202 186.604 386.361 187.164 386.678C187.724 386.995 188.153 387.434 188.452 387.994C188.76 388.545 188.914 389.17 188.914 389.87ZM187.598 389.604C187.598 389.119 187.491 388.703 187.276 388.358C187.061 388.003 186.767 387.737 186.394 387.56C186.03 387.373 185.624 387.28 185.176 387.28C184.532 387.28 183.981 387.485 183.524 387.896C183.076 388.307 182.819 388.876 182.754 389.604H187.598ZM191.87 387.574C192.094 387.135 192.411 386.795 192.822 386.552C193.242 386.309 193.75 386.188 194.348 386.188V387.504H194.012C192.584 387.504 191.87 388.279 191.87 389.828V394H190.596V386.328H191.87V387.574ZM202.897 394.126C202.178 394.126 201.525 393.963 200.937 393.636C200.358 393.309 199.901 392.847 199.565 392.25C199.238 391.643 199.075 390.943 199.075 390.15C199.075 389.366 199.243 388.675 199.579 388.078C199.924 387.471 200.391 387.009 200.979 386.692C201.567 386.365 202.225 386.202 202.953 386.202C203.681 386.202 204.339 386.365 204.927 386.692C205.515 387.009 205.977 387.467 206.313 388.064C206.658 388.661 206.831 389.357 206.831 390.15C206.831 390.943 206.653 391.643 206.299 392.25C205.953 392.847 205.482 393.309 204.885 393.636C204.287 393.963 203.625 394.126 202.897 394.126ZM202.897 393.006C203.354 393.006 203.783 392.899 204.185 392.684C204.586 392.469 204.908 392.147 205.151 391.718C205.403 391.289 205.529 390.766 205.529 390.15C205.529 389.534 205.407 389.011 205.165 388.582C204.922 388.153 204.605 387.835 204.213 387.63C203.821 387.415 203.396 387.308 202.939 387.308C202.472 387.308 202.043 387.415 201.651 387.63C201.268 387.835 200.96 388.153 200.727 388.582C200.493 389.011 200.377 389.534 200.377 390.15C200.377 390.775 200.489 391.303 200.713 391.732C200.946 392.161 201.254 392.483 201.637 392.698C202.019 392.903 202.439 393.006 202.897 393.006ZM211.762 390.136C211.762 389.352 211.921 388.666 212.238 388.078C212.555 387.481 212.989 387.019 213.54 386.692C214.1 386.365 214.721 386.202 215.402 386.202C216.074 386.202 216.657 386.347 217.152 386.636C217.647 386.925 218.015 387.289 218.258 387.728V386.328H219.546V394H218.258V392.572C218.006 393.02 217.628 393.393 217.124 393.692C216.629 393.981 216.051 394.126 215.388 394.126C214.707 394.126 214.091 393.958 213.54 393.622C212.989 393.286 212.555 392.815 212.238 392.208C211.921 391.601 211.762 390.911 211.762 390.136ZM218.258 390.15C218.258 389.571 218.141 389.067 217.908 388.638C217.675 388.209 217.357 387.882 216.956 387.658C216.564 387.425 216.13 387.308 215.654 387.308C215.178 387.308 214.744 387.42 214.352 387.644C213.96 387.868 213.647 388.195 213.414 388.624C213.181 389.053 213.064 389.557 213.064 390.136C213.064 390.724 213.181 391.237 213.414 391.676C213.647 392.105 213.96 392.437 214.352 392.67C214.744 392.894 215.178 393.006 215.654 393.006C216.13 393.006 216.564 392.894 216.956 392.67C217.357 392.437 217.675 392.105 217.908 391.676C218.141 391.237 218.258 390.729 218.258 390.15ZM222.973 387.742C223.225 387.303 223.598 386.939 224.093 386.65C224.597 386.351 225.18 386.202 225.843 386.202C226.524 386.202 227.14 386.365 227.691 386.692C228.251 387.019 228.69 387.481 229.007 388.078C229.324 388.666 229.483 389.352 229.483 390.136C229.483 390.911 229.324 391.601 229.007 392.208C228.69 392.815 228.251 393.286 227.691 393.622C227.14 393.958 226.524 394.126 225.843 394.126C225.19 394.126 224.611 393.981 224.107 393.692C223.612 393.393 223.234 393.025 222.973 392.586V397.64H221.699V386.328H222.973V387.742ZM228.181 390.136C228.181 389.557 228.064 389.053 227.831 388.624C227.598 388.195 227.28 387.868 226.879 387.644C226.487 387.42 226.053 387.308 225.577 387.308C225.11 387.308 224.676 387.425 224.275 387.658C223.883 387.882 223.566 388.213 223.323 388.652C223.09 389.081 222.973 389.581 222.973 390.15C222.973 390.729 223.09 391.237 223.323 391.676C223.566 392.105 223.883 392.437 224.275 392.67C224.676 392.894 225.11 393.006 225.577 393.006C226.053 393.006 226.487 392.894 226.879 392.67C227.28 392.437 227.598 392.105 227.831 391.676C228.064 391.237 228.181 390.724 228.181 390.136ZM232.434 383.64V394H231.16V383.64H232.434ZM235.263 385.082C235.021 385.082 234.815 384.998 234.647 384.83C234.479 384.662 234.395 384.457 234.395 384.214C234.395 383.971 234.479 383.766 234.647 383.598C234.815 383.43 235.021 383.346 235.263 383.346C235.497 383.346 235.693 383.43 235.851 383.598C236.019 383.766 236.103 383.971 236.103 384.214C236.103 384.457 236.019 384.662 235.851 384.83C235.693 384.998 235.497 385.082 235.263 385.082ZM235.879 386.328V394H234.605V386.328H235.879ZM237.575 390.15C237.575 389.357 237.733 388.666 238.051 388.078C238.368 387.481 238.807 387.019 239.367 386.692C239.936 386.365 240.585 386.202 241.313 386.202C242.255 386.202 243.03 386.431 243.637 386.888C244.253 387.345 244.659 387.98 244.855 388.792H243.483C243.352 388.325 243.095 387.957 242.713 387.686C242.339 387.415 241.873 387.28 241.313 387.28C240.585 387.28 239.997 387.532 239.549 388.036C239.101 388.531 238.877 389.235 238.877 390.15C238.877 391.074 239.101 391.788 239.549 392.292C239.997 392.796 240.585 393.048 241.313 393.048C241.873 393.048 242.339 392.917 242.713 392.656C243.086 392.395 243.343 392.021 243.483 391.536H244.855C244.649 392.32 244.239 392.95 243.623 393.426C243.007 393.893 242.237 394.126 241.313 394.126C240.585 394.126 239.936 393.963 239.367 393.636C238.807 393.309 238.368 392.847 238.051 392.25C237.733 391.653 237.575 390.953 237.575 390.15ZM246.079 390.136C246.079 389.352 246.237 388.666 246.555 388.078C246.872 387.481 247.306 387.019 247.857 386.692C248.417 386.365 249.037 386.202 249.719 386.202C250.391 386.202 250.974 386.347 251.469 386.636C251.963 386.925 252.332 387.289 252.575 387.728V386.328H253.863V394H252.575V392.572C252.323 393.02 251.945 393.393 251.441 393.692C250.946 393.981 250.367 394.126 249.705 394.126C249.023 394.126 248.407 393.958 247.857 393.622C247.306 393.286 246.872 392.815 246.555 392.208C246.237 391.601 246.079 390.911 246.079 390.136ZM252.575 390.15C252.575 389.571 252.458 389.067 252.225 388.638C251.991 388.209 251.674 387.882 251.273 387.658C250.881 387.425 250.447 387.308 249.971 387.308C249.495 387.308 249.061 387.42 248.669 387.644C248.277 387.868 247.964 388.195 247.731 388.624C247.497 389.053 247.381 389.557 247.381 390.136C247.381 390.724 247.497 391.237 247.731 391.676C247.964 392.105 248.277 392.437 248.669 392.67C249.061 392.894 249.495 393.006 249.971 393.006C250.447 393.006 250.881 392.894 251.273 392.67C251.674 392.437 251.991 392.105 252.225 391.676C252.458 391.237 252.575 390.729 252.575 390.15ZM257.57 387.378V391.9C257.57 392.273 257.649 392.539 257.808 392.698C257.966 392.847 258.242 392.922 258.633 392.922H259.572V394H258.424C257.714 394 257.182 393.837 256.828 393.51C256.473 393.183 256.296 392.647 256.296 391.9V387.378H255.302V386.328H256.296V384.396H257.57V386.328H259.572V387.378H257.57ZM261.773 385.082C261.53 385.082 261.325 384.998 261.157 384.83C260.989 384.662 260.905 384.457 260.905 384.214C260.905 383.971 260.989 383.766 261.157 383.598C261.325 383.43 261.53 383.346 261.773 383.346C262.006 383.346 262.202 383.43 262.361 383.598C262.529 383.766 262.613 383.971 262.613 384.214C262.613 384.457 262.529 384.662 262.361 384.83C262.202 384.998 262.006 385.082 261.773 385.082ZM262.389 386.328V394H261.115V386.328H262.389ZM267.416 392.824L269.796 386.328H271.154L268.144 394H266.66L263.65 386.328H265.022L267.416 392.824ZM275.754 394.126C275.035 394.126 274.382 393.963 273.794 393.636C273.215 393.309 272.758 392.847 272.422 392.25C272.095 391.643 271.932 390.943 271.932 390.15C271.932 389.366 272.1 388.675 272.436 388.078C272.781 387.471 273.248 387.009 273.836 386.692C274.424 386.365 275.082 386.202 275.81 386.202C276.538 386.202 277.196 386.365 277.784 386.692C278.372 387.009 278.834 387.467 279.17 388.064C279.515 388.661 279.688 389.357 279.688 390.15C279.688 390.943 279.511 391.643 279.156 392.25C278.811 392.847 278.339 393.309 277.742 393.636C277.145 393.963 276.482 394.126 275.754 394.126ZM275.754 393.006C276.211 393.006 276.641 392.899 277.042 392.684C277.443 392.469 277.765 392.147 278.008 391.718C278.26 391.289 278.386 390.766 278.386 390.15C278.386 389.534 278.265 389.011 278.022 388.582C277.779 388.153 277.462 387.835 277.07 387.63C276.678 387.415 276.253 387.308 275.796 387.308C275.329 387.308 274.9 387.415 274.508 387.63C274.125 387.835 273.817 388.153 273.584 388.582C273.351 389.011 273.234 389.534 273.234 390.15C273.234 390.775 273.346 391.303 273.57 391.732C273.803 392.161 274.111 392.483 274.494 392.698C274.877 392.903 275.297 393.006 275.754 393.006ZM281.769 394.084C281.526 394.084 281.321 394 281.153 393.832C280.985 393.664 280.901 393.459 280.901 393.216C280.901 392.973 280.985 392.768 281.153 392.6C281.321 392.432 281.526 392.348 281.769 392.348C282.002 392.348 282.198 392.432 282.357 392.6C282.525 392.768 282.609 392.973 282.609 393.216C282.609 393.459 282.525 393.664 282.357 393.832C282.198 394 282.002 394.084 281.769 394.084Z" fill="#64748B"/>
<defs>
<clipPath id="clip0_438_3715">
<rect width="100" height="100" fill="white" transform="translate(110)"/>
</clipPath>
</defs>
</svg>
