<svg width="320" height="540" viewBox="0 0 320 540" fill="none" xmlns="http://www.w3.org/2000/svg">
<rect width="320" height="540" fill="#F8FAFC"/>
<path d="M10.5491 424.83H6.29313L5.50913 427H4.16512L7.69313 417.298H9.16313L12.6771 427H11.3331L10.5491 424.83ZM10.1851 423.794L8.42113 418.866L6.65713 423.794H10.1851ZM17.5607 427.126C16.8421 427.126 16.1887 426.963 15.6007 426.636C15.0221 426.309 14.5647 425.847 14.2287 425.25C13.9021 424.643 13.7387 423.943 13.7387 423.15C13.7387 422.366 13.9067 421.675 14.2427 421.078C14.5881 420.471 15.0547 420.009 15.6427 419.692C16.2307 419.365 16.8887 419.202 17.6167 419.202C18.3447 419.202 19.0027 419.365 19.5907 419.692C20.1787 420.009 20.6407 420.467 20.9767 421.064C21.3221 421.661 21.4947 422.357 21.4947 423.15C21.4947 423.943 21.3174 424.643 20.9627 425.25C20.6174 425.847 20.1461 426.309 19.5487 426.636C18.9514 426.963 18.2887 427.126 17.5607 427.126ZM17.5607 426.006C18.0181 426.006 18.4474 425.899 18.8487 425.684C19.2501 425.469 19.5721 425.147 19.8147 424.718C20.0667 424.289 20.1927 423.766 20.1927 423.15C20.1927 422.534 20.0714 422.011 19.8287 421.582C19.5861 421.153 19.2687 420.835 18.8767 420.63C18.4847 420.415 18.0601 420.308 17.6027 420.308C17.1361 420.308 16.7067 420.415 16.3147 420.63C15.9321 420.835 15.6241 421.153 15.3907 421.582C15.1574 422.011 15.0407 422.534 15.0407 423.15C15.0407 423.775 15.1527 424.303 15.3767 424.732C15.6101 425.161 15.9181 425.483 16.3007 425.698C16.6834 425.903 17.1034 426.006 17.5607 426.006ZM26.4262 423.136C26.4262 422.352 26.5849 421.666 26.9022 421.078C27.2196 420.481 27.6536 420.019 28.2042 419.692C28.7642 419.365 29.3849 419.202 30.0662 419.202C30.7382 419.202 31.3216 419.347 31.8162 419.636C32.3109 419.925 32.6796 420.289 32.9222 420.728V419.328H34.2102V427H32.9222V425.572C32.6702 426.02 32.2922 426.393 31.7882 426.692C31.2936 426.981 30.7149 427.126 30.0522 427.126C29.3709 427.126 28.7549 426.958 28.2042 426.622C27.6536 426.286 27.2196 425.815 26.9022 425.208C26.5849 424.601 26.4262 423.911 26.4262 423.136ZM32.9222 423.15C32.9222 422.571 32.8056 422.067 32.5722 421.638C32.3389 421.209 32.0216 420.882 31.6202 420.658C31.2282 420.425 30.7942 420.308 30.3182 420.308C29.8422 420.308 29.4082 420.42 29.0162 420.644C28.6242 420.868 28.3116 421.195 28.0782 421.624C27.8449 422.053 27.7282 422.557 27.7282 423.136C27.7282 423.724 27.8449 424.237 28.0782 424.676C28.3116 425.105 28.6242 425.437 29.0162 425.67C29.4082 425.894 29.8422 426.006 30.3182 426.006C30.7942 426.006 31.2282 425.894 31.6202 425.67C32.0216 425.437 32.3389 425.105 32.5722 424.676C32.8056 424.237 32.9222 423.729 32.9222 423.15ZM35.8872 423.136C35.8872 422.352 36.0458 421.666 36.3632 421.078C36.6805 420.481 37.1145 420.019 37.6652 419.692C38.2252 419.365 38.8505 419.202 39.5412 419.202C40.1385 419.202 40.6938 419.342 41.2072 419.622C41.7205 419.893 42.1125 420.252 42.3832 420.7V416.64H43.6712V427H42.3832V425.558C42.1312 426.015 41.7578 426.393 41.2632 426.692C40.7685 426.981 40.1898 427.126 39.5272 427.126C38.8458 427.126 38.2252 426.958 37.6652 426.622C37.1145 426.286 36.6805 425.815 36.3632 425.208C36.0458 424.601 35.8872 423.911 35.8872 423.136ZM42.3832 423.15C42.3832 422.571 42.2665 422.067 42.0332 421.638C41.7998 421.209 41.4825 420.882 41.0812 420.658C40.6892 420.425 40.2552 420.308 39.7792 420.308C39.3032 420.308 38.8692 420.42 38.4772 420.644C38.0852 420.868 37.7725 421.195 37.5392 421.624C37.3058 422.053 37.1892 422.557 37.1892 423.136C37.1892 423.724 37.3058 424.237 37.5392 424.676C37.7725 425.105 38.0852 425.437 38.4772 425.67C38.8692 425.894 39.3032 426.006 39.7792 426.006C40.2552 426.006 40.6892 425.894 41.0812 425.67C41.4825 425.437 41.7998 425.105 42.0332 424.676C42.2665 424.237 42.3832 423.729 42.3832 423.15ZM49.1701 427.126C48.4514 427.126 47.7981 426.963 47.2101 426.636C46.6314 426.309 46.1741 425.847 45.8381 425.25C45.5114 424.643 45.3481 423.943 45.3481 423.15C45.3481 422.366 45.5161 421.675 45.8521 421.078C46.1974 420.471 46.6641 420.009 47.2521 419.692C47.8401 419.365 48.4981 419.202 49.2261 419.202C49.9541 419.202 50.6121 419.365 51.2001 419.692C51.7881 420.009 52.2501 420.467 52.5861 421.064C52.9314 421.661 53.1041 422.357 53.1041 423.15C53.1041 423.943 52.9268 424.643 52.5721 425.25C52.2268 425.847 51.7554 426.309 51.1581 426.636C50.5608 426.963 49.8981 427.126 49.1701 427.126ZM49.1701 426.006C49.6274 426.006 50.0568 425.899 50.4581 425.684C50.8594 425.469 51.1814 425.147 51.4241 424.718C51.6761 424.289 51.8021 423.766 51.8021 423.15C51.8021 422.534 51.6808 422.011 51.4381 421.582C51.1954 421.153 50.8781 420.835 50.4861 420.63C50.0941 420.415 49.6694 420.308 49.2121 420.308C48.7454 420.308 48.3161 420.415 47.9241 420.63C47.5414 420.835 47.2334 421.153 47.0001 421.582C46.7668 422.011 46.6501 422.534 46.6501 423.15C46.6501 423.775 46.7621 424.303 46.9861 424.732C47.2194 425.161 47.5274 425.483 47.9101 425.698C48.2928 425.903 48.7128 426.006 49.1701 426.006ZM56.3332 420.378V424.9C56.3332 425.273 56.4125 425.539 56.5712 425.698C56.7298 425.847 57.0052 425.922 57.3972 425.922H58.3352V427H57.1872C56.4778 427 55.9458 426.837 55.5912 426.51C55.2365 426.183 55.0592 425.647 55.0592 424.9V420.378H54.0652V419.328H55.0592V417.396H56.3332V419.328H58.3352V420.378H56.3332ZM59.4028 423.136C59.4028 422.352 59.5614 421.666 59.8788 421.078C60.1961 420.481 60.6301 420.019 61.1808 419.692C61.7408 419.365 62.3614 419.202 63.0428 419.202C63.7148 419.202 64.2981 419.347 64.7928 419.636C65.2874 419.925 65.6561 420.289 65.8988 420.728V419.328H67.1868V427H65.8988V425.572C65.6468 426.02 65.2688 426.393 64.7648 426.692C64.2701 426.981 63.6914 427.126 63.0288 427.126C62.3474 427.126 61.7314 426.958 61.1808 426.622C60.6301 426.286 60.1961 425.815 59.8788 425.208C59.5614 424.601 59.4028 423.911 59.4028 423.136ZM65.8988 423.15C65.8988 422.571 65.7821 422.067 65.5488 421.638C65.3154 421.209 64.9981 420.882 64.5968 420.658C64.2048 420.425 63.7708 420.308 63.2948 420.308C62.8188 420.308 62.3848 420.42 61.9928 420.644C61.6008 420.868 61.2881 421.195 61.0548 421.624C60.8214 422.053 60.7048 422.557 60.7048 423.136C60.7048 423.724 60.8214 424.237 61.0548 424.676C61.2881 425.105 61.6008 425.437 61.9928 425.67C62.3848 425.894 62.8188 426.006 63.2948 426.006C63.7708 426.006 64.2048 425.894 64.5968 425.67C64.9981 425.437 65.3154 425.105 65.5488 424.676C65.7821 424.237 65.8988 423.729 65.8988 423.15ZM70.6137 420.574C70.8377 420.135 71.1551 419.795 71.5657 419.552C71.9857 419.309 72.4944 419.188 73.0917 419.188V420.504H72.7557C71.3277 420.504 70.6137 421.279 70.6137 422.828V427H69.3397V419.328H70.6137V420.574ZM75.8784 425.236L74.3104 429.002H73.4564L74.4784 425.236H75.8784ZM83.9262 425.824L86.3062 419.328H87.6642L84.6542 427H83.1702L80.1602 419.328H81.5322L83.9262 425.824ZM92.2638 427.126C91.5452 427.126 90.8918 426.963 90.3038 426.636C89.7252 426.309 89.2678 425.847 88.9318 425.25C88.6052 424.643 88.4418 423.943 88.4418 423.15C88.4418 422.366 88.6098 421.675 88.9458 421.078C89.2912 420.471 89.7578 420.009 90.3458 419.692C90.9338 419.365 91.5918 419.202 92.3198 419.202C93.0478 419.202 93.7058 419.365 94.2938 419.692C94.8818 420.009 95.3438 420.467 95.6798 421.064C96.0252 421.661 96.1978 422.357 96.1978 423.15C96.1978 423.943 96.0205 424.643 95.6658 425.25C95.3205 425.847 94.8492 426.309 94.2518 426.636C93.6545 426.963 92.9918 427.126 92.2638 427.126ZM92.2638 426.006C92.7212 426.006 93.1505 425.899 93.5518 425.684C93.9532 425.469 94.2752 425.147 94.5178 424.718C94.7698 424.289 94.8958 423.766 94.8958 423.15C94.8958 422.534 94.7745 422.011 94.5318 421.582C94.2892 421.153 93.9718 420.835 93.5798 420.63C93.1878 420.415 92.7632 420.308 92.3058 420.308C91.8392 420.308 91.4098 420.415 91.0178 420.63C90.6352 420.835 90.3272 421.153 90.0938 421.582C89.8605 422.011 89.7438 422.534 89.7438 423.15C89.7438 423.775 89.8558 424.303 90.0798 424.732C90.3132 425.161 90.6212 425.483 91.0038 425.698C91.3865 425.903 91.8065 426.006 92.2638 426.006ZM97.3969 423.15C97.3969 422.357 97.5556 421.666 97.8729 421.078C98.1903 420.481 98.6289 420.019 99.1889 419.692C99.7583 419.365 100.407 419.202 101.135 419.202C102.078 419.202 102.852 419.431 103.459 419.888C104.075 420.345 104.481 420.98 104.677 421.792H103.305C103.174 421.325 102.918 420.957 102.535 420.686C102.162 420.415 101.695 420.28 101.135 420.28C100.407 420.28 99.8189 420.532 99.3709 421.036C98.9229 421.531 98.6989 422.235 98.6989 423.15C98.6989 424.074 98.9229 424.788 99.3709 425.292C99.8189 425.796 100.407 426.048 101.135 426.048C101.695 426.048 102.162 425.917 102.535 425.656C102.908 425.395 103.165 425.021 103.305 424.536H104.677C104.472 425.32 104.061 425.95 103.445 426.426C102.829 426.893 102.059 427.126 101.135 427.126C100.407 427.126 99.7583 426.963 99.1889 426.636C98.6289 426.309 98.1903 425.847 97.8729 425.25C97.5556 424.653 97.3969 423.953 97.3969 423.15ZM113.377 422.87C113.377 423.113 113.363 423.369 113.335 423.64H107.203C107.249 424.396 107.506 424.989 107.973 425.418C108.449 425.838 109.023 426.048 109.695 426.048C110.245 426.048 110.703 425.922 111.067 425.67C111.44 425.409 111.701 425.063 111.851 424.634H113.223C113.017 425.371 112.607 425.973 111.991 426.44C111.375 426.897 110.609 427.126 109.695 427.126C108.967 427.126 108.313 426.963 107.735 426.636C107.165 426.309 106.717 425.847 106.391 425.25C106.064 424.643 105.901 423.943 105.901 423.15C105.901 422.357 106.059 421.661 106.377 421.064C106.694 420.467 107.137 420.009 107.707 419.692C108.285 419.365 108.948 419.202 109.695 419.202C110.423 419.202 111.067 419.361 111.627 419.678C112.187 419.995 112.616 420.434 112.915 420.994C113.223 421.545 113.377 422.17 113.377 422.87ZM112.061 422.604C112.061 422.119 111.953 421.703 111.739 421.358C111.524 421.003 111.23 420.737 110.857 420.56C110.493 420.373 110.087 420.28 109.639 420.28C108.995 420.28 108.444 420.485 107.987 420.896C107.539 421.307 107.282 421.876 107.217 422.604H112.061ZM109.653 417.452L107.707 418.642V417.634L109.653 416.472L111.585 417.634V418.642L109.653 417.452ZM118.315 423.136C118.315 422.352 118.474 421.666 118.791 421.078C119.108 420.481 119.542 420.019 120.093 419.692C120.653 419.365 121.274 419.202 121.955 419.202C122.627 419.202 123.21 419.347 123.705 419.636C124.2 419.925 124.568 420.289 124.811 420.728V419.328H126.099V427H124.811V425.572C124.559 426.02 124.181 426.393 123.677 426.692C123.182 426.981 122.604 427.126 121.941 427.126C121.26 427.126 120.644 426.958 120.093 426.622C119.542 426.286 119.108 425.815 118.791 425.208C118.474 424.601 118.315 423.911 118.315 423.136ZM124.811 423.15C124.811 422.571 124.694 422.067 124.461 421.638C124.228 421.209 123.91 420.882 123.509 420.658C123.117 420.425 122.683 420.308 122.207 420.308C121.731 420.308 121.297 420.42 120.905 420.644C120.513 420.868 120.2 421.195 119.967 421.624C119.734 422.053 119.617 422.557 119.617 423.136C119.617 423.724 119.734 424.237 119.967 424.676C120.2 425.105 120.513 425.437 120.905 425.67C121.297 425.894 121.731 426.006 122.207 426.006C122.683 426.006 123.117 425.894 123.509 425.67C123.91 425.437 124.228 425.105 124.461 424.676C124.694 424.237 124.811 423.729 124.811 423.15ZM128.938 418.082C128.695 418.082 128.49 417.998 128.322 417.83C128.163 417.662 128.084 417.457 128.084 417.214C128.084 416.971 128.163 416.766 128.322 416.598C128.49 416.43 128.695 416.346 128.938 416.346C129.18 416.346 129.381 416.43 129.54 416.598C129.708 416.766 129.792 416.971 129.792 417.214C129.792 417.457 129.708 417.662 129.54 417.83C129.381 417.998 129.18 418.082 128.938 418.082ZM129.568 428.666C129.568 429.347 129.395 429.847 129.05 430.164C128.704 430.481 128.2 430.64 127.538 430.64H126.796V429.562H127.328C127.682 429.562 127.93 429.492 128.07 429.352C128.219 429.212 128.294 428.974 128.294 428.638V419.328H129.568V428.666ZM138.528 419.328V427H137.254V425.866C137.012 426.258 136.671 426.566 136.232 426.79C135.803 427.005 135.327 427.112 134.804 427.112C134.207 427.112 133.67 426.991 133.194 426.748C132.718 426.496 132.34 426.123 132.06 425.628C131.79 425.133 131.654 424.531 131.654 423.822V419.328H132.914V423.654C132.914 424.41 133.106 424.993 133.488 425.404C133.871 425.805 134.394 426.006 135.056 426.006C135.738 426.006 136.274 425.796 136.666 425.376C137.058 424.956 137.254 424.345 137.254 423.542V419.328H138.528ZM140.204 423.136C140.204 422.352 140.362 421.666 140.68 421.078C140.997 420.481 141.431 420.019 141.982 419.692C142.542 419.365 143.167 419.202 143.858 419.202C144.455 419.202 145.01 419.342 145.524 419.622C146.037 419.893 146.429 420.252 146.7 420.7V416.64H147.988V427H146.7V425.558C146.448 426.015 146.074 426.393 145.58 426.692C145.085 426.981 144.506 427.126 143.844 427.126C143.162 427.126 142.542 426.958 141.982 426.622C141.431 426.286 140.997 425.815 140.68 425.208C140.362 424.601 140.204 423.911 140.204 423.136ZM146.7 423.15C146.7 422.571 146.583 422.067 146.35 421.638C146.116 421.209 145.799 420.882 145.398 420.658C145.006 420.425 144.572 420.308 144.096 420.308C143.62 420.308 143.186 420.42 142.794 420.644C142.402 420.868 142.089 421.195 141.856 421.624C141.622 422.053 141.506 422.557 141.506 423.136C141.506 423.724 141.622 424.237 141.856 424.676C142.089 425.105 142.402 425.437 142.794 425.67C143.186 425.894 143.62 426.006 144.096 426.006C144.572 426.006 145.006 425.894 145.398 425.67C145.799 425.437 146.116 425.105 146.35 424.676C146.583 424.237 146.7 423.729 146.7 423.15ZM149.665 423.136C149.665 422.352 149.823 421.666 150.141 421.078C150.458 420.481 150.892 420.019 151.443 419.692C152.003 419.365 152.623 419.202 153.305 419.202C153.977 419.202 154.56 419.347 155.055 419.636C155.549 419.925 155.918 420.289 156.161 420.728V419.328H157.449V427H156.161V425.572C155.909 426.02 155.531 426.393 155.027 426.692C154.532 426.981 153.953 427.126 153.291 427.126C152.609 427.126 151.993 426.958 151.443 426.622C150.892 426.286 150.458 425.815 150.141 425.208C149.823 424.601 149.665 423.911 149.665 423.136ZM156.161 423.15C156.161 422.571 156.044 422.067 155.811 421.638C155.577 421.209 155.26 420.882 154.859 420.658C154.467 420.425 154.033 420.308 153.557 420.308C153.081 420.308 152.647 420.42 152.255 420.644C151.863 420.868 151.55 421.195 151.317 421.624C151.083 422.053 150.967 422.557 150.967 423.136C150.967 423.724 151.083 424.237 151.317 424.676C151.55 425.105 151.863 425.437 152.255 425.67C152.647 425.894 153.081 426.006 153.557 426.006C154.033 426.006 154.467 425.894 154.859 425.67C155.26 425.437 155.577 425.105 155.811 424.676C156.044 424.237 156.161 423.729 156.161 423.15ZM162.858 423.136C162.858 422.352 163.017 421.666 163.334 421.078C163.651 420.481 164.085 420.019 164.636 419.692C165.196 419.365 165.817 419.202 166.498 419.202C167.17 419.202 167.753 419.347 168.248 419.636C168.743 419.925 169.111 420.289 169.354 420.728V419.328H170.642V427H169.354V425.572C169.102 426.02 168.724 426.393 168.22 426.692C167.725 426.981 167.147 427.126 166.484 427.126C165.803 427.126 165.187 426.958 164.636 426.622C164.085 426.286 163.651 425.815 163.334 425.208C163.017 424.601 162.858 423.911 162.858 423.136ZM169.354 423.15C169.354 422.571 169.237 422.067 169.004 421.638C168.771 421.209 168.453 420.882 168.052 420.658C167.66 420.425 167.226 420.308 166.75 420.308C166.274 420.308 165.84 420.42 165.448 420.644C165.056 420.868 164.743 421.195 164.51 421.624C164.277 422.053 164.16 422.557 164.16 423.136C164.16 423.724 164.277 424.237 164.51 424.676C164.743 425.105 165.056 425.437 165.448 425.67C165.84 425.894 166.274 426.006 166.75 426.006C167.226 426.006 167.66 425.894 168.052 425.67C168.453 425.437 168.771 425.105 169.004 424.676C169.237 424.237 169.354 423.729 169.354 423.15ZM177.801 420.574C178.025 420.135 178.343 419.795 178.753 419.552C179.173 419.309 179.682 419.188 180.279 419.188V420.504H179.943C178.515 420.504 177.801 421.279 177.801 422.828V427H176.527V419.328H177.801V420.574ZM188.75 422.87C188.75 423.113 188.736 423.369 188.708 423.64H182.576C182.623 424.396 182.879 424.989 183.346 425.418C183.822 425.838 184.396 426.048 185.068 426.048C185.619 426.048 186.076 425.922 186.44 425.67C186.813 425.409 187.075 425.063 187.224 424.634H188.596C188.391 425.371 187.98 425.973 187.364 426.44C186.748 426.897 185.983 427.126 185.068 427.126C184.34 427.126 183.687 426.963 183.108 426.636C182.539 426.309 182.091 425.847 181.764 425.25C181.437 424.643 181.274 423.943 181.274 423.15C181.274 422.357 181.433 421.661 181.75 421.064C182.067 420.467 182.511 420.009 183.08 419.692C183.659 419.365 184.321 419.202 185.068 419.202C185.796 419.202 186.44 419.361 187 419.678C187.56 419.995 187.989 420.434 188.288 420.994C188.596 421.545 188.75 422.17 188.75 422.87ZM187.434 422.604C187.434 422.119 187.327 421.703 187.112 421.358C186.897 421.003 186.603 420.737 186.23 420.56C185.866 420.373 185.46 420.28 185.012 420.28C184.368 420.28 183.817 420.485 183.36 420.896C182.912 421.307 182.655 421.876 182.59 422.604H187.434ZM189.956 423.136C189.956 422.352 190.114 421.666 190.432 421.078C190.749 420.481 191.183 420.019 191.734 419.692C192.294 419.365 192.919 419.202 193.61 419.202C194.207 419.202 194.762 419.342 195.276 419.622C195.789 419.893 196.181 420.252 196.452 420.7V416.64H197.74V427H196.452V425.558C196.2 426.015 195.826 426.393 195.332 426.692C194.837 426.981 194.258 427.126 193.596 427.126C192.914 427.126 192.294 426.958 191.734 426.622C191.183 426.286 190.749 425.815 190.432 425.208C190.114 424.601 189.956 423.911 189.956 423.136ZM196.452 423.15C196.452 422.571 196.335 422.067 196.102 421.638C195.868 421.209 195.551 420.882 195.15 420.658C194.758 420.425 194.324 420.308 193.848 420.308C193.372 420.308 192.938 420.42 192.546 420.644C192.154 420.868 191.841 421.195 191.608 421.624C191.374 422.053 191.258 422.557 191.258 423.136C191.258 423.724 191.374 424.237 191.608 424.676C191.841 425.105 192.154 425.437 192.546 425.67C192.938 425.894 193.372 426.006 193.848 426.006C194.324 426.006 194.758 425.894 195.15 425.67C195.551 425.437 195.868 425.105 196.102 424.676C196.335 424.237 196.452 423.729 196.452 423.15ZM206.696 419.328V427H205.422V425.866C205.18 426.258 204.839 426.566 204.4 426.79C203.971 427.005 203.495 427.112 202.972 427.112C202.375 427.112 201.838 426.991 201.362 426.748C200.886 426.496 200.508 426.123 200.228 425.628C199.958 425.133 199.822 424.531 199.822 423.822V419.328H201.082V423.654C201.082 424.41 201.274 424.993 201.656 425.404C202.039 425.805 202.562 426.006 203.224 426.006C203.906 426.006 204.442 425.796 204.834 425.376C205.226 424.956 205.422 424.345 205.422 423.542V419.328H206.696ZM209.8 425.95H213.566V427H208.344V425.95L212.068 420.364H208.372V419.328H213.538V420.364L209.8 425.95ZM215.877 418.082C215.634 418.082 215.429 417.998 215.261 417.83C215.093 417.662 215.009 417.457 215.009 417.214C215.009 416.971 215.093 416.766 215.261 416.598C215.429 416.43 215.634 416.346 215.877 416.346C216.11 416.346 216.306 416.43 216.465 416.598C216.633 416.766 216.717 416.971 216.717 417.214C216.717 417.457 216.633 417.662 216.465 417.83C216.306 417.998 216.11 418.082 215.877 418.082ZM216.493 419.328V427H215.219V419.328H216.493ZM219.938 420.574C220.162 420.135 220.479 419.795 220.89 419.552C221.31 419.309 221.819 419.188 222.416 419.188V420.504H222.08C220.652 420.504 219.938 421.279 219.938 422.828V427H218.664V419.328H219.938V420.574ZM230.965 427.126C230.246 427.126 229.593 426.963 229.005 426.636C228.426 426.309 227.969 425.847 227.633 425.25C227.306 424.643 227.143 423.943 227.143 423.15C227.143 422.366 227.311 421.675 227.647 421.078C227.992 420.471 228.459 420.009 229.047 419.692C229.635 419.365 230.293 419.202 231.021 419.202C231.749 419.202 232.407 419.365 232.995 419.692C233.583 420.009 234.045 420.467 234.381 421.064C234.726 421.661 234.899 422.357 234.899 423.15C234.899 423.943 234.722 424.643 234.367 425.25C234.022 425.847 233.55 426.309 232.953 426.636C232.356 426.963 231.693 427.126 230.965 427.126ZM230.965 426.006C231.422 426.006 231.852 425.899 232.253 425.684C232.654 425.469 232.976 425.147 233.219 424.718C233.471 424.289 233.597 423.766 233.597 423.15C233.597 422.534 233.476 422.011 233.233 421.582C232.99 421.153 232.673 420.835 232.281 420.63C231.889 420.415 231.464 420.308 231.007 420.308C230.54 420.308 230.111 420.415 229.719 420.63C229.336 420.835 229.028 421.153 228.795 421.582C228.562 422.011 228.445 422.534 228.445 423.15C228.445 423.775 228.557 424.303 228.781 424.732C229.014 425.161 229.322 425.483 229.705 425.698C230.088 425.903 230.508 426.006 230.965 426.006ZM244.045 419.188C244.978 419.188 245.734 419.473 246.313 420.042C246.891 420.602 247.181 421.414 247.181 422.478V427H245.921V422.66C245.921 421.895 245.729 421.311 245.347 420.91C244.964 420.499 244.441 420.294 243.779 420.294C243.107 420.294 242.57 420.504 242.169 420.924C241.777 421.344 241.581 421.955 241.581 422.758V427H240.307V419.328H241.581V420.42C241.833 420.028 242.173 419.725 242.603 419.51C243.041 419.295 243.522 419.188 244.045 419.188ZM256.066 419.328V427H254.792V425.866C254.549 426.258 254.208 426.566 253.77 426.79C253.34 427.005 252.864 427.112 252.342 427.112C251.744 427.112 251.208 426.991 250.732 426.748C250.256 426.496 249.878 426.123 249.598 425.628C249.327 425.133 249.192 424.531 249.192 423.822V419.328H250.452V423.654C250.452 424.41 250.643 424.993 251.026 425.404C251.408 425.805 251.931 426.006 252.594 426.006C253.275 426.006 253.812 425.796 254.204 425.376C254.596 424.956 254.792 424.345 254.792 423.542V419.328H256.066ZM254.036 417.158L251.054 418.754V417.802L254.036 416.052V417.158ZM267.443 419.188C268.04 419.188 268.572 419.314 269.039 419.566C269.505 419.809 269.874 420.177 270.145 420.672C270.415 421.167 270.551 421.769 270.551 422.478V427H269.291V422.66C269.291 421.895 269.099 421.311 268.717 420.91C268.343 420.499 267.835 420.294 267.191 420.294C266.528 420.294 266.001 420.509 265.609 420.938C265.217 421.358 265.021 421.969 265.021 422.772V427H263.761V422.66C263.761 421.895 263.569 421.311 263.187 420.91C262.813 420.499 262.305 420.294 261.661 420.294C260.998 420.294 260.471 420.509 260.079 420.938C259.687 421.358 259.491 421.969 259.491 422.772V427H258.217V419.328H259.491V420.434C259.743 420.033 260.079 419.725 260.499 419.51C260.928 419.295 261.399 419.188 261.913 419.188C262.557 419.188 263.126 419.333 263.621 419.622C264.115 419.911 264.484 420.336 264.727 420.896C264.941 420.355 265.296 419.935 265.791 419.636C266.285 419.337 266.836 419.188 267.443 419.188ZM279.641 422.87C279.641 423.113 279.627 423.369 279.599 423.64H273.467C273.513 424.396 273.77 424.989 274.237 425.418C274.713 425.838 275.287 426.048 275.959 426.048C276.509 426.048 276.967 425.922 277.331 425.67C277.704 425.409 277.965 425.063 278.115 424.634H279.487C279.281 425.371 278.871 425.973 278.255 426.44C277.639 426.897 276.873 427.126 275.959 427.126C275.231 427.126 274.577 426.963 273.999 426.636C273.429 426.309 272.981 425.847 272.655 425.25C272.328 424.643 272.165 423.943 272.165 423.15C272.165 422.357 272.323 421.661 272.641 421.064C272.958 420.467 273.401 420.009 273.971 419.692C274.549 419.365 275.212 419.202 275.959 419.202C276.687 419.202 277.331 419.361 277.891 419.678C278.451 419.995 278.88 420.434 279.179 420.994C279.487 421.545 279.641 422.17 279.641 422.87ZM278.325 422.604C278.325 422.119 278.217 421.703 278.003 421.358C277.788 421.003 277.494 420.737 277.121 420.56C276.757 420.373 276.351 420.28 275.903 420.28C275.259 420.28 274.708 420.485 274.251 420.896C273.803 421.307 273.546 421.876 273.481 422.604H278.325ZM282.596 420.574C282.82 420.135 283.137 419.795 283.548 419.552C283.968 419.309 284.477 419.188 285.074 419.188V420.504H284.738C283.31 420.504 282.596 421.279 282.596 422.828V427H281.322V419.328H282.596V420.574ZM289.891 427.126C289.172 427.126 288.519 426.963 287.931 426.636C287.352 426.309 286.895 425.847 286.559 425.25C286.232 424.643 286.069 423.943 286.069 423.15C286.069 422.366 286.237 421.675 286.573 421.078C286.918 420.471 287.385 420.009 287.973 419.692C288.561 419.365 289.219 419.202 289.947 419.202C290.675 419.202 291.333 419.365 291.921 419.692C292.509 420.009 292.971 420.467 293.307 421.064C293.652 421.661 293.825 422.357 293.825 423.15C293.825 423.943 293.647 424.643 293.293 425.25C292.947 425.847 292.476 426.309 291.879 426.636C291.281 426.963 290.619 427.126 289.891 427.126ZM289.891 426.006C290.348 426.006 290.777 425.899 291.179 425.684C291.58 425.469 291.902 425.147 292.145 424.718C292.397 424.289 292.523 423.766 292.523 423.15C292.523 422.534 292.401 422.011 292.159 421.582C291.916 421.153 291.599 420.835 291.207 420.63C290.815 420.415 290.39 420.308 289.933 420.308C289.466 420.308 289.037 420.415 288.645 420.63C288.262 420.835 287.954 421.153 287.721 421.582C287.487 422.011 287.371 422.534 287.371 423.15C287.371 423.775 287.483 424.303 287.707 424.732C287.94 425.161 288.248 425.483 288.631 425.698C289.013 425.903 289.433 426.006 289.891 426.006ZM298.756 423.136C298.756 422.352 298.915 421.666 299.232 421.078C299.55 420.481 299.984 420.019 300.534 419.692C301.094 419.365 301.72 419.202 302.41 419.202C303.008 419.202 303.563 419.342 304.076 419.622C304.59 419.893 304.982 420.252 305.252 420.7V416.64H306.54V427H305.252V425.558C305 426.015 304.627 426.393 304.132 426.692C303.638 426.981 303.059 427.126 302.396 427.126C301.715 427.126 301.094 426.958 300.534 426.622C299.984 426.286 299.55 425.815 299.232 425.208C298.915 424.601 298.756 423.911 298.756 423.136ZM305.252 423.15C305.252 422.571 305.136 422.067 304.902 421.638C304.669 421.209 304.352 420.882 303.95 420.658C303.558 420.425 303.124 420.308 302.648 420.308C302.172 420.308 301.738 420.42 301.346 420.644C300.954 420.868 300.642 421.195 300.408 421.624C300.175 422.053 300.058 422.557 300.058 423.136C300.058 423.724 300.175 424.237 300.408 424.676C300.642 425.105 300.954 425.437 301.346 425.67C301.738 425.894 302.172 426.006 302.648 426.006C303.124 426.006 303.558 425.894 303.95 425.67C304.352 425.437 304.669 425.105 304.902 424.676C305.136 424.237 305.252 423.729 305.252 423.15ZM315.693 422.87C315.693 423.113 315.679 423.369 315.651 423.64H309.519C309.566 424.396 309.823 424.989 310.289 425.418C310.765 425.838 311.339 426.048 312.011 426.048C312.562 426.048 313.019 425.922 313.383 425.67C313.757 425.409 314.018 425.063 314.167 424.634H315.539C315.334 425.371 314.923 425.973 314.307 426.44C313.691 426.897 312.926 427.126 312.011 427.126C311.283 427.126 310.63 426.963 310.051 426.636C309.482 426.309 309.034 425.847 308.707 425.25C308.381 424.643 308.217 423.943 308.217 423.15C308.217 422.357 308.376 421.661 308.693 421.064C309.011 420.467 309.454 420.009 310.023 419.692C310.602 419.365 311.265 419.202 312.011 419.202C312.739 419.202 313.383 419.361 313.943 419.678C314.503 419.995 314.933 420.434 315.231 420.994C315.539 421.545 315.693 422.17 315.693 422.87ZM314.377 422.604C314.377 422.119 314.27 421.703 314.055 421.358C313.841 421.003 313.547 420.737 313.173 420.56C312.809 420.373 312.403 420.28 311.955 420.28C311.311 420.28 310.761 420.485 310.303 420.896C309.855 421.307 309.599 421.876 309.533 422.604H314.377ZM79.0629 441.136C79.0629 440.352 79.2216 439.666 79.5389 439.078C79.8563 438.481 80.2903 438.019 80.8409 437.692C81.4009 437.365 82.0216 437.202 82.7029 437.202C83.3749 437.202 83.9583 437.347 84.4529 437.636C84.9476 437.925 85.3163 438.289 85.5589 438.728V437.328H86.8469V445H85.5589V443.572C85.3069 444.02 84.9289 444.393 84.4249 444.692C83.9303 444.981 83.3516 445.126 82.6889 445.126C82.0076 445.126 81.3916 444.958 80.8409 444.622C80.2903 444.286 79.8563 443.815 79.5389 443.208C79.2216 442.601 79.0629 441.911 79.0629 441.136ZM85.5589 441.15C85.5589 440.571 85.4423 440.067 85.2089 439.638C84.9756 439.209 84.6583 438.882 84.2569 438.658C83.8649 438.425 83.4309 438.308 82.9549 438.308C82.4789 438.308 82.0449 438.42 81.6529 438.644C81.2609 438.868 80.9483 439.195 80.7149 439.624C80.4816 440.053 80.3649 440.557 80.3649 441.136C80.3649 441.724 80.4816 442.237 80.7149 442.676C80.9483 443.105 81.2609 443.437 81.6529 443.67C82.0449 443.894 82.4789 444.006 82.9549 444.006C83.4309 444.006 83.8649 443.894 84.2569 443.67C84.6583 443.437 84.9756 443.105 85.2089 442.676C85.4423 442.237 85.5589 441.729 85.5589 441.15ZM92.7379 437.188C93.6712 437.188 94.4272 437.473 95.0059 438.042C95.5845 438.602 95.8739 439.414 95.8739 440.478V445H94.6139V440.66C94.6139 439.895 94.4225 439.311 94.0399 438.91C93.6572 438.499 93.1345 438.294 92.4719 438.294C91.7999 438.294 91.2632 438.504 90.8619 438.924C90.4699 439.344 90.2739 439.955 90.2739 440.758V445H88.9999V437.328H90.2739V438.42C90.5259 438.028 90.8665 437.725 91.2959 437.51C91.7345 437.295 92.2152 437.188 92.7379 437.188ZM98.613 436.082C98.3703 436.082 98.165 435.998 97.997 435.83C97.829 435.662 97.745 435.457 97.745 435.214C97.745 434.971 97.829 434.766 97.997 434.598C98.165 434.43 98.3703 434.346 98.613 434.346C98.8463 434.346 99.0423 434.43 99.201 434.598C99.369 434.766 99.453 434.971 99.453 435.214C99.453 435.457 99.369 435.662 99.201 435.83C99.0423 435.998 98.8463 436.082 98.613 436.082ZM99.229 437.328V445H97.955V437.328H99.229ZM110.626 437.188C111.224 437.188 111.756 437.314 112.222 437.566C112.689 437.809 113.058 438.177 113.328 438.672C113.599 439.167 113.734 439.769 113.734 440.478V445H112.474V440.66C112.474 439.895 112.283 439.311 111.9 438.91C111.527 438.499 111.018 438.294 110.374 438.294C109.712 438.294 109.184 438.509 108.792 438.938C108.4 439.358 108.204 439.969 108.204 440.772V445H106.944V440.66C106.944 439.895 106.753 439.311 106.37 438.91C105.997 438.499 105.488 438.294 104.844 438.294C104.182 438.294 103.654 438.509 103.262 438.938C102.87 439.358 102.674 439.969 102.674 440.772V445H101.4V437.328H102.674V438.434C102.926 438.033 103.262 437.725 103.682 437.51C104.112 437.295 104.583 437.188 105.096 437.188C105.74 437.188 106.31 437.333 106.804 437.622C107.299 437.911 107.668 438.336 107.91 438.896C108.125 438.355 108.48 437.935 108.974 437.636C109.469 437.337 110.02 437.188 110.626 437.188ZM115.348 441.136C115.348 440.352 115.507 439.666 115.824 439.078C116.141 438.481 116.575 438.019 117.126 437.692C117.686 437.365 118.307 437.202 118.988 437.202C119.66 437.202 120.243 437.347 120.738 437.636C121.233 437.925 121.601 438.289 121.844 438.728V437.328H123.132V445H121.844V443.572C121.592 444.02 121.214 444.393 120.71 444.692C120.215 444.981 119.637 445.126 118.974 445.126C118.293 445.126 117.677 444.958 117.126 444.622C116.575 444.286 116.141 443.815 115.824 443.208C115.507 442.601 115.348 441.911 115.348 441.136ZM121.844 441.15C121.844 440.571 121.727 440.067 121.494 439.638C121.261 439.209 120.943 438.882 120.542 438.658C120.15 438.425 119.716 438.308 119.24 438.308C118.764 438.308 118.33 438.42 117.938 438.644C117.546 438.868 117.233 439.195 117 439.624C116.767 440.053 116.65 440.557 116.65 441.136C116.65 441.724 116.767 442.237 117 442.676C117.233 443.105 117.546 443.437 117.938 443.67C118.33 443.894 118.764 444.006 119.24 444.006C119.716 444.006 120.15 443.894 120.542 443.67C120.943 443.437 121.261 443.105 121.494 442.676C121.727 442.237 121.844 441.729 121.844 441.15ZM125.943 436.082C125.7 436.082 125.495 435.998 125.327 435.83C125.159 435.662 125.075 435.457 125.075 435.214C125.075 434.971 125.159 434.766 125.327 434.598C125.495 434.43 125.7 434.346 125.943 434.346C126.176 434.346 126.372 434.43 126.531 434.598C126.699 434.766 126.783 434.971 126.783 435.214C126.783 435.457 126.699 435.662 126.531 435.83C126.372 435.998 126.176 436.082 125.943 436.082ZM126.559 437.328V445H125.285V437.328H126.559ZM131.446 445.126C130.858 445.126 130.331 445.028 129.864 444.832C129.398 444.627 129.029 444.347 128.758 443.992C128.488 443.628 128.338 443.213 128.31 442.746H129.626C129.664 443.129 129.841 443.441 130.158 443.684C130.485 443.927 130.91 444.048 131.432 444.048C131.918 444.048 132.3 443.941 132.58 443.726C132.86 443.511 133 443.241 133 442.914C133 442.578 132.851 442.331 132.552 442.172C132.254 442.004 131.792 441.841 131.166 441.682C130.597 441.533 130.13 441.383 129.766 441.234C129.412 441.075 129.104 440.847 128.842 440.548C128.59 440.24 128.464 439.839 128.464 439.344C128.464 438.952 128.581 438.593 128.814 438.266C129.048 437.939 129.379 437.683 129.808 437.496C130.238 437.3 130.728 437.202 131.278 437.202C132.128 437.202 132.814 437.417 133.336 437.846C133.859 438.275 134.139 438.863 134.176 439.61H132.902C132.874 439.209 132.711 438.887 132.412 438.644C132.123 438.401 131.731 438.28 131.236 438.28C130.779 438.28 130.415 438.378 130.144 438.574C129.874 438.77 129.738 439.027 129.738 439.344C129.738 439.596 129.818 439.806 129.976 439.974C130.144 440.133 130.35 440.263 130.592 440.366C130.844 440.459 131.19 440.567 131.628 440.688C132.179 440.837 132.627 440.987 132.972 441.136C133.318 441.276 133.612 441.491 133.854 441.78C134.106 442.069 134.237 442.447 134.246 442.914C134.246 443.334 134.13 443.712 133.896 444.048C133.663 444.384 133.332 444.65 132.902 444.846C132.482 445.033 131.997 445.126 131.446 445.126ZM139.301 441.136C139.301 440.352 139.46 439.666 139.777 439.078C140.095 438.481 140.529 438.019 141.079 437.692C141.639 437.365 142.26 437.202 142.941 437.202C143.613 437.202 144.197 437.347 144.691 437.636C145.186 437.925 145.555 438.289 145.797 438.728V437.328H147.085V445H145.797V443.572C145.545 444.02 145.167 444.393 144.663 444.692C144.169 444.981 143.59 445.126 142.927 445.126C142.246 445.126 141.63 444.958 141.079 444.622C140.529 444.286 140.095 443.815 139.777 443.208C139.46 442.601 139.301 441.911 139.301 441.136ZM145.797 441.15C145.797 440.571 145.681 440.067 145.447 439.638C145.214 439.209 144.897 438.882 144.495 438.658C144.103 438.425 143.669 438.308 143.193 438.308C142.717 438.308 142.283 438.42 141.891 438.644C141.499 438.868 141.187 439.195 140.953 439.624C140.72 440.053 140.603 440.557 140.603 441.136C140.603 441.724 140.72 442.237 140.953 442.676C141.187 443.105 141.499 443.437 141.891 443.67C142.283 443.894 142.717 444.006 143.193 444.006C143.669 444.006 144.103 443.894 144.495 443.67C144.897 443.437 145.214 443.105 145.447 442.676C145.681 442.237 145.797 441.729 145.797 441.15ZM150.512 438.756C150.773 438.299 151.156 437.925 151.66 437.636C152.164 437.347 152.738 437.202 153.382 437.202C154.073 437.202 154.693 437.365 155.244 437.692C155.795 438.019 156.229 438.481 156.546 439.078C156.863 439.666 157.022 440.352 157.022 441.136C157.022 441.911 156.863 442.601 156.546 443.208C156.229 443.815 155.79 444.286 155.23 444.622C154.679 444.958 154.063 445.126 153.382 445.126C152.719 445.126 152.136 444.981 151.632 444.692C151.137 444.403 150.764 444.034 150.512 443.586V445H149.238V434.64H150.512V438.756ZM155.72 441.136C155.72 440.557 155.603 440.053 155.37 439.624C155.137 439.195 154.819 438.868 154.418 438.644C154.026 438.42 153.592 438.308 153.116 438.308C152.649 438.308 152.215 438.425 151.814 438.658C151.422 438.882 151.105 439.213 150.862 439.652C150.629 440.081 150.512 440.581 150.512 441.15C150.512 441.729 150.629 442.237 150.862 442.676C151.105 443.105 151.422 443.437 151.814 443.67C152.215 443.894 152.649 444.006 153.116 444.006C153.592 444.006 154.026 443.894 154.418 443.67C154.819 443.437 155.137 443.105 155.37 442.676C155.603 442.237 155.72 441.724 155.72 441.136ZM158.223 441.136C158.223 440.352 158.382 439.666 158.699 439.078C159.016 438.481 159.45 438.019 160.001 437.692C160.561 437.365 161.182 437.202 161.863 437.202C162.535 437.202 163.118 437.347 163.613 437.636C164.108 437.925 164.476 438.289 164.719 438.728V437.328H166.007V445H164.719V443.572C164.467 444.02 164.089 444.393 163.585 444.692C163.09 444.981 162.512 445.126 161.849 445.126C161.168 445.126 160.552 444.958 160.001 444.622C159.45 444.286 159.016 443.815 158.699 443.208C158.382 442.601 158.223 441.911 158.223 441.136ZM164.719 441.15C164.719 440.571 164.602 440.067 164.369 439.638C164.136 439.209 163.818 438.882 163.417 438.658C163.025 438.425 162.591 438.308 162.115 438.308C161.639 438.308 161.205 438.42 160.813 438.644C160.421 438.868 160.108 439.195 159.875 439.624C159.642 440.053 159.525 440.557 159.525 441.136C159.525 441.724 159.642 442.237 159.875 442.676C160.108 443.105 160.421 443.437 160.813 443.67C161.205 443.894 161.639 444.006 162.115 444.006C162.591 444.006 163.025 443.894 163.417 443.67C163.818 443.437 164.136 443.105 164.369 442.676C164.602 442.237 164.719 441.729 164.719 441.15ZM171.898 437.188C172.831 437.188 173.587 437.473 174.166 438.042C174.745 438.602 175.034 439.414 175.034 440.478V445H173.774V440.66C173.774 439.895 173.583 439.311 173.2 438.91C172.817 438.499 172.295 438.294 171.632 438.294C170.96 438.294 170.423 438.504 170.022 438.924C169.63 439.344 169.434 439.955 169.434 440.758V445H168.16V437.328H169.434V438.42C169.686 438.028 170.027 437.725 170.456 437.51C170.895 437.295 171.375 437.188 171.898 437.188ZM176.639 441.136C176.639 440.352 176.798 439.666 177.115 439.078C177.432 438.481 177.866 438.019 178.417 437.692C178.977 437.365 179.602 437.202 180.293 437.202C180.89 437.202 181.446 437.342 181.959 437.622C182.472 437.893 182.864 438.252 183.135 438.7V434.64H184.423V445H183.135V443.558C182.883 444.015 182.51 444.393 182.015 444.692C181.52 444.981 180.942 445.126 180.279 445.126C179.598 445.126 178.977 444.958 178.417 444.622C177.866 444.286 177.432 443.815 177.115 443.208C176.798 442.601 176.639 441.911 176.639 441.136ZM183.135 441.15C183.135 440.571 183.018 440.067 182.785 439.638C182.552 439.209 182.234 438.882 181.833 438.658C181.441 438.425 181.007 438.308 180.531 438.308C180.055 438.308 179.621 438.42 179.229 438.644C178.837 438.868 178.524 439.195 178.291 439.624C178.058 440.053 177.941 440.557 177.941 441.136C177.941 441.724 178.058 442.237 178.291 442.676C178.524 443.105 178.837 443.437 179.229 443.67C179.621 443.894 180.055 444.006 180.531 444.006C181.007 444.006 181.441 443.894 181.833 443.67C182.234 443.437 182.552 443.105 182.785 442.676C183.018 442.237 183.135 441.729 183.135 441.15ZM189.922 445.126C189.203 445.126 188.55 444.963 187.962 444.636C187.383 444.309 186.926 443.847 186.59 443.25C186.263 442.643 186.1 441.943 186.1 441.15C186.1 440.366 186.268 439.675 186.604 439.078C186.949 438.471 187.416 438.009 188.004 437.692C188.592 437.365 189.25 437.202 189.978 437.202C190.706 437.202 191.364 437.365 191.952 437.692C192.54 438.009 193.002 438.467 193.338 439.064C193.683 439.661 193.856 440.357 193.856 441.15C193.856 441.943 193.679 442.643 193.324 443.25C192.979 443.847 192.507 444.309 191.91 444.636C191.313 444.963 190.65 445.126 189.922 445.126ZM189.922 444.006C190.379 444.006 190.809 443.899 191.21 443.684C191.611 443.469 191.933 443.147 192.176 442.718C192.428 442.289 192.554 441.766 192.554 441.15C192.554 440.534 192.433 440.011 192.19 439.582C191.947 439.153 191.63 438.835 191.238 438.63C190.846 438.415 190.421 438.308 189.964 438.308C189.497 438.308 189.068 438.415 188.676 438.63C188.293 438.835 187.985 439.153 187.752 439.582C187.519 440.011 187.402 440.534 187.402 441.15C187.402 441.775 187.514 442.303 187.738 442.732C187.971 443.161 188.279 443.483 188.662 443.698C189.045 443.903 189.465 444.006 189.922 444.006ZM199.269 437.188C200.202 437.188 200.958 437.473 201.537 438.042C202.116 438.602 202.405 439.414 202.405 440.478V445H201.145V440.66C201.145 439.895 200.954 439.311 200.571 438.91C200.188 438.499 199.666 438.294 199.003 438.294C198.331 438.294 197.794 438.504 197.393 438.924C197.001 439.344 196.805 439.955 196.805 440.758V445H195.531V437.328H196.805V438.42C197.057 438.028 197.398 437.725 197.827 437.51C198.266 437.295 198.746 437.188 199.269 437.188ZM204.01 441.136C204.01 440.352 204.169 439.666 204.486 439.078C204.804 438.481 205.238 438.019 205.788 437.692C206.348 437.365 206.969 437.202 207.65 437.202C208.322 437.202 208.906 437.347 209.4 437.636C209.895 437.925 210.264 438.289 210.506 438.728V437.328H211.794V445H210.506V443.572C210.254 444.02 209.876 444.393 209.372 444.692C208.878 444.981 208.299 445.126 207.636 445.126C206.955 445.126 206.339 444.958 205.788 444.622C205.238 444.286 204.804 443.815 204.486 443.208C204.169 442.601 204.01 441.911 204.01 441.136ZM210.506 441.15C210.506 440.571 210.39 440.067 210.156 439.638C209.923 439.209 209.606 438.882 209.204 438.658C208.812 438.425 208.378 438.308 207.902 438.308C207.426 438.308 206.992 438.42 206.6 438.644C206.208 438.868 205.896 439.195 205.662 439.624C205.429 440.053 205.312 440.557 205.312 441.136C205.312 441.724 205.429 442.237 205.662 442.676C205.896 443.105 206.208 443.437 206.6 443.67C206.992 443.894 207.426 444.006 207.902 444.006C208.378 444.006 208.812 443.894 209.204 443.67C209.606 443.437 209.923 443.105 210.156 442.676C210.39 442.237 210.506 441.729 210.506 441.15ZM213.471 441.136C213.471 440.352 213.63 439.666 213.947 439.078C214.264 438.481 214.698 438.019 215.249 437.692C215.809 437.365 216.434 437.202 217.125 437.202C217.722 437.202 218.278 437.342 218.791 437.622C219.304 437.893 219.696 438.252 219.967 438.7V434.64H221.255V445H219.967V443.558C219.715 444.015 219.342 444.393 218.847 444.692C218.352 444.981 217.774 445.126 217.111 445.126C216.43 445.126 215.809 444.958 215.249 444.622C214.698 444.286 214.264 443.815 213.947 443.208C213.63 442.601 213.471 441.911 213.471 441.136ZM219.967 441.15C219.967 440.571 219.85 440.067 219.617 439.638C219.384 439.209 219.066 438.882 218.665 438.658C218.273 438.425 217.839 438.308 217.363 438.308C216.887 438.308 216.453 438.42 216.061 438.644C215.669 438.868 215.356 439.195 215.123 439.624C214.89 440.053 214.773 440.557 214.773 441.136C214.773 441.724 214.89 442.237 215.123 442.676C215.356 443.105 215.669 443.437 216.061 443.67C216.453 443.894 216.887 444.006 217.363 444.006C217.839 444.006 218.273 443.894 218.665 443.67C219.066 443.437 219.384 443.105 219.617 442.676C219.85 442.237 219.967 441.729 219.967 441.15ZM226.754 445.126C226.035 445.126 225.382 444.963 224.794 444.636C224.215 444.309 223.758 443.847 223.422 443.25C223.095 442.643 222.932 441.943 222.932 441.15C222.932 440.366 223.1 439.675 223.436 439.078C223.781 438.471 224.248 438.009 224.836 437.692C225.424 437.365 226.082 437.202 226.81 437.202C227.538 437.202 228.196 437.365 228.784 437.692C229.372 438.009 229.834 438.467 230.17 439.064C230.515 439.661 230.688 440.357 230.688 441.15C230.688 441.943 230.511 442.643 230.156 443.25C229.811 443.847 229.339 444.309 228.742 444.636C228.145 444.963 227.482 445.126 226.754 445.126ZM226.754 444.006C227.211 444.006 227.641 443.899 228.042 443.684C228.443 443.469 228.765 443.147 229.008 442.718C229.26 442.289 229.386 441.766 229.386 441.15C229.386 440.534 229.265 440.011 229.022 439.582C228.779 439.153 228.462 438.835 228.07 438.63C227.678 438.415 227.253 438.308 226.796 438.308C226.329 438.308 225.9 438.415 225.508 438.63C225.125 438.835 224.817 439.153 224.584 439.582C224.351 440.011 224.234 440.534 224.234 441.15C224.234 441.775 224.346 442.303 224.57 442.732C224.803 443.161 225.111 443.483 225.494 443.698C225.877 443.903 226.297 444.006 226.754 444.006ZM235.079 445.126C234.491 445.126 233.964 445.028 233.497 444.832C233.03 444.627 232.662 444.347 232.391 443.992C232.12 443.628 231.971 443.213 231.943 442.746H233.259C233.296 443.129 233.474 443.441 233.791 443.684C234.118 443.927 234.542 444.048 235.065 444.048C235.55 444.048 235.933 443.941 236.213 443.726C236.493 443.511 236.633 443.241 236.633 442.914C236.633 442.578 236.484 442.331 236.185 442.172C235.886 442.004 235.424 441.841 234.799 441.682C234.23 441.533 233.763 441.383 233.399 441.234C233.044 441.075 232.736 440.847 232.475 440.548C232.223 440.24 232.097 439.839 232.097 439.344C232.097 438.952 232.214 438.593 232.447 438.266C232.68 437.939 233.012 437.683 233.441 437.496C233.87 437.3 234.36 437.202 234.911 437.202C235.76 437.202 236.446 437.417 236.969 437.846C237.492 438.275 237.772 438.863 237.809 439.61H236.535C236.507 439.209 236.344 438.887 236.045 438.644C235.756 438.401 235.364 438.28 234.869 438.28C234.412 438.28 234.048 438.378 233.777 438.574C233.506 438.77 233.371 439.027 233.371 439.344C233.371 439.596 233.45 439.806 233.609 439.974C233.777 440.133 233.982 440.263 234.225 440.366C234.477 440.459 234.822 440.567 235.261 440.688C235.812 440.837 236.26 440.987 236.605 441.136C236.95 441.276 237.244 441.491 237.487 441.78C237.739 442.069 237.87 442.447 237.879 442.914C237.879 443.334 237.762 443.712 237.529 444.048C237.296 444.384 236.964 444.65 236.535 444.846C236.115 445.033 235.63 445.126 235.079 445.126ZM240.084 445.084C239.841 445.084 239.636 445 239.468 444.832C239.3 444.664 239.216 444.459 239.216 444.216C239.216 443.973 239.3 443.768 239.468 443.6C239.636 443.432 239.841 443.348 240.084 443.348C240.317 443.348 240.513 443.432 240.672 443.6C240.84 443.768 240.924 443.973 240.924 444.216C240.924 444.459 240.84 444.664 240.672 444.832C240.513 445 240.317 445.084 240.084 445.084Z" fill="#64748B"/>
<path d="M25.7825 34.47V37.62H30.0125V39.618H25.7825V42.948H30.5525V45H23.2625V32.418H30.5525V34.47H25.7825ZM45.2266 34.884C46.4506 34.884 47.4346 35.262 48.1786 36.018C48.9346 36.762 49.3126 37.806 49.3126 39.15V45H46.7926V39.492C46.7926 38.712 46.5946 38.118 46.1986 37.71C45.8026 37.29 45.2626 37.08 44.5786 37.08C43.8946 37.08 43.3486 37.29 42.9406 37.71C42.5446 38.118 42.3466 38.712 42.3466 39.492V45H39.8266V39.492C39.8266 38.712 39.6286 38.118 39.2326 37.71C38.8366 37.29 38.2966 37.08 37.6126 37.08C36.9166 37.08 36.3646 37.29 35.9566 37.71C35.5606 38.118 35.3626 38.712 35.3626 39.492V45H32.8426V35.028H35.3626V36.234C35.6866 35.814 36.1006 35.484 36.6046 35.244C37.1206 35.004 37.6846 34.884 38.2966 34.884C39.0766 34.884 39.7726 35.052 40.3846 35.388C40.9966 35.712 41.4706 36.18 41.8066 36.792C42.1306 36.216 42.5986 35.754 43.2106 35.406C43.8346 35.058 44.5066 34.884 45.2266 34.884ZM58.513 36.486C58.837 36.006 59.281 35.616 59.845 35.316C60.421 35.016 61.075 34.866 61.807 34.866C62.659 34.866 63.427 35.076 64.111 35.496C64.807 35.916 65.353 36.516 65.749 37.296C66.157 38.064 66.361 38.958 66.361 39.978C66.361 40.998 66.157 41.904 65.749 42.696C65.353 43.476 64.807 44.082 64.111 44.514C63.427 44.946 62.659 45.162 61.807 45.162C61.063 45.162 60.409 45.018 59.845 44.73C59.293 44.43 58.849 44.046 58.513 43.578V45H55.993V31.68H58.513V36.486ZM63.787 39.978C63.787 39.378 63.661 38.862 63.409 38.43C63.169 37.986 62.845 37.65 62.437 37.422C62.041 37.194 61.609 37.08 61.141 37.08C60.685 37.08 60.253 37.2 59.845 37.44C59.449 37.668 59.125 38.004 58.873 38.448C58.633 38.892 58.513 39.414 58.513 40.014C58.513 40.614 58.633 41.136 58.873 41.58C59.125 42.024 59.449 42.366 59.845 42.606C60.253 42.834 60.685 42.948 61.141 42.948C61.609 42.948 62.041 42.828 62.437 42.588C62.845 42.348 63.169 42.006 63.409 41.562C63.661 41.118 63.787 40.59 63.787 39.978ZM77.6062 35.028V45H75.0682V43.74C74.7442 44.172 74.3182 44.514 73.7902 44.766C73.2742 45.006 72.7102 45.126 72.0982 45.126C71.3182 45.126 70.6282 44.964 70.0282 44.64C69.4282 44.304 68.9542 43.818 68.6062 43.182C68.2702 42.534 68.1022 41.766 68.1022 40.878V35.028H70.6222V40.518C70.6222 41.31 70.8202 41.922 71.2162 42.354C71.6122 42.774 72.1522 42.984 72.8362 42.984C73.5322 42.984 74.0782 42.774 74.4742 42.354C74.8702 41.922 75.0682 41.31 75.0682 40.518V35.028H77.6062ZM83.9086 45.162C83.0926 45.162 82.3606 45.018 81.7126 44.73C81.0646 44.43 80.5486 44.028 80.1646 43.524C79.7926 43.02 79.5886 42.462 79.5526 41.85H82.0906C82.1386 42.234 82.3246 42.552 82.6486 42.804C82.9846 43.056 83.3986 43.182 83.8906 43.182C84.3706 43.182 84.7426 43.086 85.0066 42.894C85.2826 42.702 85.4206 42.456 85.4206 42.156C85.4206 41.832 85.2526 41.592 84.9166 41.436C84.5926 41.268 84.0706 41.088 83.3506 40.896C82.6066 40.716 81.9946 40.53 81.5146 40.338C81.0466 40.146 80.6386 39.852 80.2906 39.456C79.9546 39.06 79.7866 38.526 79.7866 37.854C79.7866 37.302 79.9426 36.798 80.2546 36.342C80.5786 35.886 81.0346 35.526 81.6226 35.262C82.2226 34.998 82.9246 34.866 83.7286 34.866C84.9166 34.866 85.8646 35.166 86.5726 35.766C87.2806 36.354 87.6706 37.152 87.7426 38.16H85.3306C85.2946 37.764 85.1266 37.452 84.8266 37.224C84.5386 36.984 84.1486 36.864 83.6566 36.864C83.2006 36.864 82.8466 36.948 82.5946 37.116C82.3546 37.284 82.2346 37.518 82.2346 37.818C82.2346 38.154 82.4026 38.412 82.7386 38.592C83.0746 38.76 83.5966 38.934 84.3046 39.114C85.0246 39.294 85.6186 39.48 86.0866 39.672C86.5546 39.864 86.9566 40.164 87.2926 40.572C87.6406 40.968 87.8206 41.496 87.8326 42.156C87.8326 42.732 87.6706 43.248 87.3466 43.704C87.0346 44.16 86.5786 44.52 85.9786 44.784C85.3906 45.036 84.7006 45.162 83.9086 45.162ZM89.2532 40.014C89.2532 38.982 89.4632 38.082 89.8832 37.314C90.3032 36.534 90.8852 35.934 91.6292 35.514C92.3732 35.082 93.2252 34.866 94.1852 34.866C95.4212 34.866 96.4412 35.178 97.2452 35.802C98.0612 36.414 98.6072 37.278 98.8832 38.394H96.1652C96.0212 37.962 95.7752 37.626 95.4272 37.386C95.0912 37.134 94.6712 37.008 94.1672 37.008C93.4472 37.008 92.8772 37.272 92.4572 37.8C92.0372 38.316 91.8272 39.054 91.8272 40.014C91.8272 40.962 92.0372 41.7 92.4572 42.228C92.8772 42.744 93.4472 43.002 94.1672 43.002C95.1872 43.002 95.8532 42.546 96.1652 41.634H98.8832C98.6072 42.714 98.0612 43.572 97.2452 44.208C96.4292 44.844 95.4092 45.162 94.1852 45.162C93.2252 45.162 92.3732 44.952 91.6292 44.532C90.8852 44.1 90.3032 43.5 89.8832 42.732C89.4632 41.952 89.2532 41.046 89.2532 40.014ZM100.081 39.978C100.081 38.97 100.279 38.076 100.675 37.296C101.083 36.516 101.629 35.916 102.313 35.496C103.009 35.076 103.783 34.866 104.635 34.866C105.379 34.866 106.027 35.016 106.579 35.316C107.143 35.616 107.593 35.994 107.929 36.45V35.028H110.467V45H107.929V43.542C107.605 44.01 107.155 44.4 106.579 44.712C106.015 45.012 105.361 45.162 104.617 45.162C103.777 45.162 103.009 44.946 102.313 44.514C101.629 44.082 101.083 43.476 100.675 42.696C100.279 41.904 100.081 40.998 100.081 39.978ZM107.929 40.014C107.929 39.402 107.809 38.88 107.569 38.448C107.329 38.004 107.005 37.668 106.597 37.44C106.189 37.2 105.751 37.08 105.283 37.08C104.815 37.08 104.383 37.194 103.987 37.422C103.591 37.65 103.267 37.986 103.015 38.43C102.775 38.862 102.655 39.378 102.655 39.978C102.655 40.578 102.775 41.106 103.015 41.562C103.267 42.006 103.591 42.348 103.987 42.588C104.395 42.828 104.827 42.948 105.283 42.948C105.751 42.948 106.189 42.834 106.597 42.606C107.005 42.366 107.329 42.03 107.569 41.598C107.809 41.154 107.929 40.626 107.929 40.014ZM116.57 39.978C116.57 38.97 116.768 38.076 117.164 37.296C117.572 36.516 118.124 35.916 118.82 35.496C119.516 35.076 120.29 34.866 121.142 34.866C121.79 34.866 122.408 35.01 122.996 35.298C123.584 35.574 124.052 35.946 124.4 36.414V31.68H126.956V45H124.4V43.524C124.088 44.016 123.65 44.412 123.086 44.712C122.522 45.012 121.868 45.162 121.124 45.162C120.284 45.162 119.516 44.946 118.82 44.514C118.124 44.082 117.572 43.476 117.164 42.696C116.768 41.904 116.57 40.998 116.57 39.978ZM124.418 40.014C124.418 39.402 124.298 38.88 124.058 38.448C123.818 38.004 123.494 37.668 123.086 37.44C122.678 37.2 122.24 37.08 121.772 37.08C121.304 37.08 120.872 37.194 120.476 37.422C120.08 37.65 119.756 37.986 119.504 38.43C119.264 38.862 119.144 39.378 119.144 39.978C119.144 40.578 119.264 41.106 119.504 41.562C119.756 42.006 120.08 42.348 120.476 42.588C120.884 42.828 121.316 42.948 121.772 42.948C122.24 42.948 122.678 42.834 123.086 42.606C123.494 42.366 123.818 42.03 124.058 41.598C124.298 41.154 124.418 40.626 124.418 40.014ZM138.687 39.798C138.687 40.158 138.663 40.482 138.615 40.77H131.325C131.385 41.49 131.637 42.054 132.081 42.462C132.525 42.87 133.071 43.074 133.719 43.074C134.655 43.074 135.321 42.672 135.717 41.868H138.435C138.147 42.828 137.595 43.62 136.779 44.244C135.963 44.856 134.961 45.162 133.773 45.162C132.813 45.162 131.949 44.952 131.181 44.532C130.425 44.1 129.831 43.494 129.399 42.714C128.979 41.934 128.769 41.034 128.769 40.014C128.769 38.982 128.979 38.076 129.399 37.296C129.819 36.516 130.407 35.916 131.163 35.496C131.919 35.076 132.789 34.866 133.773 34.866C134.721 34.866 135.567 35.07 136.311 35.478C137.067 35.886 137.649 36.468 138.057 37.224C138.477 37.968 138.687 38.826 138.687 39.798ZM136.077 39.078C136.065 38.43 135.831 37.914 135.375 37.53C134.919 37.134 134.361 36.936 133.701 36.936C133.077 36.936 132.549 37.128 132.117 37.512C131.697 37.884 131.439 38.406 131.343 39.078H136.077ZM154.229 35.028V45H151.691V43.74C151.367 44.172 150.941 44.514 150.413 44.766C149.897 45.006 149.333 45.126 148.721 45.126C147.941 45.126 147.251 44.964 146.651 44.64C146.051 44.304 145.577 43.818 145.229 43.182C144.893 42.534 144.725 41.766 144.725 40.878V35.028H147.245V40.518C147.245 41.31 147.443 41.922 147.839 42.354C148.235 42.774 148.775 42.984 149.459 42.984C150.155 42.984 150.701 42.774 151.097 42.354C151.493 41.922 151.691 41.31 151.691 40.518V35.028H154.229ZM169.1 34.884C170.324 34.884 171.308 35.262 172.052 36.018C172.808 36.762 173.186 37.806 173.186 39.15V45H170.666V39.492C170.666 38.712 170.468 38.118 170.072 37.71C169.676 37.29 169.136 37.08 168.452 37.08C167.768 37.08 167.222 37.29 166.814 37.71C166.418 38.118 166.22 38.712 166.22 39.492V45H163.7V39.492C163.7 38.712 163.502 38.118 163.106 37.71C162.71 37.29 162.17 37.08 161.486 37.08C160.79 37.08 160.238 37.29 159.83 37.71C159.434 38.118 159.236 38.712 159.236 39.492V45H156.716V35.028H159.236V36.234C159.56 35.814 159.974 35.484 160.478 35.244C160.994 35.004 161.558 34.884 162.17 34.884C162.95 34.884 163.646 35.052 164.258 35.388C164.87 35.712 165.344 36.18 165.68 36.792C166.004 36.216 166.472 35.754 167.084 35.406C167.708 35.058 168.38 34.884 169.1 34.884ZM185.392 34.884C186.58 34.884 187.54 35.262 188.272 36.018C189.004 36.762 189.37 37.806 189.37 39.15V45H186.85V39.492C186.85 38.7 186.652 38.094 186.256 37.674C185.86 37.242 185.32 37.026 184.636 37.026C183.94 37.026 183.388 37.242 182.98 37.674C182.584 38.094 182.386 38.7 182.386 39.492V45H179.866V35.028H182.386V36.27C182.722 35.838 183.148 35.502 183.664 35.262C184.192 35.01 184.768 34.884 185.392 34.884ZM196.194 45.162C195.234 45.162 194.37 44.952 193.602 44.532C192.834 44.1 192.228 43.494 191.784 42.714C191.352 41.934 191.136 41.034 191.136 40.014C191.136 38.994 191.358 38.094 191.802 37.314C192.258 36.534 192.876 35.934 193.656 35.514C194.436 35.082 195.306 34.866 196.266 34.866C197.226 34.866 198.096 35.082 198.876 35.514C199.656 35.934 200.268 36.534 200.712 37.314C201.168 38.094 201.396 38.994 201.396 40.014C201.396 41.034 201.162 41.934 200.694 42.714C200.238 43.494 199.614 44.1 198.822 44.532C198.042 44.952 197.166 45.162 196.194 45.162ZM196.194 42.966C196.65 42.966 197.076 42.858 197.472 42.642C197.88 42.414 198.204 42.078 198.444 41.634C198.684 41.19 198.804 40.65 198.804 40.014C198.804 39.066 198.552 38.34 198.048 37.836C197.556 37.32 196.95 37.062 196.23 37.062C195.51 37.062 194.904 37.32 194.412 37.836C193.932 38.34 193.692 39.066 193.692 40.014C193.692 40.962 193.926 41.694 194.394 42.21C194.874 42.714 195.474 42.966 196.194 42.966ZM207.403 42.678L209.923 35.028H212.605L208.915 45H205.855L202.183 35.028H204.883L207.403 42.678ZM218.448 45.162C217.488 45.162 216.624 44.952 215.856 44.532C215.088 44.1 214.482 43.494 214.038 42.714C213.606 41.934 213.39 41.034 213.39 40.014C213.39 38.994 213.612 38.094 214.056 37.314C214.512 36.534 215.13 35.934 215.91 35.514C216.69 35.082 217.56 34.866 218.52 34.866C219.48 34.866 220.35 35.082 221.13 35.514C221.91 35.934 222.522 36.534 222.966 37.314C223.422 38.094 223.65 38.994 223.65 40.014C223.65 41.034 223.416 41.934 222.948 42.714C222.492 43.494 221.868 44.1 221.076 44.532C220.296 44.952 219.42 45.162 218.448 45.162ZM218.448 42.966C218.904 42.966 219.33 42.858 219.726 42.642C220.134 42.414 220.458 42.078 220.698 41.634C220.938 41.19 221.058 40.65 221.058 40.014C221.058 39.066 220.806 38.34 220.302 37.836C219.81 37.32 219.204 37.062 218.484 37.062C217.764 37.062 217.158 37.32 216.666 37.836C216.186 38.34 215.946 39.066 215.946 40.014C215.946 40.962 216.18 41.694 216.648 42.21C217.128 42.714 217.728 42.966 218.448 42.966ZM229.14 39.978C229.14 38.97 229.338 38.076 229.734 37.296C230.142 36.516 230.688 35.916 231.372 35.496C232.068 35.076 232.842 34.866 233.694 34.866C234.438 34.866 235.086 35.016 235.638 35.316C236.202 35.616 236.652 35.994 236.988 36.45V35.028H239.526V45H236.988V43.542C236.664 44.01 236.214 44.4 235.638 44.712C235.074 45.012 234.42 45.162 233.676 45.162C232.836 45.162 232.068 44.946 231.372 44.514C230.688 44.082 230.142 43.476 229.734 42.696C229.338 41.904 229.14 40.998 229.14 39.978ZM236.988 40.014C236.988 39.402 236.868 38.88 236.628 38.448C236.388 38.004 236.064 37.668 235.656 37.44C235.248 37.2 234.81 37.08 234.342 37.08C233.874 37.08 233.442 37.194 233.046 37.422C232.65 37.65 232.326 37.986 232.074 38.43C231.834 38.862 231.714 39.378 231.714 39.978C231.714 40.578 231.834 41.106 232.074 41.562C232.326 42.006 232.65 42.348 233.046 42.588C233.454 42.828 233.886 42.948 234.342 42.948C234.81 42.948 235.248 42.834 235.656 42.606C236.064 42.366 236.388 42.03 236.628 41.598C236.868 41.154 236.988 40.626 236.988 40.014ZM254.371 34.884C255.595 34.884 256.579 35.262 257.323 36.018C258.079 36.762 258.457 37.806 258.457 39.15V45H255.937V39.492C255.937 38.712 255.739 38.118 255.343 37.71C254.947 37.29 254.407 37.08 253.723 37.08C253.039 37.08 252.493 37.29 252.085 37.71C251.689 38.118 251.491 38.712 251.491 39.492V45H248.971V39.492C248.971 38.712 248.773 38.118 248.377 37.71C247.981 37.29 247.441 37.08 246.757 37.08C246.061 37.08 245.509 37.29 245.101 37.71C244.705 38.118 244.507 38.712 244.507 39.492V45H241.987V35.028H244.507V36.234C244.831 35.814 245.245 35.484 245.749 35.244C246.265 35.004 246.829 34.884 247.441 34.884C248.221 34.884 248.917 35.052 249.529 35.388C250.141 35.712 250.615 36.18 250.951 36.792C251.275 36.216 251.743 35.754 252.355 35.406C252.979 35.058 253.651 34.884 254.371 34.884ZM262.126 33.84C261.682 33.84 261.31 33.702 261.01 33.426C260.722 33.138 260.578 32.784 260.578 32.364C260.578 31.944 260.722 31.596 261.01 31.32C261.31 31.032 261.682 30.888 262.126 30.888C262.57 30.888 262.936 31.032 263.224 31.32C263.524 31.596 263.674 31.944 263.674 32.364C263.674 32.784 263.524 33.138 263.224 33.426C262.936 33.702 262.57 33.84 262.126 33.84ZM263.368 35.028V45H260.848V35.028H263.368ZM269.764 34.866C270.508 34.866 271.162 35.016 271.726 35.316C272.29 35.604 272.734 35.982 273.058 36.45V35.028H275.596V45.072C275.596 45.996 275.41 46.818 275.038 47.538C274.666 48.27 274.108 48.846 273.364 49.266C272.62 49.698 271.72 49.914 270.664 49.914C269.248 49.914 268.084 49.584 267.172 48.924C266.272 48.264 265.762 47.364 265.642 46.224H268.144C268.276 46.68 268.558 47.04 268.99 47.304C269.434 47.58 269.968 47.718 270.592 47.718C271.324 47.718 271.918 47.496 272.374 47.052C272.83 46.62 273.058 45.96 273.058 45.072V43.524C272.734 43.992 272.284 44.382 271.708 44.694C271.144 45.006 270.496 45.162 269.764 45.162C268.924 45.162 268.156 44.946 267.46 44.514C266.764 44.082 266.212 43.476 265.804 42.696C265.408 41.904 265.21 40.998 265.21 39.978C265.21 38.97 265.408 38.076 265.804 37.296C266.212 36.516 266.758 35.916 267.442 35.496C268.138 35.076 268.912 34.866 269.764 34.866ZM273.058 40.014C273.058 39.402 272.938 38.88 272.698 38.448C272.458 38.004 272.134 37.668 271.726 37.44C271.318 37.2 270.88 37.08 270.412 37.08C269.944 37.08 269.512 37.194 269.116 37.422C268.72 37.65 268.396 37.986 268.144 38.43C267.904 38.862 267.784 39.378 267.784 39.978C267.784 40.578 267.904 41.106 268.144 41.562C268.396 42.006 268.72 42.348 269.116 42.588C269.524 42.828 269.956 42.948 270.412 42.948C270.88 42.948 271.318 42.834 271.726 42.606C272.134 42.366 272.458 42.03 272.698 41.598C272.938 41.154 273.058 40.626 273.058 40.014ZM282.485 45.162C281.525 45.162 280.661 44.952 279.893 44.532C279.125 44.1 278.519 43.494 278.075 42.714C277.643 41.934 277.427 41.034 277.427 40.014C277.427 38.994 277.649 38.094 278.093 37.314C278.549 36.534 279.167 35.934 279.947 35.514C280.727 35.082 281.597 34.866 282.557 34.866C283.517 34.866 284.387 35.082 285.167 35.514C285.947 35.934 286.559 36.534 287.003 37.314C287.459 38.094 287.687 38.994 287.687 40.014C287.687 41.034 287.453 41.934 286.985 42.714C286.529 43.494 285.905 44.1 285.113 44.532C284.333 44.952 283.457 45.162 282.485 45.162ZM282.485 42.966C282.941 42.966 283.367 42.858 283.763 42.642C284.171 42.414 284.495 42.078 284.735 41.634C284.975 41.19 285.095 40.65 285.095 40.014C285.095 39.066 284.843 38.34 284.339 37.836C283.847 37.32 283.241 37.062 282.521 37.062C281.801 37.062 281.195 37.32 280.703 37.836C280.223 38.34 279.983 39.066 279.983 40.014C279.983 40.962 280.217 41.694 280.685 42.21C281.165 42.714 281.765 42.966 282.485 42.966ZM293.046 32.004C294.294 32.004 295.296 32.346 296.052 33.03C296.82 33.702 297.204 34.632 297.204 35.82C297.204 36.996 296.826 37.896 296.07 38.52C295.314 39.132 294.312 39.438 293.064 39.438L292.992 40.824H290.778L290.688 37.764H291.498C292.542 37.764 293.346 37.626 293.91 37.35C294.474 37.074 294.756 36.57 294.756 35.838C294.756 35.31 294.6 34.89 294.288 34.578C293.988 34.266 293.574 34.11 293.046 34.11C292.494 34.11 292.062 34.26 291.75 34.56C291.45 34.86 291.3 35.274 291.3 35.802H288.924C288.912 35.07 289.068 34.416 289.392 33.84C289.716 33.264 290.19 32.814 290.814 32.49C291.45 32.166 292.194 32.004 293.046 32.004ZM291.876 45.126C291.42 45.126 291.042 44.988 290.742 44.712C290.454 44.424 290.31 44.07 290.31 43.65C290.31 43.23 290.454 42.882 290.742 42.606C291.042 42.318 291.42 42.174 291.876 42.174C292.32 42.174 292.686 42.318 292.974 42.606C293.262 42.882 293.406 43.23 293.406 43.65C293.406 44.07 293.262 44.424 292.974 44.712C292.686 44.988 292.32 45.126 291.876 45.126Z" fill="#334155"/>
<path d="M81.1693 60.242L77.4873 70H76.0173L72.3353 60.242H73.6933L76.7593 68.656L79.8253 60.242H81.1693ZM85.9123 70.126C85.1936 70.126 84.5403 69.9627 83.9523 69.636C83.3736 69.3093 82.9163 68.8473 82.5803 68.25C82.2536 67.6433 82.0903 66.9433 82.0903 66.15C82.0903 65.366 82.2583 64.6753 82.5943 64.078C82.9396 63.4713 83.4063 63.0093 83.9943 62.692C84.5823 62.3653 85.2403 62.202 85.9683 62.202C86.6963 62.202 87.3543 62.3653 87.9423 62.692C88.5303 63.0093 88.9923 63.4667 89.3283 64.064C89.6736 64.6613 89.8463 65.3567 89.8463 66.15C89.8463 66.9433 89.6689 67.6433 89.3143 68.25C88.9689 68.8473 88.4976 69.3093 87.9003 69.636C87.3029 69.9627 86.6403 70.126 85.9123 70.126ZM85.9123 69.006C86.3696 69.006 86.7989 68.8987 87.2003 68.684C87.6016 68.4693 87.9236 68.1473 88.1663 67.718C88.4183 67.2887 88.5443 66.766 88.5443 66.15C88.5443 65.534 88.4229 65.0113 88.1803 64.582C87.9376 64.1527 87.6203 63.8353 87.2283 63.63C86.8363 63.4153 86.4116 63.308 85.9543 63.308C85.4876 63.308 85.0583 63.4153 84.6663 63.63C84.2836 63.8353 83.9756 64.1527 83.7423 64.582C83.5089 65.0113 83.3923 65.534 83.3923 66.15C83.3923 66.7753 83.5043 67.3027 83.7283 67.732C83.9616 68.1613 84.2696 68.4833 84.6523 68.698C85.0349 68.9033 85.4549 69.006 85.9123 69.006ZM91.0454 66.15C91.0454 65.3567 91.204 64.666 91.5214 64.078C91.8387 63.4807 92.2774 63.0187 92.8374 62.692C93.4067 62.3653 94.0554 62.202 94.7834 62.202C95.726 62.202 96.5007 62.4307 97.1074 62.888C97.7234 63.3453 98.1294 63.98 98.3254 64.792H96.9534C96.8227 64.3253 96.566 63.9567 96.1834 63.686C95.81 63.4153 95.3434 63.28 94.7834 63.28C94.0554 63.28 93.4674 63.532 93.0194 64.036C92.5714 64.5307 92.3474 65.2353 92.3474 66.15C92.3474 67.074 92.5714 67.788 93.0194 68.292C93.4674 68.796 94.0554 69.048 94.7834 69.048C95.3434 69.048 95.81 68.9173 96.1834 68.656C96.5567 68.3947 96.8134 68.0213 96.9534 67.536H98.3254C98.12 68.32 97.7094 68.95 97.0934 69.426C96.4774 69.8927 95.7074 70.126 94.7834 70.126C94.0554 70.126 93.4067 69.9627 92.8374 69.636C92.2774 69.3093 91.8387 68.8473 91.5214 68.25C91.204 67.6527 91.0454 66.9527 91.0454 66.15ZM107.025 65.87C107.025 66.1127 107.011 66.3693 106.983 66.64H100.851C100.898 67.396 101.155 67.9887 101.621 68.418C102.097 68.838 102.671 69.048 103.343 69.048C103.894 69.048 104.351 68.922 104.715 68.67C105.089 68.4087 105.35 68.0633 105.499 67.634H106.871C106.666 68.3713 106.255 68.9733 105.639 69.44C105.023 69.8973 104.258 70.126 103.343 70.126C102.615 70.126 101.962 69.9627 101.383 69.636C100.814 69.3093 100.366 68.8473 100.039 68.25C99.7126 67.6433 99.5493 66.9433 99.5493 66.15C99.5493 65.3567 99.7079 64.6613 100.025 64.064C100.343 63.4667 100.786 63.0093 101.355 62.692C101.934 62.3653 102.597 62.202 103.343 62.202C104.071 62.202 104.715 62.3607 105.275 62.678C105.835 62.9953 106.265 63.434 106.563 63.994C106.871 64.5447 107.025 65.17 107.025 65.87ZM105.709 65.604C105.709 65.1187 105.602 64.7033 105.387 64.358C105.173 64.0033 104.879 63.7373 104.505 63.56C104.141 63.3733 103.735 63.28 103.287 63.28C102.643 63.28 102.093 63.4853 101.635 63.896C101.187 64.3067 100.931 64.876 100.865 65.604H105.709ZM103.301 60.452L101.355 61.642V60.634L103.301 59.472L105.233 60.634V61.642L103.301 60.452ZM119.439 65.87C119.439 66.1127 119.425 66.3693 119.397 66.64H113.265C113.312 67.396 113.569 67.9887 114.035 68.418C114.511 68.838 115.085 69.048 115.757 69.048C116.308 69.048 116.765 68.922 117.129 68.67C117.503 68.4087 117.764 68.0633 117.913 67.634H119.285C119.08 68.3713 118.669 68.9733 118.053 69.44C117.437 69.8973 116.672 70.126 115.757 70.126C115.029 70.126 114.376 69.9627 113.797 69.636C113.228 69.3093 112.78 68.8473 112.453 68.25C112.127 67.6433 111.963 66.9433 111.963 66.15C111.963 65.3567 112.122 64.6613 112.439 64.064C112.757 63.4667 113.2 63.0093 113.769 62.692C114.348 62.3653 115.011 62.202 115.757 62.202C116.485 62.202 117.129 62.3607 117.689 62.678C118.249 62.9953 118.679 63.434 118.977 63.994C119.285 64.5447 119.439 65.17 119.439 65.87ZM118.123 65.604C118.123 65.1187 118.016 64.7033 117.801 64.358C117.587 64.0033 117.293 63.7373 116.919 63.56C116.555 63.3733 116.149 63.28 115.701 63.28C115.057 63.28 114.507 63.4853 114.049 63.896C113.601 64.3067 113.345 64.876 113.279 65.604H118.123ZM123.837 70.126C123.249 70.126 122.722 70.028 122.255 69.832C121.788 69.6267 121.42 69.3467 121.149 68.992C120.878 68.628 120.729 68.2127 120.701 67.746H122.017C122.054 68.1287 122.232 68.4413 122.549 68.684C122.876 68.9267 123.3 69.048 123.823 69.048C124.308 69.048 124.691 68.9407 124.971 68.726C125.251 68.5113 125.391 68.2407 125.391 67.914C125.391 67.578 125.242 67.3307 124.943 67.172C124.644 67.004 124.182 66.8407 123.557 66.682C122.988 66.5327 122.521 66.3833 122.157 66.234C121.802 66.0753 121.494 65.8467 121.233 65.548C120.981 65.24 120.855 64.8387 120.855 64.344C120.855 63.952 120.972 63.5927 121.205 63.266C121.438 62.9393 121.77 62.6827 122.199 62.496C122.628 62.3 123.118 62.202 123.669 62.202C124.518 62.202 125.204 62.4167 125.727 62.846C126.25 63.2753 126.53 63.8633 126.567 64.61H125.293C125.265 64.2087 125.102 63.8867 124.803 63.644C124.514 63.4013 124.122 63.28 123.627 63.28C123.17 63.28 122.806 63.378 122.535 63.574C122.264 63.77 122.129 64.0267 122.129 64.344C122.129 64.596 122.208 64.806 122.367 64.974C122.535 65.1327 122.74 65.2633 122.983 65.366C123.235 65.4593 123.58 65.5667 124.019 65.688C124.57 65.8373 125.018 65.9867 125.363 66.136C125.708 66.276 126.002 66.4907 126.245 66.78C126.497 67.0693 126.628 67.4473 126.637 67.914C126.637 68.334 126.52 68.712 126.287 69.048C126.054 69.384 125.722 69.65 125.293 69.846C124.873 70.0327 124.388 70.126 123.837 70.126ZM129.989 63.378V67.9C129.989 68.2733 130.069 68.5393 130.227 68.698C130.386 68.8473 130.661 68.922 131.053 68.922H131.991V70H130.843C130.134 70 129.602 69.8367 129.247 69.51C128.893 69.1833 128.715 68.6467 128.715 67.9V63.378H127.721V62.328H128.715V60.396H129.989V62.328H131.991V63.378H129.989ZM133.059 66.136C133.059 65.352 133.218 64.666 133.535 64.078C133.852 63.4807 134.286 63.0187 134.837 62.692C135.397 62.3653 136.018 62.202 136.699 62.202C137.371 62.202 137.954 62.3467 138.449 62.636C138.944 62.9253 139.312 63.2893 139.555 63.728V62.328H140.843V70H139.555V68.572C139.303 69.02 138.925 69.3933 138.421 69.692C137.926 69.9813 137.348 70.126 136.685 70.126C136.004 70.126 135.388 69.958 134.837 69.622C134.286 69.286 133.852 68.8147 133.535 68.208C133.218 67.6013 133.059 66.9107 133.059 66.136ZM139.555 66.15C139.555 65.5713 139.438 65.0673 139.205 64.638C138.972 64.2087 138.654 63.882 138.253 63.658C137.861 63.4247 137.427 63.308 136.951 63.308C136.475 63.308 136.041 63.42 135.649 63.644C135.257 63.868 134.944 64.1947 134.711 64.624C134.478 65.0533 134.361 65.5573 134.361 66.136C134.361 66.724 134.478 67.2373 134.711 67.676C134.944 68.1053 135.257 68.4367 135.649 68.67C136.041 68.894 136.475 69.006 136.951 69.006C137.427 69.006 137.861 68.894 138.253 68.67C138.654 68.4367 138.972 68.1053 139.205 67.676C139.438 67.2373 139.555 66.7287 139.555 66.15ZM138.561 60.158L135.579 61.754V60.802L138.561 59.052V60.158ZM150.466 62.188C151.4 62.188 152.156 62.4727 152.734 63.042C153.313 63.602 153.602 64.414 153.602 65.478V70H152.342V65.66C152.342 64.8947 152.151 64.3113 151.768 63.91C151.386 63.4993 150.863 63.294 150.2 63.294C149.528 63.294 148.992 63.504 148.59 63.924C148.198 64.344 148.002 64.9553 148.002 65.758V70H146.728V62.328H148.002V63.42C148.254 63.028 148.595 62.7247 149.024 62.51C149.463 62.2953 149.944 62.188 150.466 62.188ZM159.029 70.126C158.311 70.126 157.657 69.9627 157.069 69.636C156.491 69.3093 156.033 68.8473 155.697 68.25C155.371 67.6433 155.207 66.9433 155.207 66.15C155.207 65.366 155.375 64.6753 155.711 64.078C156.057 63.4713 156.523 63.0093 157.111 62.692C157.699 62.3653 158.357 62.202 159.085 62.202C159.813 62.202 160.471 62.3653 161.059 62.692C161.647 63.0093 162.109 63.4667 162.445 64.064C162.791 64.6613 162.963 65.3567 162.963 66.15C162.963 66.9433 162.786 67.6433 162.431 68.25C162.086 68.8473 161.615 69.3093 161.017 69.636C160.42 69.9627 159.757 70.126 159.029 70.126ZM159.029 69.006C159.487 69.006 159.916 68.8987 160.317 68.684C160.719 68.4693 161.041 68.1473 161.283 67.718C161.535 67.2887 161.661 66.766 161.661 66.15C161.661 65.534 161.54 65.0113 161.297 64.582C161.055 64.1527 160.737 63.8353 160.345 63.63C159.953 63.4153 159.529 63.308 159.071 63.308C158.605 63.308 158.175 63.4153 157.783 63.63C157.401 63.8353 157.093 64.1527 156.859 64.582C156.626 65.0113 156.509 65.534 156.509 66.15C156.509 66.7753 156.621 67.3027 156.845 67.732C157.079 68.1613 157.387 68.4833 157.769 68.698C158.152 68.9033 158.572 69.006 159.029 69.006ZM169.645 59.64V70H168.371V59.64H169.645ZM178.62 62.328V70H177.346V68.866C177.104 69.258 176.763 69.566 176.324 69.79C175.895 70.0047 175.419 70.112 174.896 70.112C174.299 70.112 173.762 69.9907 173.286 69.748C172.81 69.496 172.432 69.1227 172.152 68.628C171.882 68.1333 171.746 67.5313 171.746 66.822V62.328H173.006V66.654C173.006 67.41 173.198 67.9933 173.58 68.404C173.963 68.8053 174.486 69.006 175.148 69.006C175.83 69.006 176.366 68.796 176.758 68.376C177.15 67.956 177.346 67.3447 177.346 66.542V62.328H178.62ZM183.935 62.202C184.598 62.202 185.177 62.3467 185.671 62.636C186.175 62.9253 186.549 63.2893 186.791 63.728V62.328H188.079V70.168C188.079 70.868 187.93 71.4887 187.631 72.03C187.333 72.5807 186.903 73.01 186.343 73.318C185.793 73.626 185.149 73.78 184.411 73.78C183.403 73.78 182.563 73.542 181.891 73.066C181.219 72.59 180.823 71.9413 180.701 71.12H181.961C182.101 71.5867 182.391 71.96 182.829 72.24C183.268 72.5293 183.795 72.674 184.411 72.674C185.111 72.674 185.681 72.4547 186.119 72.016C186.567 71.5773 186.791 70.9613 186.791 70.168V68.558C186.539 69.006 186.166 69.3793 185.671 69.678C185.177 69.9767 184.598 70.126 183.935 70.126C183.254 70.126 182.633 69.958 182.073 69.622C181.523 69.286 181.089 68.8147 180.771 68.208C180.454 67.6013 180.295 66.9107 180.295 66.136C180.295 65.352 180.454 64.666 180.771 64.078C181.089 63.4807 181.523 63.0187 182.073 62.692C182.633 62.3653 183.254 62.202 183.935 62.202ZM186.791 66.15C186.791 65.5713 186.675 65.0673 186.441 64.638C186.208 64.2087 185.891 63.882 185.489 63.658C185.097 63.4247 184.663 63.308 184.187 63.308C183.711 63.308 183.277 63.42 182.885 63.644C182.493 63.868 182.181 64.1947 181.947 64.624C181.714 65.0533 181.597 65.5573 181.597 66.136C181.597 66.724 181.714 67.2373 181.947 67.676C182.181 68.1053 182.493 68.4367 182.885 68.67C183.277 68.894 183.711 69.006 184.187 69.006C184.663 69.006 185.097 68.894 185.489 68.67C185.891 68.4367 186.208 68.1053 186.441 67.676C186.675 67.2373 186.791 66.7287 186.791 66.15ZM189.756 66.136C189.756 65.352 189.915 64.666 190.232 64.078C190.55 63.4807 190.984 63.0187 191.534 62.692C192.094 62.3653 192.715 62.202 193.396 62.202C194.068 62.202 194.652 62.3467 195.146 62.636C195.641 62.9253 196.01 63.2893 196.252 63.728V62.328H197.54V70H196.252V68.572C196 69.02 195.622 69.3933 195.118 69.692C194.624 69.9813 194.045 70.126 193.382 70.126C192.701 70.126 192.085 69.958 191.534 69.622C190.984 69.286 190.55 68.8147 190.232 68.208C189.915 67.6013 189.756 66.9107 189.756 66.136ZM196.252 66.15C196.252 65.5713 196.136 65.0673 195.902 64.638C195.669 64.2087 195.352 63.882 194.95 63.658C194.558 63.4247 194.124 63.308 193.648 63.308C193.172 63.308 192.738 63.42 192.346 63.644C191.954 63.868 191.642 64.1947 191.408 64.624C191.175 65.0533 191.058 65.5573 191.058 66.136C191.058 66.724 191.175 67.2373 191.408 67.676C191.642 68.1053 191.954 68.4367 192.346 68.67C192.738 68.894 193.172 69.006 193.648 69.006C194.124 69.006 194.558 68.894 194.95 68.67C195.352 68.4367 195.669 68.1053 195.902 67.676C196.136 67.2373 196.252 66.7287 196.252 66.15ZM200.967 63.574C201.191 63.1353 201.509 62.7947 201.919 62.552C202.339 62.3093 202.848 62.188 203.445 62.188V63.504H203.109C201.681 63.504 200.967 64.2787 200.967 65.828V70H199.693V62.328H200.967V63.574ZM208.172 66.15C208.172 65.3567 208.331 64.666 208.648 64.078C208.966 63.4807 209.404 63.0187 209.964 62.692C210.534 62.3653 211.182 62.202 211.91 62.202C212.853 62.202 213.628 62.4307 214.234 62.888C214.85 63.3453 215.256 63.98 215.452 64.792H214.08C213.95 64.3253 213.693 63.9567 213.31 63.686C212.937 63.4153 212.47 63.28 211.91 63.28C211.182 63.28 210.594 63.532 210.146 64.036C209.698 64.5307 209.474 65.2353 209.474 66.15C209.474 67.074 209.698 67.788 210.146 68.292C210.594 68.796 211.182 69.048 211.91 69.048C212.47 69.048 212.937 68.9173 213.31 68.656C213.684 68.3947 213.94 68.0213 214.08 67.536H215.452C215.247 68.32 214.836 68.95 214.22 69.426C213.604 69.8927 212.834 70.126 211.91 70.126C211.182 70.126 210.534 69.9627 209.964 69.636C209.404 69.3093 208.966 68.8473 208.648 68.25C208.331 67.6527 208.172 66.9527 208.172 66.15ZM224.152 65.87C224.152 66.1127 224.138 66.3693 224.11 66.64H217.978C218.025 67.396 218.282 67.9887 218.748 68.418C219.224 68.838 219.798 69.048 220.47 69.048C221.021 69.048 221.478 68.922 221.842 68.67C222.216 68.4087 222.477 68.0633 222.626 67.634H223.998C223.793 68.3713 223.382 68.9733 222.766 69.44C222.15 69.8973 221.385 70.126 220.47 70.126C219.742 70.126 219.089 69.9627 218.51 69.636C217.941 69.3093 217.493 68.8473 217.166 68.25C216.84 67.6433 216.676 66.9433 216.676 66.15C216.676 65.3567 216.835 64.6613 217.152 64.064C217.47 63.4667 217.913 63.0093 218.482 62.692C219.061 62.3653 219.724 62.202 220.47 62.202C221.198 62.202 221.842 62.3607 222.402 62.678C222.962 62.9953 223.392 63.434 223.69 63.994C223.998 64.5447 224.152 65.17 224.152 65.87ZM222.836 65.604C222.836 65.1187 222.729 64.7033 222.514 64.358C222.3 64.0033 222.006 63.7373 221.632 63.56C221.268 63.3733 220.862 63.28 220.414 63.28C219.77 63.28 219.22 63.4853 218.762 63.896C218.314 64.3067 218.058 64.876 217.992 65.604H222.836ZM227.108 63.574C227.332 63.1353 227.649 62.7947 228.06 62.552C228.48 62.3093 228.989 62.188 229.586 62.188V63.504H229.25C227.822 63.504 227.108 64.2787 227.108 65.828V70H225.834V62.328H227.108V63.574ZM232.611 63.378V67.9C232.611 68.2733 232.69 68.5393 232.849 68.698C233.007 68.8473 233.283 68.922 233.675 68.922H234.613V70H233.465C232.755 70 232.223 69.8367 231.869 69.51C231.514 69.1833 231.337 68.6467 231.337 67.9V63.378H230.343V62.328H231.337V60.396H232.611V62.328H234.613V63.378H232.611ZM239.502 70.126C238.783 70.126 238.13 69.9627 237.542 69.636C236.963 69.3093 236.506 68.8473 236.17 68.25C235.843 67.6433 235.68 66.9433 235.68 66.15C235.68 65.366 235.848 64.6753 236.184 64.078C236.529 63.4713 236.996 63.0093 237.584 62.692C238.172 62.3653 238.83 62.202 239.558 62.202C240.286 62.202 240.944 62.3653 241.532 62.692C242.12 63.0093 242.582 63.4667 242.918 64.064C243.263 64.6613 243.436 65.3567 243.436 66.15C243.436 66.9433 243.259 67.6433 242.904 68.25C242.559 68.8473 242.087 69.3093 241.49 69.636C240.893 69.9627 240.23 70.126 239.502 70.126ZM239.502 69.006C239.959 69.006 240.389 68.8987 240.79 68.684C241.191 68.4693 241.513 68.1473 241.756 67.718C242.008 67.2887 242.134 66.766 242.134 66.15C242.134 65.534 242.013 65.0113 241.77 64.582C241.527 64.1527 241.21 63.8353 240.818 63.63C240.426 63.4153 240.001 63.308 239.544 63.308C239.077 63.308 238.648 63.4153 238.256 63.63C237.873 63.8353 237.565 64.1527 237.332 64.582C237.099 65.0113 236.982 65.534 236.982 66.15C236.982 66.7753 237.094 67.3027 237.318 67.732C237.551 68.1613 237.859 68.4833 238.242 68.698C238.625 68.9033 239.045 69.006 239.502 69.006ZM245.517 70.084C245.275 70.084 245.069 70 244.901 69.832C244.733 69.664 244.649 69.4587 244.649 69.216C244.649 68.9733 244.733 68.768 244.901 68.6C245.069 68.432 245.275 68.348 245.517 68.348C245.751 68.348 245.947 68.432 246.105 68.6C246.273 68.768 246.357 68.9733 246.357 69.216C246.357 69.4587 246.273 69.664 246.105 69.832C245.947 70 245.751 70.084 245.517 70.084Z" fill="#64748B"/>
<g clip-path="url(#clip0_438_4245)">
<path d="M222.401 240.772L221.252 213.444C221.252 213.444 219.962 197.22 218.93 191.555C217.898 185.889 210.93 187.434 210.93 187.434L211.704 203.658L215.045 220.262L217.644 242.871C217.511 243.525 217.435 244.236 217.435 244.982C217.435 248.149 218.76 250.717 220.395 250.717C222.03 250.717 223.356 248.149 223.356 244.982C223.356 243.316 222.987 241.82 222.401 240.772V240.772Z" fill="#FFB6B6"/>
<path d="M166.487 233.691C167.708 232.24 169.171 231.253 170.485 230.873L185.934 213.444C185.934 213.444 187.225 197.22 188.257 191.555C189.289 185.889 196.257 187.434 196.257 187.434L195.482 203.658L191.095 221.17L173.017 236.487C172.701 237.061 172.314 237.635 171.851 238.186C169.651 240.8 166.668 241.913 165.186 240.672C163.705 239.431 164.287 236.306 166.487 233.691V233.691Z" fill="#FFB6B6"/>
<path d="M200.479 185.245L202.271 178.37L209.253 178.034L211.342 187.512L200.479 185.245Z" fill="#FFB6B6"/>
<path opacity="0.1" d="M200.479 185.245L202.271 178.37L209.253 178.034L211.342 187.512L200.479 185.245Z" fill="black"/>
<path d="M182.651 297.886L176.111 297.513L176.969 317.541L181.4 317.794L182.651 297.886Z" fill="#FFB6B6"/>
<path d="M176.402 311.208L178.673 312.242L178.67 313.616C178.67 313.616 179.218 312.026 182.158 311.679L182.509 313.011C182.509 313.011 183.65 314.317 183.454 316.68L182.706 323.007L180.488 322.956L180.13 318.553C180.13 318.553 179.519 317.554 176.705 322.302C176.705 322.302 173.606 323.082 168.806 321.475C168.146 321.255 167.688 320.64 167.696 319.946C167.701 319.563 167.851 319.208 168.333 319.081C169.558 318.758 170.755 319.168 171.547 318.192C172.338 317.216 176.402 311.208 176.402 311.208V311.208Z" fill="#2F2E41"/>
<path d="M217.746 297.886L211.207 297.513L212.065 317.541L216.496 317.794L217.746 297.886Z" fill="#FFB6B6"/>
<path d="M211.498 311.208L213.769 312.242L213.766 313.616C213.766 313.616 214.314 312.026 217.254 311.679L217.605 313.011C217.605 313.011 218.745 314.317 218.55 316.68L217.801 323.007L215.584 322.956L215.226 318.553C215.226 318.553 214.615 317.554 211.801 322.302C211.801 322.302 208.701 323.082 203.901 321.475C203.242 321.255 202.783 320.64 202.792 319.946C202.797 319.563 202.947 319.208 203.428 319.081C204.654 318.758 205.851 319.168 206.642 318.192C207.434 317.216 211.498 311.208 211.498 311.208V311.208Z" fill="#2F2E41"/>
<path d="M205.847 182.419C210.123 182.419 213.589 178.96 213.589 174.693C213.589 170.426 210.123 166.967 205.847 166.967C201.571 166.967 198.105 170.426 198.105 174.693C198.105 178.96 201.571 182.419 205.847 182.419Z" fill="#FFB6B6"/>
<path d="M210.237 175.977C210.237 175.977 206.833 170.419 203.426 171.033C200.019 171.646 198.243 172.2 198.243 172.2C198.243 172.2 196.855 167.769 201.513 165.643C201.513 165.643 194.921 160.135 201.947 156.6C208.973 153.065 213.345 156.491 213.345 156.491C213.345 156.491 219.16 161.412 212.713 165.967C212.713 165.967 218.293 172.31 212.657 178.37C212.657 178.37 213.652 173.756 212.298 174.702C210.945 175.648 210.237 175.977 210.237 175.977V175.977Z" fill="#2F2E41"/>
<path d="M211.059 185.76L200.479 184.473L192.35 191.04C192.35 191.04 188.307 202.281 191.318 209.066C191.39 209.229 191.447 220.526 191.447 220.526H213.926C213.926 220.526 213.904 212.837 214.763 210.052C214.886 209.654 215.027 209.356 215.188 209.195C216.478 207.908 219.575 199.667 218.027 196.061C216.478 192.456 211.059 185.76 211.059 185.76V185.76Z" fill="#4079AC"/>
<path d="M191.318 220.011L177.125 265.078L174.028 300.617H182.673L190.027 267.654L200.156 248.572L210.156 303.192H218.882L218.672 229.282L213.908 220.011H191.318Z" fill="#2F2E41"/>
<path d="M163.275 229.132C160.698 224.991 154.686 224.017 150.22 225.992C145.754 227.968 142.667 232.18 140.568 236.582C138.47 240.984 137.15 245.727 134.993 250.101C128.647 262.971 115.796 271.377 107.712 283.236C101.638 292.147 98.4216 302.967 98.6433 313.742C98.7282 317.869 99.397 322.211 101.978 325.437C105.809 330.225 112.591 331.207 118.698 331.838C122.246 332.204 126.6 332.193 128.427 329.137C129.149 327.928 121.384 323.71 121.508 322.307C122.18 314.74 130.76 309.934 131.433 302.367C132.487 307.64 131.136 313.083 131.349 318.456C131.562 323.828 134.216 329.905 139.488 331.016C141.114 331.359 142.951 331.122 144.184 330.009C145.417 328.896 145.777 326.793 144.679 325.547C145.803 326.694 147.701 326.992 149.124 326.245C150.547 325.499 151.378 323.77 151.069 322.195C150.842 321.037 150.094 320.063 149.445 319.077C145.933 313.733 145.018 306.77 147.031 300.703C150.589 289.979 162.274 282.979 164.254 271.857C165.724 263.596 161.53 254.237 165.98 247.119C167.986 243.912 171.391 241.89 174.107 239.254C176.824 236.618 178.948 232.586 177.393 229.138L163.51 229.123" fill="#3F3D56"/>
<path d="M120.46 323.805C120.115 323.805 119.761 323.713 119.419 323.53C118.631 323.108 118.036 322.274 117.904 321.405C117.685 319.96 118.375 318.556 118.93 317.428C120.446 314.343 121.945 311.045 122.166 307.618C122.407 303.876 120.886 300.408 118.291 298.782C116.363 297.573 113.788 297.263 111.041 297.907C108.608 298.478 106.423 299.645 104.022 300.999C103.831 301.107 103.589 301.04 103.482 300.849C103.374 300.659 103.441 300.418 103.632 300.31C105.997 298.977 108.329 297.731 110.86 297.137C113.814 296.444 116.603 296.79 118.713 298.112C121.551 299.89 123.216 303.642 122.957 307.669C122.727 311.241 121.193 314.621 119.641 317.777C119.109 318.859 118.506 320.086 118.688 321.287C118.783 321.908 119.227 322.529 119.793 322.833C120.069 322.981 120.49 323.114 120.928 322.911C121.126 322.818 121.362 322.904 121.454 323.102C121.547 323.3 121.461 323.535 121.263 323.628C121.008 323.746 120.737 323.805 120.46 323.805V323.805Z" fill="#2F2E41"/>
<path d="M150.834 228.861C150.315 230.28 151.008 231.869 151.967 233.037C152.927 234.204 154.159 235.143 155.005 236.396C156.777 239.021 156.512 242.609 155.15 245.468C153.788 248.326 151.492 250.617 149.24 252.846C149.406 251.89 148.922 250.925 148.262 250.213C147.602 249.5 146.771 248.972 146.033 248.34C142.596 245.4 141.521 240.041 143.558 236.007" fill="#2F2E41"/>
<path d="M103.887 313.253C100.976 312.897 98.5161 315.512 95.6105 315.913C92.2505 316.376 89.1605 313.723 87.6656 310.684C86.1706 307.646 85.787 304.197 84.7585 300.971C83.7301 297.746 81.7459 294.479 78.5132 293.454C77.157 293.023 75.6225 293.047 74.3626 293.707C73.1026 294.367 72.1792 295.715 72.2107 297.135C72.2495 298.882 73.592 300.28 74.4054 301.828C75.6995 304.29 75.6593 307.207 76.2309 309.928C77.6053 316.471 82.9386 322.02 89.4323 323.662C92.7904 324.512 96.5496 324.317 99.4585 322.44C102.367 320.562 104.14 316.781 103.064 313.495" fill="#3F3D56"/>
</g>
<defs>
<clipPath id="clip0_438_4245">
<rect width="260" height="177" fill="white" transform="translate(30 155)"/>
</clipPath>
</defs>
</svg>
