<svg width="46" height="42" viewBox="0 0 46 42" fill="none" xmlns="http://www.w3.org/2000/svg">
<path d="M37.5835 12.6667V8.49999H33.4168V4.33332H37.5835V0.166656H41.7502V4.33332H45.9168V8.49999H41.7502V12.6667H37.5835ZM4.25016 41.8333C3.10433 41.8333 2.12377 41.4257 1.3085 40.6104C0.49183 39.7937 0.0834961 38.8125 0.0834961 37.6667V12.6667C0.0834961 11.5208 0.49183 10.5403 1.3085 9.72499C2.12377 8.90832 3.10433 8.49999 4.25016 8.49999H10.8127L14.6668 4.33332H27.1668V8.49999H16.4897L12.6877 12.6667H4.25016V37.6667H37.5835V18.9167H41.7502V37.6667C41.7502 38.8125 41.3425 39.7937 40.5272 40.6104C39.7106 41.4257 38.7293 41.8333 37.5835 41.8333H4.25016ZM20.9168 34.5417C23.521 34.5417 25.7349 33.6305 27.5585 31.8083C29.3807 29.9847 30.2918 27.7708 30.2918 25.1667C30.2918 22.5625 29.3807 20.3486 27.5585 18.525C25.7349 16.7028 23.521 15.7917 20.9168 15.7917C18.3127 15.7917 16.0988 16.7028 14.2752 18.525C12.4529 20.3486 11.5418 22.5625 11.5418 25.1667C11.5418 27.7708 12.4529 29.9847 14.2752 31.8083C16.0988 33.6305 18.3127 34.5417 20.9168 34.5417ZM20.9168 30.375C19.4585 30.375 18.2259 29.8715 17.2189 28.8646C16.212 27.8576 15.7085 26.625 15.7085 25.1667C15.7085 23.7083 16.212 22.4757 17.2189 21.4687C18.2259 20.4618 19.4585 19.9583 20.9168 19.9583C22.3752 19.9583 23.6078 20.4618 24.6147 21.4687C25.6217 22.4757 26.1252 23.7083 26.1252 25.1667C26.1252 26.625 25.6217 27.8576 24.6147 28.8646C23.6078 29.8715 22.3752 30.375 20.9168 30.375Z" fill="#334155"/>
</svg>
