<svg width="50" height="81" viewBox="0 0 50 81" fill="none" xmlns="http://www.w3.org/2000/svg">
<path d="M0.34811 79.6287C0.34811 79.6287 -1.59797 80.4863 3.71252 80.7502C9.02301 81.0141 37.1257 81.146 40.0283 80.7502C42.931 80.3544 48.5383 80.5853 41.0838 79.6287C33.6294 78.6722 25.944 79.2329 18.4236 78.6722C10.9031 78.1114 1.46958 78.6392 0.34811 79.6287Z" fill="#1B1C1E"/>
<path d="M39.3028 63.1036C39.3028 63.1036 42.2714 61.7512 42.7661 54.8245C43.2609 47.8978 40.2263 42.3234 39.9295 33.5496C39.6326 24.7757 44.5803 19.8281 48.4065 22.6647C52.2327 25.5014 46.4934 31.0428 47.5489 42.4883C48.6044 53.9009 48.9012 65.4455 39.8305 68.4141C39.8635 68.4141 38.3132 66.2701 39.3028 63.1036Z" fill="#513F3B"/>
<path d="M15.356 79.6617C15.356 79.6617 3.9104 79.6617 3.21773 79.6617C2.52506 79.6617 1.66746 74.4502 7.73659 74.3512C13.8057 74.2523 17.467 74.3512 17.467 74.3512L15.356 79.6617Z" fill="#513F3B"/>
<path d="M4.83388 79.6617C4.83388 79.6617 4.50403 78.4083 5.4276 77.5177" stroke="#1B1C1E" stroke-miterlimit="10"/>
<path d="M7.01099 79.6617C7.01099 79.6617 7.01098 78.6392 7.47277 78.1774" stroke="#1B1C1E" stroke-miterlimit="10"/>
<path d="M11.2989 5.41382C11.2989 5.41382 7.27477 -0.523377 4.66901 0.0373576C2.06324 0.598092 1.70041 12.8353 3.97634 13.5939C6.21928 14.3856 11.2989 5.41382 11.2989 5.41382Z" fill="#513F3B"/>
<path d="M23.1074 5.84263C23.1074 5.84263 28.4179 2.01644 31.6504 2.24733C34.9158 2.44524 31.5844 12.0767 29.1766 14.5505C26.7687 17.0243 23.1074 5.84263 23.1074 5.84263Z" fill="#513F3B"/>
<path d="M8.2642 26.194C8.2642 26.194 4.00921 23.5882 3.31654 18.1458C2.62386 12.7034 5.09769 4.09447 16.9721 4.09447C28.8465 4.09447 31.0894 14.0228 30.2318 19.1354C29.4402 23.9841 26.9993 25.5013 26.9993 25.5013C26.9993 25.5013 29.6381 31.4715 30.9575 34.9679C31.98 37.6726 32.4747 40.4433 32.0789 43.6757C32.0789 43.6757 36.0371 49.547 38.5109 54.4287C40.8858 59.1125 42.8648 70.8549 40.7209 78.8041C40.5889 79.3319 40.0941 79.6947 39.5664 79.6947H8.33016C5.55947 79.6947 2.327 75.1429 4.8668 57.1004C4.8668 57.1004 3.54743 53.9999 4.70188 47.5679C5.85633 41.1359 8.2642 26.194 8.2642 26.194Z" fill="#FFE6BD"/>
<path d="M35.7402 79.6617C35.7402 79.6617 33.7282 79.6617 33.1345 79.6617H18.5883C16.9061 75.2748 22.0187 73.6256 24.6245 73.6256C26.6365 73.6256 31.2543 73.6256 31.2543 73.6256C31.2543 73.6256 33.7282 73.7245 34.7837 75.4397C36.0371 77.4518 35.8062 79.5628 35.7402 79.6617Z" fill="#513F3B"/>
<path d="M11.7938 58.1889C10.5734 59.0465 9.4519 59.5413 8.66028 59.8381C7.80268 60.135 6.84614 59.9371 6.21943 59.2444C5.36184 58.3208 4.83409 57.0674 4.83409 57.0674C4.83409 57.0674 3.9765 55.0554 4.24037 50.9323C4.24037 50.9323 4.33932 48.2276 8.09954 47.403C10.9032 46.7763 12.4205 48.1287 12.4205 48.1287C12.3545 48.6564 12.2556 49.1842 12.1566 49.7779C11.8268 51.7569 12.2226 55.1873 12.4205 56.7706C12.4865 57.2983 12.2556 57.8591 11.7938 58.1889Z" fill="#513F3B"/>
<path d="M4.83398 57.1004C4.83398 57.1004 5.36174 58.3538 6.21933 59.2774C6.84604 59.9371 7.80258 60.168 8.66018 59.8381C9.4518 59.5413 10.5733 59.0465 11.7937 58.1889C12.2555 57.8591 12.4864 57.3313 12.3874 56.7706C12.1895 55.1873 11.8267 51.7569 12.1235 49.7779C12.5523 47.1391 12.8162 44.9951 12.8162 44.9951" stroke="#1B1C1E" stroke-miterlimit="10"/>
<path d="M8.82512 59.7392C8.82512 59.7392 7.50574 58.7166 7.34082 56.8695" stroke="#1B1C1E" stroke-miterlimit="10"/>
<path d="M10.9029 58.7496C10.9029 58.7496 9.91341 57.826 9.81445 56.2098" stroke="#1B1C1E" stroke-miterlimit="10"/>
<path d="M27.2963 49.9757C24.9874 51.3941 23.8 52.2187 23.9319 53.8019C24.0968 55.6491 22.6785 55.814 22.0518 55.9789C21.1282 56.2098 19.3801 56.3747 18.0277 56.2098C17.434 56.1438 16.2795 55.0553 16.2795 52.6145C16.2795 50.3716 18.0937 46.5454 21.59 44.5993C21.59 44.5993 24.4597 44.0385 26.3728 46.2485C27.6262 47.7328 27.2963 49.9757 27.2963 49.9757Z" fill="#513F3B"/>
<path d="M32.0791 43.6757C32.0791 43.6757 31.6503 47.2381 28.5168 49.2171C25.3833 51.1962 23.734 51.9878 23.899 53.8349C24.0639 55.6821 22.6456 55.847 22.0189 56.0119C21.0953 56.2428 19.3471 56.4077 17.9948 56.2428C17.401 56.1768 16.2466 55.0883 16.2466 52.6475C16.2466 50.4046 18.0607 46.5784 21.5571 44.6323" stroke="#1B1C1E" stroke-miterlimit="10"/>
<path d="M20.04 56.2428C20.04 56.2428 18.4237 55.88 18.5227 53.4062" stroke="#1B1C1E" stroke-miterlimit="10"/>
<path d="M22.0517 55.9789C22.0517 55.9789 20.9962 55.2533 21.1281 53.4062" stroke="#1B1C1E" stroke-miterlimit="10"/>
<path d="M35.3776 55.2203C35.3776 55.2203 32.409 51.559 27.7582 54.1978C23.4702 56.6386 22.4147 67.8863 26.076 73.5926" stroke="#1B1C1E" stroke-miterlimit="10"/>
<path d="M18.6213 79.6617C16.9391 75.2748 22.0517 73.6256 24.6574 73.6256C26.6695 73.6256 31.2873 73.6256 31.2873 73.6256" stroke="#1B1C1E" stroke-miterlimit="10"/>
<path d="M20.9634 79.6617C20.9634 79.6617 20.1388 78.3753 20.9634 77.5177" stroke="#1B1C1E" stroke-miterlimit="10"/>
<path d="M22.8432 79.6617C22.8432 79.6617 22.6453 78.2104 23.206 77.7156" stroke="#1B1C1E" stroke-miterlimit="10"/>
<path d="M16.7414 25.2045C16.7414 25.2045 10.8701 23.9181 8.26438 20.3228C5.65861 16.7275 7.14291 11.5819 7.76961 10.7243C8.39632 9.89972 9.05601 6.89814 17.599 7.29395C24.2948 7.6238 26.7356 11.2191 27.1315 13.627C27.4943 15.8039 26.9335 19.861 24.4597 21.8401C20.9634 24.6437 16.7414 25.2045 16.7414 25.2045Z" fill="#513F3B"/>
<path d="M13.7067 13.7259C13.8057 13.5609 13.8057 13.396 13.7067 13.2311C13.3769 12.7363 12.5853 11.5819 11.5298 11.6479C10.2763 11.7138 9.35278 13.0662 9.35278 13.495C9.35278 14.0557 10.2104 15.3091 11.4968 15.4411C12.4863 15.507 13.3769 14.2536 13.7067 13.7259Z" fill="#9BBEDC"/>
<path d="M11.4969 14.8804C12.0798 14.8804 12.5524 14.2454 12.5524 13.462C12.5524 12.6787 12.0798 12.0437 11.4969 12.0437C10.914 12.0437 10.4414 12.6787 10.4414 13.462C10.4414 14.2454 10.914 14.8804 11.4969 14.8804Z" fill="#1B1C1E"/>
<path d="M15.8508 15.1113C15.8508 15.1113 14.1026 14.9793 13.1131 16.0018C12.1235 17.0244 12.2885 18.7066 13.278 19.3333C14.1686 19.927 14.6303 18.5087 15.8508 18.4427C17.0712 18.3767 16.9393 17.4861 17.0052 16.5956C17.0382 15.738 15.8508 15.1113 15.8508 15.1113Z" stroke="#1B1C1E" stroke-miterlimit="10"/>
<path d="M16.9064 17.75C16.9064 17.75 16.8404 18.3437 17.5001 18.6406C18.1598 18.9704 18.7205 18.8715 19.4132 19.6631C20.1059 20.4218 21.4582 19.5312 21.4582 18.0799C21.4582 16.4306 20.3697 15.2762 18.3907 15.2102C16.4116 15.1442 17.0713 15.8699 17.0713 15.8699L16.9064 17.75Z" stroke="#1B1C1E" stroke-miterlimit="10"/>
<path d="M14.3333 19.2343C14.3333 19.2343 15.1579 20.3887 16.5432 20.5207C17.8296 20.6526 18.9841 19.861 19.182 19.4652" stroke="#1B1C1E" stroke-miterlimit="10"/>
<path d="M17.0053 16.6286C17.0053 16.6286 15.587 15.738 15.3891 14.9793C15.1912 14.2537 15.587 13.7919 17.2362 13.8579C18.5886 13.9238 19.1823 14.4516 18.6545 15.3092C18.1268 16.0678 17.0053 16.6286 17.0053 16.6286Z" fill="#1B1C1E" stroke="#1B1C1E" stroke-miterlimit="10"/>
<path d="M28.4177 24.7427C28.4507 24.7757 28.4837 24.8087 28.5167 24.8417C28.5167 24.8417 28.4837 24.8087 28.4177 24.7427Z" fill="#443730"/>
<path d="M26.4387 26.161L26.4058 26.128L26.4387 26.161Z" fill="#443730"/>
<path d="M26.4388 26.0951L26.3728 25.9301C26.4058 25.9961 26.4058 26.0621 26.4388 26.0951Z" fill="#443730"/>
<path d="M29.2754 25.5673C29.3084 25.6003 29.3743 25.6333 29.4403 25.6992L29.2754 25.5673Z" fill="#443730"/>
<path d="M29.4404 26.293C29.4404 26.3255 29.473 26.3581 29.473 26.3581C29.473 26.3581 29.4404 26.3255 29.4404 26.293Z" fill="#443730"/>
<path d="M29.7693 23.0601C29.7367 23.0601 29.7367 23.0275 29.7041 23.0275C29.7367 23.0275 29.7367 23.0275 29.7693 23.0601Z" fill="#443730"/>
<path d="M30.1001 23.1261C30.1001 23.0936 30.1001 23.0936 30.1001 23.1261H30.1653C30.1653 23.1587 30.1001 23.1261 30.1001 23.1261Z" fill="#443730"/>
<path d="M32.5081 23.7531L32.64 23.8521C32.607 23.8191 32.541 23.7861 32.5081 23.7531Z" fill="#443730"/>
<path d="M29.6052 22.9285C29.6382 22.9615 29.6712 22.9945 29.7372 23.0275C29.6712 22.9945 29.6382 22.9945 29.6052 22.9285Z" fill="#443730"/>
<path d="M29.8362 23.7861L29.8692 23.8191C29.8692 23.8191 29.8692 23.8191 29.8362 23.7861Z" fill="#443730"/>
<path d="M29.7701 26.0621C29.7371 25.9631 29.7041 25.9301 29.7041 25.8971C29.7371 25.9301 29.7371 25.9961 29.7701 26.0621Z" fill="#443730"/>
<path d="M23.0742 27.8762L23.0413 27.7442C23.0742 27.8102 23.0742 27.8432 23.0742 27.8762Z" fill="#443730"/>
<path d="M25.6802 27.5793C25.7128 27.6119 25.7127 27.6445 25.7453 27.6445C25.7453 27.6771 25.7128 27.6445 25.6802 27.5793Z" fill="#443730"/>
<path d="M30.0671 26.0291C30.0671 26.0291 30.1001 26.0291 30.1331 26.0291C30.1661 26.0951 30.1991 26.161 30.0671 26.0291Z" fill="#443730"/>
<path d="M30.001 48.2276C30.0336 48.2276 30.0335 48.2276 30.0661 48.2601C30.0661 48.2601 30.0336 48.2601 30.001 48.2276Z" fill="#443730"/>
<path d="M28.0874 49.7111L28.0222 49.6459C28.0874 49.6785 28.0874 49.7111 28.0874 49.7111Z" fill="#443730"/>
<path d="M31.1877 46.4128C31.1555 46.3807 31.1555 46.3807 31.1877 46.4128C31.1555 46.3807 31.1555 46.3807 31.1877 46.4128Z" fill="#443730"/>
<path d="M31.3533 46.3145C31.3533 46.3145 31.3533 46.2815 31.3863 46.2815L31.3533 46.3145C31.3863 46.3145 31.4192 46.2815 31.3533 46.3145Z" fill="#443730"/>
<path d="M31.0896 46.3805C31.1222 46.3805 31.1222 46.3805 31.1548 46.3805C31.1222 46.3805 31.0896 46.413 31.0896 46.3805Z" fill="#443730"/>
<path d="M29.968 48.1946C30.0002 48.2268 30.0002 48.2268 29.968 48.1946C30.0002 48.2268 30.0002 48.2268 29.968 48.1946Z" fill="#443730"/>
<path d="M27.1968 50.0416C27.1642 50.0416 27.1642 50.0416 27.1316 50.0416C27.1642 50.009 27.1968 50.0416 27.1968 50.0416Z" fill="#443730"/>
<path d="M24.7892 51.1294L24.7566 51.0643C24.7566 51.0968 24.7892 51.0968 24.7892 51.1294Z" fill="#443730"/>
<path d="M26.1419 50.8993L26.1089 50.8004L26.2078 50.8663L26.1419 50.8993Z" fill="#443730"/>
<path d="M27.2634 50.6355L27.2964 50.6684L27.2634 50.6355Z" fill="#443730"/>
<path d="M26.5708 50.8333L26.6034 50.8659V50.8985L26.5708 50.8333Z" fill="#443730"/>
<path d="M27.3619 50.7336C27.3293 50.7336 27.3293 50.701 27.3293 50.6684L27.3619 50.7336Z" fill="#443730"/>
<path d="M27.3953 50.5695L27.4283 50.4375L27.4612 50.5365L27.3953 50.5695Z" fill="#443730"/>
<path d="M31.1226 48.3595C31.1226 48.3595 31.1556 48.3595 31.1226 48.3595C31.1226 48.3595 31.1226 48.3925 31.1226 48.3595C31.0897 48.3595 31.0897 48.3595 31.1226 48.3595Z" fill="#443730"/>
<path d="M31.4524 45.4899C31.5843 45.5559 31.5184 45.5889 31.4854 45.5889C31.5184 45.5889 31.4854 45.5229 31.4524 45.4899Z" fill="#443730"/>
<path d="M32.3429 43.3789C32.211 43.3789 32.31 43.3129 32.277 43.3129C32.31 43.2799 32.4749 43.3459 32.3429 43.3789Z" fill="#443730"/>
<path d="M20.5345 13.8578C20.4686 13.6929 20.4686 13.495 20.6005 13.3631C20.9633 12.9013 21.8869 11.8458 22.9424 12.0107C24.1628 12.2086 24.9544 13.6599 24.9215 14.0557C24.8555 14.6165 23.899 15.7709 22.5796 15.738C21.5241 15.7709 20.7984 14.4186 20.5345 13.8578Z" fill="#9BBEDC"/>
<path d="M23.7766 13.9435C23.8604 13.1646 23.4585 12.4827 22.8789 12.4203C22.2993 12.3579 21.7615 12.9387 21.6776 13.7176C21.5938 14.4964 21.9958 15.1784 22.5754 15.2408C23.155 15.3032 23.6928 14.7223 23.7766 13.9435Z" fill="#1B1C1E"/>
</svg>
