<svg width="57" height="82" viewBox="0 0 57 82" fill="none" xmlns="http://www.w3.org/2000/svg">
<path d="M0.43067 79.9047C0.43067 79.9047 -1.99168 80.7558 4.65342 81.0177C11.3313 81.2795 46.5535 81.4105 50.1871 81.0177C53.8206 80.6248 60.8585 80.854 51.4964 79.9047C42.1344 78.9554 32.5105 79.5119 23.0502 78.9554C13.6227 78.3662 1.83825 78.8899 0.43067 79.9047Z" fill="#1B1C1E"/>
<path d="M44.4585 47.563L49.1723 76.4675C49.1723 76.4675 41.316 74.9618 41.0541 73.4887C40.7923 72.0157 37.9116 53.4225 37.9116 53.4225L44.4585 47.563Z" fill="#8C7265"/>
<g opacity="0.88">
<path d="M42.3306 55.5175L42.1997 55.4848C42.2652 55.452 42.2979 55.4848 42.3306 55.5175Z" fill="#322015"/>
<path d="M44.2622 53.6844C44.2952 53.6844 44.2952 53.7173 44.3282 53.7173C44.2622 53.7173 44.2622 53.6844 44.2622 53.6844Z" fill="#322015"/>
<path d="M43.6401 50.9349V50.9019H43.6731C43.7061 50.9349 43.6731 50.9349 43.6401 50.9349Z" fill="#322015"/>
<path d="M43.771 51.0657C43.804 51.0328 43.804 51.0657 43.771 51.0657V51.0657Z" fill="#322015"/>
<path d="M45.5713 50.5091L45.7022 50.5419C45.6368 50.5419 45.604 50.5419 45.5713 50.5091Z" fill="#322015"/>
<path d="M43.2471 51.0001C43.2798 51.0001 43.3125 51.0001 43.378 51.0001C43.3125 51.0329 43.2798 51.0329 43.2471 51.0001Z" fill="#322015"/>
<path d="M42.9199 53.1606C42.9529 53.1606 42.9529 53.1606 42.9859 53.1606C42.9529 53.1935 42.9199 53.1935 42.9199 53.1606Z" fill="#322015"/>
<path d="M41.9381 56.3031C41.9051 56.3031 41.9051 56.336 41.8721 56.336C41.8721 56.3031 41.9051 56.3031 41.9381 56.3031Z" fill="#322015"/>
<path d="M44.3604 53.357C44.2949 53.3243 44.2622 53.2916 44.2622 53.2916C44.2949 53.2916 44.3277 53.3243 44.3604 53.357Z" fill="#322015"/>
<path d="M43.9673 52.7354C43.9673 52.7025 43.9673 52.6696 44.0003 52.6696C44.0003 52.7025 44.0003 52.7025 43.9673 52.7354Z" fill="#322015"/>
<path d="M44.6221 52.4732C44.6548 52.4732 44.6875 52.5059 44.7203 52.5059C44.6875 52.5059 44.6548 52.5059 44.6221 52.4732Z" fill="#322015"/>
<path d="M45.0148 52.5714C44.8839 52.5059 44.8839 52.5387 44.7202 52.5059C44.8184 52.5059 44.8512 52.4405 45.0148 52.5714Z" fill="#322015"/>
<path d="M41.7741 59.6093C41.7086 59.5766 41.5777 59.5766 41.5449 59.5111L41.6759 59.4784L41.7741 59.6093Z" fill="#322015"/>
<path d="M41.6431 59.2492L41.6104 59.1183L41.9704 59.282C41.8722 59.3474 41.7085 59.1838 41.6431 59.2492Z" fill="#322015"/>
<path d="M41.6104 58.9219L41.5122 58.8892C41.5449 58.8892 41.5777 58.8892 41.6104 58.9219Z" fill="#322015"/>
<path d="M41.7413 58.9873L42.0032 59.1183H41.774L41.7413 59.0528C41.6758 58.9873 41.6431 58.9546 41.6104 58.9219L41.8068 58.9873C41.774 58.9873 41.7086 58.9873 41.7413 58.9873Z" fill="#322015"/>
<path d="M41.8071 58.9219C41.8401 58.9548 41.8401 58.9548 41.8731 58.9877C41.8401 58.9548 41.8401 58.9548 41.8071 58.9219Z" fill="#322015"/>
<path d="M41.4795 58.4636C41.545 58.5291 41.7086 58.5618 41.8068 58.6273C41.8396 58.7582 41.5122 58.5618 41.5777 58.6927C41.8396 58.6927 41.7086 58.8237 41.8068 58.9219C41.6104 58.7582 41.4795 58.6273 41.4468 58.5291L41.6104 58.5945C41.6432 58.5618 41.545 58.5291 41.4795 58.4636Z" fill="#322015"/>
<path d="M42.1014 58.2672L41.8395 58.2017C41.9377 58.2672 41.905 58.3654 42.1341 58.4963C42.0686 58.5291 41.9704 58.4636 41.905 58.4636C42.0032 58.5618 42.0686 58.6273 41.905 58.5618C41.8395 58.3327 41.774 58.3327 41.7413 58.169C41.6758 58.1363 41.6758 58.169 41.6758 58.2017L41.6104 58.0381C41.8722 58.169 41.9704 58.0708 42.1014 58.2672Z" fill="#322015"/>
<path d="M41.9705 58.0381C41.905 58.1035 41.6759 58.0053 41.5449 57.9071L41.8068 57.8744C41.8068 57.9071 41.7413 57.9399 41.9705 58.0381Z" fill="#322015"/>
<path d="M42.0358 57.9398C41.9376 57.8416 41.6757 57.678 41.9703 57.7434C41.8721 57.8089 42.2322 57.9398 42.0358 57.9398Z" fill="#322015"/>
<path d="M42.0686 57.3179L42.1668 57.5143C42.4614 57.678 42.2977 57.4816 42.4614 57.5143C42.4614 57.678 42.3959 57.5798 42.1668 57.5798C42.1668 57.6125 42.0031 57.5798 41.8722 57.5798C42.1668 57.547 41.4139 57.1869 42.0686 57.3179Z" fill="#322015"/>
<path d="M42.2325 57.7435L42.1016 57.7107L42.2325 57.678V57.7435Z" fill="#322015"/>
<path d="M41.8725 56.8596C41.5452 56.5977 42.1344 56.7942 42.0362 56.6305C42.0034 56.6305 41.9707 56.5977 41.938 56.5977L42.0034 56.5323L41.938 56.4995C42.1671 56.5977 42.2653 56.565 42.4617 56.5977C42.6581 56.7942 42.1671 56.5323 42.3963 56.6959C42.4945 56.7287 42.6581 56.7942 42.7563 56.7942C42.6254 56.7942 42.4945 56.7614 42.3635 56.7287C42.3308 56.7614 42.4617 56.8269 42.5272 56.8596C42.3635 56.8596 42.0362 56.7287 42.1017 56.8269C42.2653 56.9578 42.429 56.9251 42.2981 56.9906C41.9707 56.7942 42.2981 57.1215 42.0689 57.056C42.1016 57.1542 42.2981 57.3179 42.429 57.3506C42.1671 57.2197 41.9052 57.187 41.807 57.187H42.1017L41.807 56.9906C41.9052 56.9906 41.9052 56.9251 41.8725 56.8596Z" fill="#322015"/>
<path d="M42.4614 57.4161H42.5269L42.6251 57.4815L42.4614 57.4161Z" fill="#322015"/>
<path d="M42.9854 56.8596C42.9854 56.8923 42.8872 56.8269 42.8872 56.8269L43.0509 56.8596H42.9854Z" fill="#322015"/>
<path d="M42.8219 56.6959L42.6582 56.565L42.8219 56.5977V56.6959Z" fill="#322015"/>
<path d="M43.3454 54.8955C43.4436 54.9937 43.2145 54.8955 43.0508 54.8628C43.0508 54.7319 43.2472 54.9283 43.3454 54.8955Z" fill="#322015"/>
<path d="M44.0326 53.9135C44.1636 54.0445 43.9017 54.0117 43.9017 54.0772C43.8035 53.979 43.9017 53.9135 44.0326 53.9135Z" fill="#322015"/>
<path d="M44.5566 53.1935C44.5566 53.1935 44.5896 53.1935 44.5896 53.1606C44.6226 53.1935 44.6886 53.2264 44.5566 53.1935Z" fill="#322015"/>
<path d="M44.622 53.1279C44.6548 53.1279 44.6548 53.1279 44.6875 53.1279C44.622 53.1279 44.622 53.1606 44.622 53.1279C44.5566 53.1279 44.5238 53.1279 44.622 53.1279Z" fill="#322015"/>
<path d="M43.5093 50.0181C43.7057 50.1163 43.673 50.149 43.5748 50.149C43.6402 50.149 43.6075 50.0836 43.5093 50.0181Z" fill="#322015"/>
<path d="M45.2438 50.6401L45.2766 50.6728L44.9492 50.5746L45.2438 50.6401Z" fill="#322015"/>
<path d="M45.7022 49.8544C45.6695 49.8544 45.7022 49.8872 45.735 49.8872L45.5713 49.9199L45.7022 49.8544Z" fill="#322015"/>
<path d="M44.9165 48.054C44.6874 47.9886 44.8511 47.9558 44.8183 47.9231C44.8838 47.9558 45.1129 48.0868 44.9165 48.054Z" fill="#322015"/>
</g>
<path d="M33.3289 0.49084C33.3289 0.49084 37.1261 0.228964 40.0067 0.49084C42.8873 0.752716 44.4913 4.1571 44.4913 4.1571C44.4913 4.1571 55.0645 4.90999 55.2282 5.04093C55.3919 5.13913 56.5703 11.0968 51.3983 13.9447C47.2083 16.2361 42.7891 16.2361 42.7891 16.2361C42.7891 16.2361 42.1017 18.3966 42.0035 20.1643C41.9053 21.8992 42.6582 23.3722 43.9021 25.6964C45.146 28.0205 47.5684 33.0616 47.1101 39.0848C46.9791 40.7215 46.0953 44.486 44.8514 49.0688C44.4586 50.5091 44.033 52.0476 43.5748 53.6189C43.2801 54.6991 42.9528 55.7794 42.6254 56.8923C39.3847 68.0548 35.5875 80.0356 35.5875 80.0356C35.5875 80.0356 21.6754 80.0356 16.0778 80.0356C10.4802 80.0356 6.06105 77.5478 7.99238 65.9598C9.82551 54.8301 15.1612 47.7921 28.8442 14.9267C28.8115 14.8613 29.859 1.37467 33.3289 0.49084Z" fill="#8C7265"/>
<path d="M44.786 49.036C44.3932 50.4764 43.9676 52.0149 43.5094 53.5861C43.2147 54.6664 42.8874 55.7466 42.5601 56.8596" stroke="#1B1C1E" stroke-width="1.2604" stroke-miterlimit="10" stroke-linecap="round" stroke-linejoin="round"/>
<path d="M10.6111 64.4213C10.6111 64.4213 10.1528 69.6588 15.2921 71.6228C20.4314 73.5542 26.7492 73.4887 26.6837 80.0029" stroke="#1B1C1E" stroke-width="1.2604" stroke-miterlimit="10" stroke-linecap="round" stroke-linejoin="round"/>
<path d="M36.7984 32.3087C36.7984 32.3087 38.828 33.4544 39.9737 40.9834C41.1194 48.5123 45.2112 74.6344 45.2112 74.6344C45.2112 74.6344 53.1329 74.1761 52.7401 80.0029H30.5134L29.3022 45.337C29.335 45.3043 33.034 31.3922 36.7984 32.3087Z" fill="#8C7265"/>
<path d="M36.7983 32.3087C36.7983 32.3087 38.8279 33.4544 39.9736 40.9834C41.1193 48.5123 45.2111 74.6344 45.2111 74.6344C45.2111 74.6344 53.1328 74.1761 52.74 80.0029" stroke="#1B1C1E" stroke-width="1.2604" stroke-miterlimit="10" stroke-linecap="round" stroke-linejoin="round"/>
<path d="M33.1651 0.359897C33.1651 0.359897 34.1472 1.11279 33.8198 2.78225C33.4925 4.4517 31.5284 8.51078 31.4957 10.3766C31.4629 12.2425 32.936 17.9056 31.4957 18.7239C30.7101 19.1822 28.7133 18.9858 25.7672 15.5814C22.7883 12.177 21.7081 10.5731 23.2793 7.88882C24.8506 5.2046 30.4482 -1.63691 33.1651 0.359897Z" fill="#1B1C1E"/>
<path d="M53.4604 12.2752C53.4604 12.2752 52.151 13.5519 49.1722 13.7156C46.1934 13.8465 42.4289 13.9447 41.2832 14.9267" stroke="#1B1C1E" stroke-width="1.2604" stroke-miterlimit="10" stroke-linecap="round" stroke-linejoin="round"/>
<path d="M52.5765 4.68085C52.5765 4.68085 52.1837 6.77586 53.2312 7.56149C54.2787 8.34711 55.3917 7.75789 55.3917 7.82336C55.3917 7.82336 55.7518 6.51398 55.359 5.1064C55.3262 5.0082 55.2608 4.94273 55.1626 4.94273C54.6061 4.84453 52.773 4.64812 52.5765 4.68085Z" fill="#1B1C1E" stroke="#1B1C1E" stroke-width="1.3664" stroke-miterlimit="10" stroke-linecap="round" stroke-linejoin="round"/>
<path d="M41.0542 4.87724C41.0542 5.46646 40.6941 5.92475 40.2358 5.92475C39.7776 5.92475 39.4175 5.43373 39.4175 4.87724C39.4175 4.32076 39.7776 4.28802 40.2358 4.28802C40.6941 4.28802 41.0542 4.28802 41.0542 4.87724Z" fill="#1B1C1E"/>
<path d="M31.6264 79.9701H39.941C39.941 79.9701 41.1522 74.6017 32.1175 74.7653C32.1175 74.7653 36.7985 67.5965 35.7837 60.2312C34.7362 52.6041 26.2907 48.7087 18.6309 54.7646" fill="#8C7265"/>
<path d="M37.453 79.9701C37.453 79.9701 37.5512 78.137 36.7983 77.1877" stroke="#1B1C1E" stroke-width="1.2604" stroke-miterlimit="10" stroke-linecap="round" stroke-linejoin="round"/>
<path d="M34.6056 79.9701C34.6056 79.9701 34.5402 78.0715 33.5254 77.4496" stroke="#1B1C1E" stroke-width="1.2604" stroke-miterlimit="10" stroke-linecap="round" stroke-linejoin="round"/>
<path d="M50.3837 79.9701C50.3837 79.9701 50.4819 78.137 49.729 77.1877" stroke="#1B1C1E" stroke-width="1.2604" stroke-miterlimit="10" stroke-linecap="round" stroke-linejoin="round"/>
<path d="M48.0592 79.9701C48.0592 79.9701 47.9938 78.0715 46.979 77.4496" stroke="#1B1C1E" stroke-width="1.2604" stroke-miterlimit="10" stroke-linecap="round" stroke-linejoin="round"/>
<path d="M39.941 79.9701C39.941 79.9701 41.1522 74.6017 32.1175 74.7653C32.1175 74.7653 36.7985 67.5965 35.7837 60.2312C34.7362 52.6041 26.2907 48.7087 18.6309 54.7646" stroke="#1B1C1E" stroke-width="1.2604" stroke-miterlimit="10" stroke-linecap="round" stroke-linejoin="round"/>
<path d="M38.6646 16.0075V15.9088C38.6975 15.9417 38.6975 15.9746 38.6646 16.0075Z" fill="#322015"/>
<path d="M40.4653 16.7926C40.4653 16.8253 40.4981 16.8581 40.4981 16.9235L40.4653 16.7926Z" fill="#322015"/>
<path d="M40.2361 17.1527C40.2361 17.1856 40.2361 17.1856 40.2031 17.1856C40.2361 17.1856 40.2361 17.1856 40.2361 17.1527Z" fill="#322015"/>
<path d="M42.0688 16.2361C42.1018 16.2361 42.1018 16.2361 42.0688 16.2361C42.1018 16.3019 42.1018 16.269 42.0688 16.2361Z" fill="#322015"/>
<path d="M41.938 15.9742C41.938 16.0072 41.938 16.0401 41.938 16.073C41.971 16.0072 41.938 16.0072 41.938 15.9742Z" fill="#322015"/>
<path d="M38.0428 15.8436L38.0098 15.8107C38.0428 15.7778 38.0757 15.7778 38.0428 15.8436Z" fill="#322015"/>
<path d="M40.4976 17.1859C40.5306 17.1201 40.5306 17.1201 40.5306 17.0872C40.5306 17.1201 40.5306 17.153 40.4976 17.1859Z" fill="#322015"/>
<path d="M40.8906 16.8253C40.9236 16.8253 40.9236 16.8253 40.9566 16.8582C40.9236 16.8253 40.8906 16.8253 40.8906 16.8253Z" fill="#322015"/>
<path d="M35.6201 15.9742C35.6529 15.9088 35.6201 15.8433 35.6529 15.8106L35.6856 15.9088L35.6201 15.9742Z" fill="#322015"/>
<path d="M35.8822 15.8433L35.9804 15.8106L35.8822 16.0725C35.8167 16.0397 35.9476 15.9088 35.8822 15.8433Z" fill="#322015"/>
<path d="M36.1113 15.8109L36.1443 15.7451C36.1443 15.778 36.1443 15.8109 36.1113 15.8109Z" fill="#322015"/>
<path d="M36.0786 15.9415L36.0132 16.1379V15.9742L36.0786 15.9415C36.0786 15.876 36.1114 15.876 36.1441 15.8433L36.1114 15.9742C36.0786 15.9415 36.0786 15.9088 36.0786 15.9415Z" fill="#322015"/>
<path d="M36.1443 15.9742C36.1443 16.0072 36.1113 16.0071 36.1113 16.0401C36.1113 16.0071 36.1443 15.9742 36.1443 15.9742Z" fill="#322015"/>
<path d="M37.2896 16.3016V16.367L37.2568 16.4325L37.2896 16.3016Z" fill="#322015"/>
<path d="M37.7808 16.6289C37.7808 16.6289 37.7808 16.5635 37.8135 16.5307V16.6617L37.7808 16.6289Z" fill="#322015"/>
<path d="M39.2536 16.6617C39.1881 16.7271 39.2209 16.5635 39.2536 16.4325C39.3191 16.4325 39.2209 16.5962 39.2536 16.6617Z" fill="#322015"/>
<path d="M40.0396 17.0545C39.9742 17.1527 39.9414 16.989 39.9087 16.989C39.9742 16.8908 40.0396 16.9563 40.0396 17.0545Z" fill="#322015"/>
<path d="M40.6616 17.3163C40.6616 17.3163 40.6946 17.3163 40.6616 17.3163C40.6616 17.3493 40.6616 17.4151 40.6616 17.3163Z" fill="#322015"/>
<path d="M40.7269 17.3165V17.3494C40.6939 17.3494 40.6939 17.3494 40.7269 17.3165C40.6939 17.2836 40.6939 17.2836 40.7269 17.3165Z" fill="#322015"/>
<path d="M42.6582 15.9415C42.6582 16.1052 42.5928 16.0724 42.5928 16.0397C42.5928 16.0397 42.6255 16.007 42.6582 15.9415Z" fill="#322015"/>
<path d="M42.6582 17.2836L42.6255 17.3163V17.0872L42.6582 17.2836Z" fill="#322015"/>
<path d="M43.1167 17.3818H43.1827L43.1497 17.4476C43.1497 17.4805 43.1497 17.3818 43.1167 17.3818Z" fill="#322015"/>
<path d="M43.3458 17.3818C43.3458 17.3818 43.3458 17.3818 43.313 17.4145L43.2476 17.3163L43.3458 17.3818Z" fill="#322015"/>
<path d="M44.1968 16.2689C44.1314 16.1052 44.2296 16.2034 44.2296 16.1707C44.2623 16.2034 44.2623 16.3998 44.1968 16.2689Z" fill="#322015"/>
<path d="M32.1174 74.7981H30.186" stroke="#1B1C1E" stroke-width="1.3664" stroke-miterlimit="10" stroke-linecap="round" stroke-linejoin="round"/>
</svg>
