<svg width="25" height="22" viewBox="0 0 25 22" fill="none" xmlns="http://www.w3.org/2000/svg">
<path fill-rule="evenodd" clip-rule="evenodd" d="M10.7309 0.898757C11.2551 0.603644 11.8465 0.448608 12.448 0.448608C13.0496 0.448608 13.6409 0.603644 14.1651 0.898757C14.6893 1.19387 15.1285 1.6191 15.4405 2.13341L15.4448 2.14053L15.4448 2.14055L23.9148 16.2805L23.927 16.3013C24.2326 16.8305 24.3943 17.4305 24.396 18.0417C24.3977 18.6528 24.2394 19.2537 23.9368 19.7847C23.6341 20.3156 23.1977 20.7581 22.671 21.068C22.1443 21.3779 21.5456 21.5445 20.9345 21.5513L20.918 21.5514H3.97802L3.96153 21.5513C3.35043 21.5445 2.75174 21.3779 2.22502 21.068C1.6983 20.7581 1.26192 20.3156 0.95928 19.7847C0.656642 19.2537 0.498303 18.6528 0.500014 18.0417C0.501725 17.4305 0.663428 16.8305 0.969033 16.3013L0.981218 16.2805L9.45122 2.14055L10.738 2.91136L9.45552 2.13341C9.76749 1.6191 10.2068 1.19387 10.7309 0.898757ZM12.022 3.68693L3.56306 17.8084C3.52195 17.8823 3.50024 17.9654 3.5 18.0501C3.49976 18.1374 3.52238 18.2232 3.56561 18.2991C3.60885 18.3749 3.67119 18.4381 3.74643 18.4824C3.82011 18.5258 3.90365 18.5495 3.98905 18.5514H20.907C20.9924 18.5495 21.0759 18.5258 21.1496 18.4824C21.2249 18.4381 21.2872 18.3749 21.3304 18.2991C21.3737 18.2232 21.3963 18.1374 21.396 18.0501C21.3958 17.9654 21.3741 17.8823 21.333 17.8084L12.8755 3.68929L12.8741 3.68693C12.8296 3.61452 12.7674 3.55462 12.6933 3.51292C12.6184 3.47076 12.534 3.44861 12.448 3.44861C12.3621 3.44861 12.2776 3.47076 12.2027 3.51292C12.1286 3.55462 12.0664 3.61452 12.022 3.68693ZM10.948 16.0514C10.948 15.223 11.6196 14.5514 12.448 14.5514H12.458C13.2864 14.5514 13.958 15.223 13.958 16.0514C13.958 16.8798 13.2864 17.5514 12.458 17.5514H12.448C11.6196 17.5514 10.948 16.8798 10.948 16.0514ZM13.948 8.05139C13.948 7.22296 13.2764 6.55139 12.448 6.55139C11.6196 6.55139 10.948 7.22296 10.948 8.05139V12.0514C10.948 12.8798 11.6196 13.5514 12.448 13.5514C13.2764 13.5514 13.948 12.8798 13.948 12.0514V8.05139Z" fill="#A82525"/>
</svg>
