<svg width="24" height="24" viewBox="0 0 24 24" fill="none" xmlns="http://www.w3.org/2000/svg">
<path d="M24 12.2878C24 11.4774 23.92 10.6408 23.7866 9.85651H12.2368V14.4839H18.8519C18.5852 15.974 17.7049 17.2812 16.3979 18.1178L20.3457 21.1243C22.6663 19.0067 24 15.9217 24 12.2878Z" fill="#4280EF"/>
<path d="M12.2367 24C15.5443 24 18.3184 22.9281 20.3456 21.0981L16.3979 18.1177C15.3042 18.8498 13.8905 19.268 12.2367 19.268C9.03584 19.268 6.34175 17.1504 5.35481 14.327L1.30035 17.3857C3.38093 21.4379 7.59544 24 12.2367 24Z" fill="#34A353"/>
<path d="M5.35482 14.3008C4.84801 12.8106 4.84801 11.1898 5.35482 9.69959L1.30036 6.61469C-0.433454 10.0133 -0.433454 14.0132 1.30036 17.3857L5.35482 14.3008Z" fill="#F6B704"/>
<path d="M12.2367 4.75853C13.9705 4.73239 15.6777 5.38597 16.9314 6.56242L20.4257 3.11151C18.2117 1.07233 15.2776 -0.025687 12.2367 0.000456276C7.59543 0.000456276 3.38093 2.5625 1.30035 6.61471L5.35481 9.69962C6.34175 6.85 9.03583 4.75853 12.2367 4.75853Z" fill="#E54335"/>
</svg>
