<svg width="68" height="68" viewBox="0 0 68 68" fill="none" xmlns="http://www.w3.org/2000/svg">
<path d="M30.6667 50.6667H37.3334V30.6667H30.6667V50.6667ZM34.0001 24C34.9445 24 35.7367 23.68 36.3767 23.04C37.0145 22.4022 37.3334 21.6111 37.3334 20.6667C37.3334 19.7222 37.0145 18.93 36.3767 18.29C35.7367 17.6522 34.9445 17.3333 34.0001 17.3333C33.0556 17.3333 32.2645 17.6522 31.6267 18.29C30.9867 18.93 30.6667 19.7222 30.6667 20.6667C30.6667 21.6111 30.9867 22.4022 31.6267 23.04C32.2645 23.68 33.0556 24 34.0001 24ZM34.0001 67.3333C29.389 67.3333 25.0556 66.4578 21.0001 64.7067C16.9445 62.9578 13.4167 60.5833 10.4167 57.5833C7.41675 54.5833 5.0423 51.0555 3.29342 47C1.5423 42.9444 0.666748 38.6111 0.666748 34C0.666748 29.3889 1.5423 25.0555 3.29342 21C5.0423 16.9444 7.41675 13.4167 10.4167 10.4167C13.4167 7.41666 16.9445 5.0411 21.0001 3.28999C25.0556 1.5411 29.389 0.666656 34.0001 0.666656C38.6112 0.666656 42.9445 1.5411 47.0001 3.28999C51.0556 5.0411 54.5834 7.41666 57.5834 10.4167C60.5834 13.4167 62.9579 16.9444 64.7067 21C66.4579 25.0555 67.3334 29.3889 67.3334 34C67.3334 38.6111 66.4579 42.9444 64.7067 47C62.9579 51.0555 60.5834 54.5833 57.5834 57.5833C54.5834 60.5833 51.0556 62.9578 47.0001 64.7067C42.9445 66.4578 38.6112 67.3333 34.0001 67.3333ZM34.0001 60.6667C41.4445 60.6667 47.7501 58.0833 52.9167 52.9167C58.0834 47.75 60.6667 41.4444 60.6667 34C60.6667 26.5555 58.0834 20.25 52.9167 15.0833C47.7501 9.91666 41.4445 7.33332 34.0001 7.33332C26.5556 7.33332 20.2501 9.91666 15.0834 15.0833C9.91675 20.25 7.33341 26.5555 7.33341 34C7.33341 41.4444 9.91675 47.75 15.0834 52.9167C20.2501 58.0833 26.5556 60.6667 34.0001 60.6667Z" fill="white"/>
</svg>
