<svg width="127" height="130" viewBox="0 0 127 130" fill="none" xmlns="http://www.w3.org/2000/svg">
<path d="M8.16309 122.592H9.49023L8.89258 120.676H4.79688L4.19922 122.592H5.60547V125H0.551758V122.592H1.54492L5.1748 111.676H8.69922L12.25 122.592H13.2168V125H8.16309V122.592ZM5.49121 118.426H8.18066L6.82715 114.093L5.49121 118.426ZM19.5186 111.324H23.5V122.592H25.2754V125H20.793V124.648C20.4766 124.812 20.1514 124.941 19.8174 125.035C19.4893 125.129 19.1553 125.176 18.8154 125.176C18.1182 125.176 17.4766 125.053 16.8906 124.807C16.3105 124.555 15.8096 124.212 15.3877 123.778C14.9717 123.345 14.6465 122.838 14.4121 122.258C14.1777 121.672 14.0605 121.045 14.0605 120.377C14.0605 119.709 14.1748 119.088 14.4033 118.514C14.6377 117.934 14.96 117.43 15.3701 117.002C15.7861 116.574 16.2812 116.237 16.8555 115.991C17.4355 115.745 18.0713 115.622 18.7627 115.622C19.1436 115.622 19.501 115.66 19.835 115.736C20.1689 115.807 20.4883 115.909 20.793 116.044V113.732H19.5186V111.324ZM18.9648 122.75C19.3516 122.738 19.7002 122.639 20.0107 122.451C20.3271 122.264 20.5879 122.018 20.793 121.713V119.032C20.5879 118.722 20.3213 118.481 19.9932 118.312C19.6709 118.136 19.3281 118.051 18.9648 118.057C18.6602 118.051 18.373 118.104 18.1035 118.215C17.8398 118.326 17.6055 118.484 17.4004 118.689C17.2012 118.895 17.043 119.141 16.9258 119.428C16.8086 119.715 16.75 120.04 16.75 120.403C16.75 120.761 16.8086 121.086 16.9258 121.379C17.043 121.666 17.2012 121.912 17.4004 122.117C17.6055 122.316 17.8398 122.469 18.1035 122.574C18.373 122.68 18.6602 122.738 18.9648 122.75ZM26.3652 120.412C26.3652 119.75 26.4854 119.129 26.7256 118.549C26.9658 117.969 27.2998 117.462 27.7275 117.028C28.1553 116.595 28.665 116.252 29.2568 116C29.8486 115.748 30.499 115.622 31.208 115.622C31.917 115.622 32.5674 115.748 33.1592 116C33.7568 116.252 34.2695 116.595 34.6973 117.028C35.125 117.462 35.4561 117.969 35.6904 118.549C35.9307 119.129 36.0508 119.75 36.0508 120.412C36.0508 121.074 35.9336 121.698 35.6992 122.284C35.4707 122.864 35.1426 123.374 34.7148 123.813C34.293 124.247 33.7832 124.59 33.1855 124.842C32.5938 125.094 31.9346 125.22 31.208 125.22C30.4756 125.22 29.8105 125.094 29.2129 124.842C28.6211 124.59 28.1143 124.247 27.6924 123.813C27.2705 123.38 26.9424 122.873 26.708 122.293C26.4795 121.707 26.3652 121.08 26.3652 120.412ZM28.9932 120.412C28.9932 120.758 29.0518 121.077 29.1689 121.37C29.2861 121.657 29.4443 121.906 29.6436 122.117C29.8486 122.328 30.083 122.492 30.3467 122.609C30.6162 122.727 30.9033 122.785 31.208 122.785C31.5186 122.785 31.8057 122.729 32.0693 122.618C32.3389 122.501 32.5703 122.337 32.7637 122.126C32.9629 121.915 33.1182 121.666 33.2295 121.379C33.3408 121.086 33.3965 120.764 33.3965 120.412C33.3965 120.049 33.3408 119.721 33.2295 119.428C33.1182 119.135 32.9629 118.886 32.7637 118.681C32.5703 118.476 32.3389 118.32 32.0693 118.215C31.8057 118.104 31.5186 118.051 31.208 118.057C30.9033 118.051 30.6162 118.104 30.3467 118.215C30.083 118.32 29.8486 118.476 29.6436 118.681C29.4443 118.886 29.2861 119.135 29.1689 119.428C29.0518 119.721 28.9932 120.049 28.9932 120.412ZM40.8232 115.895H42.6426V118.197H40.8057L40.7881 122.047C40.7881 122.27 40.8057 122.451 40.8408 122.592C40.876 122.727 40.9258 122.835 40.9902 122.917C41.0605 122.999 41.1426 123.055 41.2363 123.084C41.3301 123.113 41.4385 123.128 41.5615 123.128C41.7842 123.128 41.9805 123.107 42.1504 123.066C42.3203 123.02 42.4902 122.967 42.6602 122.908L43.0381 124.604C42.7393 124.792 42.4053 124.941 42.0361 125.053C41.6729 125.164 41.2393 125.22 40.7354 125.22C40.3779 125.22 40.0352 125.158 39.707 125.035C39.3848 124.912 39.1006 124.728 38.8545 124.481C38.6084 124.229 38.4121 123.916 38.2656 123.541C38.1191 123.166 38.0488 122.729 38.0547 122.231L38.0811 118.197H36.7715V115.895H38.0898L38.1074 113.715L40.8408 112.414L40.8232 115.895ZM46.7822 121.019L46.8086 121.291C46.873 121.555 46.9814 121.786 47.1338 121.985C47.292 122.185 47.4766 122.352 47.6875 122.486C47.8984 122.621 48.1328 122.724 48.3906 122.794C48.6484 122.858 48.9092 122.891 49.1729 122.891C49.4365 122.891 49.6855 122.876 49.9199 122.847C50.1602 122.812 50.3916 122.768 50.6143 122.715C50.8369 122.656 51.0537 122.592 51.2646 122.521C51.4756 122.445 51.6895 122.366 51.9062 122.284L52.873 124.086C52.5391 124.291 52.2314 124.467 51.9502 124.613C51.6748 124.754 51.3965 124.871 51.1152 124.965C50.834 125.059 50.5352 125.126 50.2188 125.167C49.9023 125.214 49.5332 125.237 49.1113 125.237C48.3203 125.237 47.6172 125.108 47.002 124.851C46.3867 124.587 45.8682 124.232 45.4463 123.787C45.0303 123.342 44.7109 122.82 44.4883 122.223C44.2715 121.625 44.1631 120.992 44.1631 120.324C44.1631 119.656 44.2773 119.029 44.5059 118.443C44.7402 117.857 45.0684 117.348 45.4902 116.914C45.9121 116.475 46.416 116.129 47.002 115.877C47.5879 115.625 48.2383 115.499 48.9531 115.499C49.668 115.499 50.3008 115.619 50.8516 115.859C51.4082 116.094 51.877 116.422 52.2578 116.844C52.6387 117.26 52.9316 117.752 53.1367 118.32C53.3418 118.883 53.4531 119.489 53.4707 120.14C53.4883 120.286 53.4971 120.433 53.4971 120.579C53.5029 120.72 53.5 120.866 53.4883 121.019H46.7822ZM48.8828 117.696C48.5547 117.696 48.2734 117.737 48.0391 117.819C47.8105 117.896 47.6172 118.004 47.459 118.145C47.3008 118.279 47.1748 118.435 47.0811 118.61C46.9873 118.786 46.9141 118.971 46.8613 119.164H50.667C50.626 118.965 50.5674 118.777 50.4912 118.602C50.415 118.426 50.3096 118.271 50.1748 118.136C50.04 118.001 49.8672 117.896 49.6562 117.819C49.4512 117.737 49.1934 117.696 48.8828 117.696ZM65.5908 122.592H66.918L66.3203 120.676H62.2246L61.627 122.592H63.0332V125H57.9795V122.592H58.9727L62.6025 111.676H66.127L69.6777 122.592H70.6445V125H65.5908V122.592ZM62.9189 118.426H65.6084L64.2549 114.093L62.9189 118.426ZM79.0469 119.762C79.0469 119.252 78.9121 118.854 78.6426 118.566C78.373 118.273 78.0156 118.127 77.5703 118.127C77.2656 118.127 76.958 118.194 76.6475 118.329C76.3369 118.464 76.0352 118.716 75.7422 119.085V122.592H77.2188V125H71.5586V122.592H72.8945V118.303H71.5762V115.895H75.7246V116.694C76.1055 116.396 76.5303 116.161 76.999 115.991C77.4736 115.815 77.9717 115.728 78.4932 115.728C79.5889 115.728 80.4326 116.035 81.0244 116.65C81.6162 117.26 81.9121 118.153 81.9121 119.331V122.592H83.2041V125H79.0469V119.762ZM84.3906 115.895H88.4775V122.592H89.7432V125H84.3906V122.592H85.7617V118.303H84.3906V115.895ZM85.6211 112.959C85.6211 112.742 85.6592 112.54 85.7354 112.353C85.8174 112.159 85.9287 111.992 86.0693 111.852C86.21 111.711 86.374 111.6 86.5615 111.518C86.7549 111.436 86.9629 111.395 87.1855 111.395C87.3965 111.395 87.5957 111.436 87.7832 111.518C87.9707 111.6 88.1348 111.711 88.2754 111.852C88.416 111.992 88.5273 112.159 88.6094 112.353C88.6914 112.54 88.7324 112.742 88.7324 112.959C88.7324 113.176 88.6914 113.381 88.6094 113.574C88.5273 113.762 88.416 113.926 88.2754 114.066C88.1348 114.207 87.9707 114.318 87.7832 114.4C87.5957 114.482 87.3965 114.523 87.1855 114.523C86.9629 114.523 86.7549 114.482 86.5615 114.4C86.374 114.318 86.21 114.207 86.0693 114.066C85.9287 113.926 85.8174 113.762 85.7354 113.574C85.6592 113.381 85.6211 113.176 85.6211 112.959ZM91.3516 115.895H95.5176V116.686C95.8926 116.387 96.3145 116.149 96.7832 115.974C97.252 115.798 97.7354 115.71 98.2334 115.71C98.9248 115.71 99.5166 115.833 100.009 116.079C100.507 116.319 100.896 116.688 101.178 117.187C101.371 116.97 101.588 116.773 101.828 116.598C102.074 116.416 102.335 116.261 102.61 116.132C102.886 115.997 103.173 115.895 103.472 115.824C103.776 115.748 104.087 115.71 104.403 115.71C105.517 115.71 106.372 116.018 106.97 116.633C107.567 117.248 107.866 118.147 107.866 119.331V122.592H109.158V125H105.001V119.779C105.001 119.264 104.866 118.859 104.597 118.566C104.333 118.273 103.964 118.127 103.489 118.127C103.161 118.127 102.851 118.206 102.558 118.364C102.271 118.517 101.983 118.783 101.696 119.164C101.702 119.229 101.705 119.296 101.705 119.366C101.705 119.431 101.705 119.498 101.705 119.568V122.592H103.023V125H98.8662V119.762C98.8662 119.516 98.8281 119.293 98.752 119.094C98.6758 118.895 98.5703 118.725 98.4355 118.584C98.3008 118.443 98.1396 118.335 97.9521 118.259C97.7705 118.177 97.5684 118.133 97.3457 118.127C97.0527 118.121 96.748 118.186 96.4316 118.32C96.1211 118.455 95.8223 118.704 95.5352 119.067V122.592H96.9941V125H91.334V122.592H92.6875V118.303H91.3516V115.895ZM115.882 124.508C115.677 124.637 115.489 124.748 115.319 124.842C115.149 124.93 114.979 125 114.81 125.053C114.64 125.111 114.464 125.152 114.282 125.176C114.101 125.205 113.901 125.22 113.685 125.22C113.14 125.22 112.65 125.146 112.217 125C111.789 124.848 111.426 124.643 111.127 124.385C110.834 124.121 110.608 123.813 110.45 123.462C110.292 123.104 110.213 122.718 110.213 122.302C110.213 121.88 110.292 121.49 110.45 121.133C110.614 120.775 110.849 120.471 111.153 120.219C111.458 119.961 111.83 119.762 112.27 119.621C112.715 119.475 113.222 119.401 113.79 119.401C114.206 119.401 114.584 119.425 114.924 119.472C115.27 119.513 115.589 119.565 115.882 119.63V119.349C115.882 119.12 115.838 118.924 115.75 118.76C115.662 118.59 115.539 118.452 115.381 118.347C115.223 118.235 115.032 118.156 114.81 118.109C114.587 118.057 114.344 118.03 114.08 118.03C113.529 118.03 113.043 118.086 112.621 118.197C112.205 118.303 111.804 118.458 111.417 118.663L110.573 116.958C111.171 116.548 111.795 116.234 112.445 116.018C113.102 115.801 113.796 115.692 114.528 115.692C115.097 115.692 115.621 115.757 116.102 115.886C116.588 116.009 117.004 116.214 117.35 116.501C117.695 116.782 117.965 117.151 118.158 117.608C118.357 118.065 118.457 118.622 118.457 119.278V122.592H119.679V125H115.882V124.508ZM113.878 123.146C114.294 123.146 114.672 123.078 115.012 122.943C115.352 122.809 115.642 122.645 115.882 122.451V121.291H113.772C113.638 121.291 113.506 121.312 113.377 121.353C113.248 121.394 113.131 121.452 113.025 121.528C112.926 121.604 112.844 121.698 112.779 121.81C112.721 121.921 112.691 122.05 112.691 122.196C112.691 122.466 112.788 122.691 112.981 122.873C113.181 123.055 113.479 123.146 113.878 123.146ZM121.349 111.324H125.453V122.592H126.859V125H121.349V122.592H122.755V113.732H121.349V111.324Z" fill="#334155"/>
<g clip-path="url(#clip0_438_3553)">
<path fill-rule="evenodd" clip-rule="evenodd" d="M55.502 24.9885L51.4407 26.8352L55.2798 29.4176L55.502 24.9885Z" fill="#4079AC"/>
<path fill-rule="evenodd" clip-rule="evenodd" d="M88.5978 55.4406C84.866 52.9425 88.5978 55.4406 84.866 52.9425L85.0729 56.5057L88.5978 55.4406V55.4406Z" fill="#4079AC"/>
<path fill-rule="evenodd" clip-rule="evenodd" d="M59.5402 73.0728L67.7548 79.6935C62.636 84.2452 61.7241 79.0728 59.6092 87.2414C58.7893 90.3985 56.8429 96.1303 56.7433 99.4789C59.1111 99.8238 61.5402 100 64 100C76.9808 100 88.8046 95.0575 97.6935 86.9425C98.7893 85.8084 99.885 84.5747 100.981 83.2337C95.364 66.1762 84.9195 72.59 79.7318 68.8506C77.3793 67.1571 75.8697 65.7012 74.2835 63.4176C65.885 61.1264 47.9004 57.0575 39.272 55.5249C34.9962 59.4713 31.4176 65.1264 28.0843 71.6782C26.2529 75.2797 24.2375 78.3218 25.1494 81.4713C26.9808 83.7241 28.9962 85.8238 31.1877 87.7241C31.3563 87.8314 31.5326 87.931 31.7165 88.0383C42.1839 82.3678 49.5326 64.7969 59.5402 73.0728V73.0728Z" fill="#4079AC"/>
<path fill-rule="evenodd" clip-rule="evenodd" d="M114 50C114 22.3831 91.6169 0 64.0001 0C41.8162 0 23.0039 14.4521 16.4675 34.4521C16.1993 35.4176 15.9924 36.3755 15.8468 37.318L37.9004 14.2912C42.1457 9.36399 42.4062 7.44061 45.4407 7.47893C45.4407 15.0498 44.5518 13.908 50.5901 16.5594C54.2223 18.1609 56.9809 19.6169 58.4368 22.9502C64.1303 35.9694 67.7012 29.9157 71.5096 37.249C68.6744 43.1494 64.1763 46.5441 55.5786 46.7816C48.9273 46.9655 41.5326 52.1992 39.2721 55.5249C47.9004 57.0575 65.8851 61.1264 74.2836 63.4176L73.9158 60.1839C82.7434 55.7548 77.6399 47.5862 91.8775 44.1916L91.8315 36.8659C94.8353 37.8391 94.6744 38.2146 95.6552 40.1303C97.6246 40.9808 96.9503 40.3142 97.8008 42.2835C103.816 45.4636 108.115 52.5287 113.517 56.9655C113.839 54.6897 114 52.3678 114 50V50Z" fill="#94A3B8"/>
<path fill-rule="evenodd" clip-rule="evenodd" d="M54.1915 79.0268C57.6015 78.3372 54.1915 79.0268 57.6015 78.3372L55.5325 76.4981L54.1915 79.0268V79.0268Z" fill="#4079AC"/>
</g>
<defs>
<clipPath id="clip0_438_3553">
<rect width="100" height="100" fill="white" transform="translate(14)"/>
</clipPath>
</defs>
</svg>
