<svg width="119" height="130" viewBox="0 0 119 130" fill="none" xmlns="http://www.w3.org/2000/svg">
<path d="M22.8662 122.592H24.1934L23.5957 120.676H19.5L18.9023 122.592H20.3086V125H15.2549V122.592H16.248L19.8779 111.676H23.4023L26.9531 122.592H27.9199V125H22.8662V122.592ZM20.1943 118.426H22.8838L21.5303 114.093L20.1943 118.426ZM34.2217 111.324H38.2031V122.592H39.9785V125H35.4961V124.648C35.1797 124.812 34.8545 124.941 34.5205 125.035C34.1924 125.129 33.8584 125.176 33.5186 125.176C32.8213 125.176 32.1797 125.053 31.5938 124.807C31.0137 124.555 30.5127 124.212 30.0908 123.778C29.6748 123.345 29.3496 122.838 29.1152 122.258C28.8809 121.672 28.7637 121.045 28.7637 120.377C28.7637 119.709 28.8779 119.088 29.1064 118.514C29.3408 117.934 29.6631 117.43 30.0732 117.002C30.4893 116.574 30.9844 116.237 31.5586 115.991C32.1387 115.745 32.7744 115.622 33.4658 115.622C33.8467 115.622 34.2041 115.66 34.5381 115.736C34.8721 115.807 35.1914 115.909 35.4961 116.044V113.732H34.2217V111.324ZM33.668 122.75C34.0547 122.738 34.4033 122.639 34.7139 122.451C35.0303 122.264 35.291 122.018 35.4961 121.713V119.032C35.291 118.722 35.0244 118.481 34.6963 118.312C34.374 118.136 34.0312 118.051 33.668 118.057C33.3633 118.051 33.0762 118.104 32.8066 118.215C32.543 118.326 32.3086 118.484 32.1035 118.689C31.9043 118.895 31.7461 119.141 31.6289 119.428C31.5117 119.715 31.4531 120.04 31.4531 120.403C31.4531 120.761 31.5117 121.086 31.6289 121.379C31.7461 121.666 31.9043 121.912 32.1035 122.117C32.3086 122.316 32.543 122.469 32.8066 122.574C33.0762 122.68 33.3633 122.738 33.668 122.75ZM41.0684 120.412C41.0684 119.75 41.1885 119.129 41.4287 118.549C41.6689 117.969 42.0029 117.462 42.4307 117.028C42.8584 116.595 43.3682 116.252 43.96 116C44.5518 115.748 45.2021 115.622 45.9111 115.622C46.6201 115.622 47.2705 115.748 47.8623 116C48.46 116.252 48.9727 116.595 49.4004 117.028C49.8281 117.462 50.1592 117.969 50.3936 118.549C50.6338 119.129 50.7539 119.75 50.7539 120.412C50.7539 121.074 50.6367 121.698 50.4023 122.284C50.1738 122.864 49.8457 123.374 49.418 123.813C48.9961 124.247 48.4863 124.59 47.8887 124.842C47.2969 125.094 46.6377 125.22 45.9111 125.22C45.1787 125.22 44.5137 125.094 43.916 124.842C43.3242 124.59 42.8174 124.247 42.3955 123.813C41.9736 123.38 41.6455 122.873 41.4111 122.293C41.1826 121.707 41.0684 121.08 41.0684 120.412ZM43.6963 120.412C43.6963 120.758 43.7549 121.077 43.8721 121.37C43.9893 121.657 44.1475 121.906 44.3467 122.117C44.5518 122.328 44.7861 122.492 45.0498 122.609C45.3193 122.727 45.6064 122.785 45.9111 122.785C46.2217 122.785 46.5088 122.729 46.7725 122.618C47.042 122.501 47.2734 122.337 47.4668 122.126C47.666 121.915 47.8213 121.666 47.9326 121.379C48.0439 121.086 48.0996 120.764 48.0996 120.412C48.0996 120.049 48.0439 119.721 47.9326 119.428C47.8213 119.135 47.666 118.886 47.4668 118.681C47.2734 118.476 47.042 118.32 46.7725 118.215C46.5088 118.104 46.2217 118.051 45.9111 118.057C45.6064 118.051 45.3193 118.104 45.0498 118.215C44.7861 118.32 44.5518 118.476 44.3467 118.681C44.1475 118.886 43.9893 119.135 43.8721 119.428C43.7549 119.721 43.6963 120.049 43.6963 120.412ZM55.5264 115.895H57.3457V118.197H55.5088L55.4912 122.047C55.4912 122.27 55.5088 122.451 55.5439 122.592C55.5791 122.727 55.6289 122.835 55.6934 122.917C55.7637 122.999 55.8457 123.055 55.9395 123.084C56.0332 123.113 56.1416 123.128 56.2646 123.128C56.4873 123.128 56.6836 123.107 56.8535 123.066C57.0234 123.02 57.1934 122.967 57.3633 122.908L57.7412 124.604C57.4424 124.792 57.1084 124.941 56.7393 125.053C56.376 125.164 55.9424 125.22 55.4385 125.22C55.0811 125.22 54.7383 125.158 54.4102 125.035C54.0879 124.912 53.8037 124.728 53.5576 124.481C53.3115 124.229 53.1152 123.916 52.9688 123.541C52.8223 123.166 52.752 122.729 52.7578 122.231L52.7842 118.197H51.4746V115.895H52.793L52.8105 113.715L55.5439 112.414L55.5264 115.895ZM61.4854 121.019L61.5117 121.291C61.5762 121.555 61.6846 121.786 61.8369 121.985C61.9951 122.185 62.1797 122.352 62.3906 122.486C62.6016 122.621 62.8359 122.724 63.0938 122.794C63.3516 122.858 63.6123 122.891 63.876 122.891C64.1396 122.891 64.3887 122.876 64.623 122.847C64.8633 122.812 65.0947 122.768 65.3174 122.715C65.54 122.656 65.7568 122.592 65.9678 122.521C66.1787 122.445 66.3926 122.366 66.6094 122.284L67.5762 124.086C67.2422 124.291 66.9346 124.467 66.6533 124.613C66.3779 124.754 66.0996 124.871 65.8184 124.965C65.5371 125.059 65.2383 125.126 64.9219 125.167C64.6055 125.214 64.2363 125.237 63.8145 125.237C63.0234 125.237 62.3203 125.108 61.7051 124.851C61.0898 124.587 60.5713 124.232 60.1494 123.787C59.7334 123.342 59.4141 122.82 59.1914 122.223C58.9746 121.625 58.8662 120.992 58.8662 120.324C58.8662 119.656 58.9805 119.029 59.209 118.443C59.4434 117.857 59.7715 117.348 60.1934 116.914C60.6152 116.475 61.1191 116.129 61.7051 115.877C62.291 115.625 62.9414 115.499 63.6562 115.499C64.3711 115.499 65.0039 115.619 65.5547 115.859C66.1113 116.094 66.5801 116.422 66.9609 116.844C67.3418 117.26 67.6348 117.752 67.8398 118.32C68.0449 118.883 68.1562 119.489 68.1738 120.14C68.1914 120.286 68.2002 120.433 68.2002 120.579C68.2061 120.72 68.2031 120.866 68.1914 121.019H61.4854ZM63.5859 117.696C63.2578 117.696 62.9766 117.737 62.7422 117.819C62.5137 117.896 62.3203 118.004 62.1621 118.145C62.0039 118.279 61.8779 118.435 61.7842 118.61C61.6904 118.786 61.6172 118.971 61.5645 119.164H65.3701C65.3291 118.965 65.2705 118.777 65.1943 118.602C65.1182 118.426 65.0127 118.271 64.8779 118.136C64.7432 118.001 64.5703 117.896 64.3594 117.819C64.1543 117.737 63.8965 117.696 63.5859 117.696ZM69.3779 121.054V118.646H74.8887V121.054H69.3779ZM76.3301 115.895H80.4961V116.686C80.8711 116.387 81.293 116.149 81.7617 115.974C82.2305 115.798 82.7139 115.71 83.2119 115.71C83.9033 115.71 84.4951 115.833 84.9873 116.079C85.4854 116.319 85.875 116.688 86.1562 117.187C86.3496 116.97 86.5664 116.773 86.8066 116.598C87.0527 116.416 87.3135 116.261 87.5889 116.132C87.8643 115.997 88.1514 115.895 88.4502 115.824C88.7549 115.748 89.0654 115.71 89.3818 115.71C90.4951 115.71 91.3506 116.018 91.9482 116.633C92.5459 117.248 92.8447 118.147 92.8447 119.331V122.592H94.1367V125H89.9795V119.779C89.9795 119.264 89.8447 118.859 89.5752 118.566C89.3115 118.273 88.9424 118.127 88.4678 118.127C88.1396 118.127 87.8291 118.206 87.5361 118.364C87.249 118.517 86.9619 118.783 86.6748 119.164C86.6807 119.229 86.6836 119.296 86.6836 119.366C86.6836 119.431 86.6836 119.498 86.6836 119.568V122.592H88.002V125H83.8447V119.762C83.8447 119.516 83.8066 119.293 83.7305 119.094C83.6543 118.895 83.5488 118.725 83.4141 118.584C83.2793 118.443 83.1182 118.335 82.9307 118.259C82.749 118.177 82.5469 118.133 82.3242 118.127C82.0312 118.121 81.7266 118.186 81.4102 118.32C81.0996 118.455 80.8008 118.704 80.5137 119.067V122.592H81.9727V125H76.3125V122.592H77.666V118.303H76.3301V115.895ZM97.626 121.019L97.6523 121.291C97.7168 121.555 97.8252 121.786 97.9775 121.985C98.1357 122.185 98.3203 122.352 98.5312 122.486C98.7422 122.621 98.9766 122.724 99.2344 122.794C99.4922 122.858 99.7529 122.891 100.017 122.891C100.28 122.891 100.529 122.876 100.764 122.847C101.004 122.812 101.235 122.768 101.458 122.715C101.681 122.656 101.897 122.592 102.108 122.521C102.319 122.445 102.533 122.366 102.75 122.284L103.717 124.086C103.383 124.291 103.075 124.467 102.794 124.613C102.519 124.754 102.24 124.871 101.959 124.965C101.678 125.059 101.379 125.126 101.062 125.167C100.746 125.214 100.377 125.237 99.9551 125.237C99.1641 125.237 98.4609 125.108 97.8457 124.851C97.2305 124.587 96.7119 124.232 96.29 123.787C95.874 123.342 95.5547 122.82 95.332 122.223C95.1152 121.625 95.0068 120.992 95.0068 120.324C95.0068 119.656 95.1211 119.029 95.3496 118.443C95.584 117.857 95.9121 117.348 96.334 116.914C96.7559 116.475 97.2598 116.129 97.8457 115.877C98.4316 115.625 99.082 115.499 99.7969 115.499C100.512 115.499 101.145 115.619 101.695 115.859C102.252 116.094 102.721 116.422 103.102 116.844C103.482 117.26 103.775 117.752 103.98 118.32C104.186 118.883 104.297 119.489 104.314 120.14C104.332 120.286 104.341 120.433 104.341 120.579C104.347 120.72 104.344 120.866 104.332 121.019H97.626ZM99.7266 117.696C99.3984 117.696 99.1172 117.737 98.8828 117.819C98.6543 117.896 98.4609 118.004 98.3027 118.145C98.1445 118.279 98.0186 118.435 97.9248 118.61C97.8311 118.786 97.7578 118.971 97.7051 119.164H101.511C101.47 118.965 101.411 118.777 101.335 118.602C101.259 118.426 101.153 118.271 101.019 118.136C100.884 118.001 100.711 117.896 100.5 117.819C100.295 117.737 100.037 117.696 99.7266 117.696Z" fill="#334155"/>
<path fill-rule="evenodd" clip-rule="evenodd" d="M51.5019 24.9885L47.4406 26.8352L51.2797 29.4176L51.5019 24.9885Z" fill="#4079AC"/>
<path fill-rule="evenodd" clip-rule="evenodd" d="M84.5977 55.4406C80.8659 52.9425 84.5977 55.4406 80.8659 52.9425L81.0728 56.5057L84.5977 55.4406Z" fill="#4079AC"/>
<path fill-rule="evenodd" clip-rule="evenodd" d="M55.5402 73.0728L63.7548 79.6935C58.636 84.2452 57.7241 79.0728 55.6092 87.2414C54.7893 90.3985 52.8429 96.1303 52.7433 99.4789C55.1111 99.8238 57.5402 100 60 100C72.9808 100 84.8046 95.0575 93.6935 86.9425C94.7893 85.8084 95.885 84.5747 96.9808 83.2337C91.364 66.1762 80.9195 72.59 75.7318 68.8506C73.3793 67.1571 71.8697 65.7012 70.2835 63.4176C61.885 61.1264 43.9004 57.0575 35.272 55.5249C30.9962 59.4713 27.4176 65.1264 24.0843 71.6782C22.2529 75.2797 20.2375 78.3218 21.1494 81.4713C22.9808 83.7241 24.9962 85.8238 27.1877 87.7241C27.3563 87.8314 27.5326 87.931 27.7165 88.0383C38.1839 82.3678 45.5326 64.7969 55.5402 73.0728Z" fill="#4079AC"/>
<path fill-rule="evenodd" clip-rule="evenodd" d="M110 50C110 22.3831 87.6169 0 60 0C37.8161 0 19.0038 14.4521 12.4674 34.4521C12.1992 35.4176 11.9923 36.3755 11.8467 37.318L33.9004 14.2912C38.1456 9.36399 38.4061 7.44061 41.4406 7.47893C41.4406 15.0498 40.5517 13.908 46.59 16.5594C50.2222 18.1609 52.9808 19.6169 54.4368 22.9502C60.1303 35.9694 63.7011 29.9157 67.5096 37.249C64.6743 43.1494 60.1762 46.5441 51.5785 46.7816C44.9272 46.9655 37.5326 52.1992 35.272 55.5249C43.9004 57.0575 61.8851 61.1264 70.2835 63.4176L69.9157 60.1839C78.7433 55.7548 73.6398 47.5862 87.8774 44.1916L87.8314 36.8659C90.8353 37.8391 90.6743 38.2146 91.6552 40.1303C93.6245 40.9808 92.9502 40.3142 93.8008 42.2835C99.8161 45.4636 104.115 52.5287 109.517 56.9655C109.839 54.6897 110 52.3678 110 50Z" fill="#94A3B8"/>
<path fill-rule="evenodd" clip-rule="evenodd" d="M50.1916 79.0268C53.6015 78.3372 50.1916 79.0268 53.6015 78.3372L51.5326 76.4981L50.1916 79.0268Z" fill="#4079AC"/>
</svg>
