<svg width="20" height="20" viewBox="0 0 20 20" fill="none" xmlns="http://www.w3.org/2000/svg">
<path d="M9.026 9.09091H10.9366V2.72727C10.9366 2.4697 10.8452 2.25364 10.6624 2.07909C10.479 1.90515 10.2519 1.81818 9.98128 1.81818C9.71061 1.81818 9.48389 1.90515 9.30112 2.07909C9.1177 2.25364 9.026 2.4697 9.026 2.72727V9.09091ZM3.29431 12.7273H16.6682V10.9091H3.29431V12.7273ZM1.90916 18.1818H4.24959V16.3636C4.24959 16.1061 4.34098 15.8903 4.52376 15.7164C4.70717 15.5418 4.93421 15.4545 5.20487 15.4545C5.47554 15.4545 5.70258 15.5418 5.88599 15.7164C6.06877 15.8903 6.16015 16.1061 6.16015 16.3636V18.1818H9.026V16.3636C9.026 16.1061 9.1177 15.8903 9.30112 15.7164C9.48389 15.5418 9.71061 15.4545 9.98128 15.4545C10.2519 15.4545 10.479 15.5418 10.6624 15.7164C10.8452 15.8903 10.9366 16.1061 10.9366 16.3636V18.1818H13.8024V16.3636C13.8024 16.1061 13.8941 15.8903 14.0775 15.7164C14.2603 15.5418 14.487 15.4545 14.7577 15.4545C15.0283 15.4545 15.2551 15.5418 15.4378 15.7164C15.6213 15.8903 15.713 16.1061 15.713 16.3636V18.1818H18.0534L17.0981 14.5455H2.86444L1.90916 18.1818ZM18.0534 20H1.90916C1.28822 20 0.786702 19.7652 0.404589 19.2955C0.0224772 18.8258 -0.0889722 18.303 0.0702412 17.7273L1.38375 12.7273V10.9091C1.38375 10.4091 1.57067 9.98091 1.9445 9.62455C2.31897 9.26879 2.76891 9.09091 3.29431 9.09091H7.11544V2.72727C7.11544 1.9697 7.39406 1.32576 7.95131 0.795455C8.50855 0.265152 9.18521 0 9.98128 0C10.7773 0 11.454 0.265152 12.0112 0.795455C12.5685 1.32576 12.8471 1.9697 12.8471 2.72727V9.09091H16.6682C17.1936 9.09091 17.6436 9.26879 18.0181 9.62455C18.3919 9.98091 18.5788 10.4091 18.5788 10.9091V12.7273L19.8923 17.7273C20.0993 18.303 20.0079 18.8258 19.6181 19.2955C19.2278 19.7652 18.7062 20 18.0534 20Z" fill="#4079AC"/>
</svg>
