<svg width="78" height="138" viewBox="0 0 78 138" fill="none" xmlns="http://www.w3.org/2000/svg">
<g clip-path="url(#clip0_134_894)">
<path d="M60.5801 129.498H19.1899C17.6817 129.498 16.1881 129.203 14.7947 128.629C13.4012 128.054 12.1351 127.212 11.0686 126.151C10.002 125.09 9.15604 123.83 8.57885 122.444C8.00166 121.057 7.70458 119.571 7.70459 118.07V11.4281C7.70804 8.3982 8.9192 5.49342 11.0724 3.35099C13.2255 1.20856 16.1449 0.00342995 19.1899 0H60.5799C63.625 0.00342055 66.5443 1.20854 68.6975 3.35098C70.8507 5.49341 72.0619 8.39819 72.0653 11.4281V30.6894H72.7784V44.881H72.0653V118.07C72.0653 121.101 70.8552 124.008 68.7014 126.151C66.5475 128.294 63.6262 129.498 60.5801 129.498ZM19.1899 0.354898C16.2394 0.358213 13.4108 1.52591 11.3245 3.60181C9.23815 5.67771 8.0646 8.49229 8.06127 11.4281V118.07C8.06125 119.525 8.34908 120.964 8.90834 122.308C9.4676 123.651 10.2873 124.872 11.3207 125.9C12.3541 126.929 13.5809 127.744 14.9311 128.301C16.2813 128.857 17.7284 129.144 19.1899 129.144H60.5799C63.5314 129.144 66.362 127.977 68.4491 125.9C70.5361 123.824 71.7086 121.007 71.7086 118.071V44.5261H72.4218V31.0442H71.7086V11.4281C71.7053 8.49229 70.5317 5.67771 68.4454 3.60181C66.3591 1.52591 63.5304 0.358214 60.58 0.354898H19.1899Z" fill="#3F3D56"/>
<path d="M61.036 126.572H19.4474C17.1613 126.569 14.9697 125.664 13.3532 124.056C11.7367 122.447 10.8274 120.267 10.8247 117.992V11.5065C10.8274 9.23188 11.7367 7.05114 13.3532 5.4427C14.9697 3.83427 17.1613 2.9295 19.4474 2.92686H24.7577L24.6578 3.1712C24.4209 3.75043 24.3307 4.37871 24.3951 5.00077C24.4595 5.62283 24.6766 6.21961 25.0272 6.73862C25.3777 7.25763 25.8511 7.68296 26.4057 7.9772C26.9603 8.27144 27.579 8.42558 28.2075 8.42606H51.9193C52.5478 8.42556 53.1665 8.27141 53.721 7.97716C54.2756 7.68291 54.749 7.25757 55.0996 6.73857C55.4501 6.21956 55.6672 5.62279 55.7316 5.00074C55.796 4.37869 55.7058 3.75043 55.4689 3.1712L55.369 2.92686H61.036C63.322 2.92951 65.5137 3.83429 67.1302 5.44272C68.7467 7.05115 69.656 9.23189 69.6586 11.5065V117.992C69.656 120.267 68.7467 122.447 67.1302 124.056C65.5137 125.664 63.322 126.569 61.036 126.572ZM19.4474 3.28176C17.2559 3.28428 15.1549 4.15163 13.6052 5.69353C12.0556 7.23543 11.1839 9.32597 11.1814 11.5065V117.992C11.1839 120.173 12.0556 122.263 13.6053 123.805C15.1549 125.347 17.2559 126.214 19.4474 126.217H61.036C63.2275 126.214 65.3285 125.347 66.8781 123.805C68.4277 122.263 69.2994 120.173 69.3019 117.992V11.5065C69.2994 9.32598 68.4277 7.23544 66.8781 5.69354C65.3285 4.15164 63.2275 3.28429 61.036 3.28176H55.8905C56.1021 3.90883 56.1608 4.57698 56.0617 5.23107C55.9627 5.88515 55.7087 6.50643 55.3208 7.04361C54.9329 7.58079 54.4222 8.01849 53.8307 8.32057C53.2393 8.62265 52.5842 8.78045 51.9194 8.78095H28.2074C27.5426 8.78046 26.8874 8.62267 26.296 8.32059C25.7046 8.01852 25.1938 7.58083 24.8059 7.04365C24.418 6.50647 24.164 5.88519 24.0649 5.2311C23.9658 4.577 24.0245 3.90884 24.2361 3.28176H19.4474Z" fill="#CCCCCC"/>
<path d="M74.233 69.3412H3.76705C2.76831 69.34 1.8108 68.9448 1.10458 68.2421C0.398366 67.5394 0.00112389 66.5867 0 65.5929V43.1034C0.00112389 42.1096 0.398366 41.1569 1.10458 40.4542C1.8108 39.7515 2.76831 39.3562 3.76705 39.3551H74.233C75.2317 39.3562 76.1892 39.7515 76.8954 40.4542C77.6016 41.1569 77.9989 42.1096 78 43.1034V65.5929C77.9989 66.5867 77.6016 67.5394 76.8954 68.2421C76.1892 68.9448 75.2317 69.34 74.233 69.3412Z" fill="white"/>
<path d="M74.233 69.3412H3.76705C2.76831 69.34 1.8108 68.9448 1.10458 68.2421C0.398366 67.5394 0.00112389 66.5867 0 65.5929V43.1034C0.00112389 42.1096 0.398366 41.1569 1.10458 40.4542C1.8108 39.7515 2.76831 39.3562 3.76705 39.3551H74.233C75.2317 39.3562 76.1892 39.7515 76.8954 40.4542C77.6016 41.1569 77.9989 42.1096 78 43.1034V65.5929C77.9989 66.5867 77.6016 67.5394 76.8954 68.2421C76.1892 68.9448 75.2317 69.34 74.233 69.3412ZM3.76705 39.7961C2.88581 39.7971 2.04095 40.1458 1.41782 40.7659C0.794693 41.3859 0.444179 42.2265 0.44318 43.1034V65.5929C0.444179 66.4697 0.794693 67.3104 1.41782 67.9304C2.04095 68.5504 2.88581 68.8992 3.76705 68.9002H74.233C75.1142 68.8992 75.9591 68.5504 76.5822 67.9304C77.2053 67.3104 77.5558 66.4697 77.5568 65.5929V43.1034C77.5558 42.2265 77.2053 41.3859 76.5822 40.7659C75.9591 40.1458 75.1142 39.7971 74.233 39.7961H3.76705Z" fill="#3F3D56"/>
<path d="M48.2404 53.1355H23.6438C23.1737 53.1355 22.7228 52.9496 22.3903 52.6188C22.0579 52.288 21.8711 51.8394 21.8711 51.3716C21.8711 50.9038 22.0579 50.4551 22.3903 50.1243C22.7228 49.7935 23.1737 49.6077 23.6438 49.6077H48.2404C48.7106 49.6077 49.1615 49.7935 49.4939 50.1243C49.8264 50.4551 50.0131 50.9038 50.0131 51.3716C50.0131 51.8394 49.8264 52.288 49.4939 52.6188C49.1615 52.9496 48.7106 53.1355 48.2404 53.1355Z" fill="#4079AC"/>
<path d="M71.0643 59.0886H23.6438C23.1737 59.0886 22.7228 58.9027 22.3903 58.5719C22.0579 58.2412 21.8711 57.7925 21.8711 57.3247C21.8711 56.8569 22.0579 56.4082 22.3903 56.0774C22.7228 55.7466 23.1737 55.5608 23.6438 55.5608H71.0643C71.5344 55.5608 71.9853 55.7466 72.3178 56.0774C72.6502 56.4082 72.837 56.8569 72.837 57.3247C72.837 57.7925 72.6502 58.2412 72.3178 58.5719C71.9853 58.9027 71.5344 59.0886 71.0643 59.0886Z" fill="#4079AC"/>
<path d="M11.8108 60.9627C15.4823 60.9627 18.4585 58.0013 18.4585 54.3481C18.4585 50.695 15.4823 47.7336 11.8108 47.7336C8.13938 47.7336 5.16309 50.695 5.16309 54.3481C5.16309 58.0013 8.13938 60.9627 11.8108 60.9627Z" fill="#4079AC"/>
<path d="M71.0617 66.2544H64.8572C64.387 66.2544 63.9361 66.0685 63.6037 65.7377C63.2712 65.4069 63.0845 64.9583 63.0845 64.4905C63.0845 64.0227 63.2712 63.574 63.6037 63.2432C63.9361 62.9124 64.387 62.7266 64.8572 62.7266H71.0617C71.2945 62.7266 71.5251 62.7722 71.7401 62.8609C71.9552 62.9495 72.1506 63.0794 72.3153 63.2432C72.4799 63.407 72.6104 63.6015 72.6995 63.8155C72.7886 64.0295 72.8345 64.2588 72.8345 64.4905C72.8345 64.7221 72.7886 64.9515 72.6995 65.1655C72.6104 65.3795 72.4799 65.5739 72.3153 65.7377C72.1506 65.9015 71.9552 66.0315 71.7401 66.1201C71.5251 66.2087 71.2945 66.2544 71.0617 66.2544Z" fill="white"/>
<path d="M71.0617 66.2544H64.8572C64.387 66.2544 63.9361 66.0685 63.6037 65.7377C63.2712 65.4069 63.0845 64.9583 63.0845 64.4905C63.0845 64.0227 63.2712 63.574 63.6037 63.2432C63.9361 62.9124 64.387 62.7266 64.8572 62.7266H71.0617C71.2945 62.7266 71.5251 62.7722 71.7401 62.8609C71.9552 62.9495 72.1506 63.0794 72.3153 63.2432C72.4799 63.407 72.6104 63.6015 72.6995 63.8155C72.7886 64.0295 72.8345 64.2588 72.8345 64.4905C72.8345 64.7221 72.7886 64.9515 72.6995 65.1655C72.6104 65.3795 72.4799 65.5739 72.3153 65.7377C72.1506 65.9015 71.9552 66.0315 71.7401 66.1201C71.5251 66.2087 71.2945 66.2544 71.0617 66.2544Z" fill="#CCCCCC"/>
<path d="M60.3882 33.5892H21.1782C20.6224 33.5886 20.0896 33.3686 19.6967 32.9776C19.3037 32.5866 19.0827 32.0565 19.082 31.5035V18.9894C19.0827 18.4365 19.3037 17.9063 19.6967 17.5153C20.0896 17.1243 20.6224 16.9044 21.1782 16.9037H60.3882C60.9439 16.9044 61.4767 17.1243 61.8697 17.5153C62.2627 17.9063 62.4837 18.4365 62.4843 18.9894V31.5035C62.4837 32.0565 62.2627 32.5866 61.8697 32.9776C61.4767 33.3686 60.9439 33.5886 60.3882 33.5892ZM21.1782 17.1491C20.6878 17.1497 20.2177 17.3437 19.871 17.6887C19.5242 18.0337 19.3292 18.5015 19.3286 18.9894V31.5035C19.3292 31.9914 19.5242 32.4592 19.871 32.8042C20.2177 33.1492 20.6878 33.3432 21.1782 33.3438H60.3882C60.8786 33.3432 61.3487 33.1492 61.6954 32.8042C62.0421 32.4592 62.2372 31.9914 62.2377 31.5035V18.9894C62.2372 18.5015 62.0421 18.0337 61.6954 17.6887C61.3487 17.3437 60.8786 17.1497 60.3882 17.1491H21.1782Z" fill="#CCCCCC"/>
<path d="M45.925 24.5717H32.2385C31.9771 24.5713 31.7266 24.4678 31.5419 24.2837C31.3572 24.0997 31.2534 23.8503 31.2534 23.5902C31.2534 23.3301 31.3572 23.0807 31.5419 22.8966C31.7266 22.7126 31.9771 22.609 32.2385 22.6087H45.925C46.1864 22.609 46.437 22.7126 46.6217 22.8966C46.8064 23.0807 46.9101 23.3301 46.9101 23.5902C46.9101 23.8503 46.8064 24.0997 46.6217 24.2837C46.437 24.4678 46.1864 24.5713 45.925 24.5717Z" fill="#E6E6E6"/>
<path d="M58.6251 27.8842H32.2385C31.9771 27.8839 31.7266 27.7803 31.5419 27.5963C31.3572 27.4123 31.2534 27.1628 31.2534 26.9027C31.2534 26.6427 31.3572 26.3932 31.5419 26.2092C31.7266 26.0252 31.9771 25.9216 32.2385 25.9213H58.6251C58.7548 25.9211 58.8832 25.9463 59.003 25.9956C59.1229 26.0448 59.2318 26.1171 59.3235 26.2083C59.4152 26.2994 59.488 26.4077 59.5377 26.5268C59.5873 26.646 59.6129 26.7737 59.6129 26.9027C59.6129 27.0317 59.5873 27.1595 59.5377 27.2787C59.488 27.3978 59.4152 27.5061 59.3235 27.5972C59.2318 27.6884 59.1229 27.7607 59.003 27.8099C58.8832 27.8592 58.7548 27.8844 58.6251 27.8842Z" fill="#E6E6E6"/>
<path d="M25.6541 28.9271C27.6971 28.9271 29.3532 27.2792 29.3532 25.2465C29.3532 23.2137 27.6971 21.5659 25.6541 21.5659C23.6112 21.5659 21.9551 23.2137 21.9551 25.2465C21.9551 27.2792 23.6112 28.9271 25.6541 28.9271Z" fill="#E6E6E6"/>
<path d="M58.6238 31.8716H55.1713C55.0417 31.8717 54.9133 31.8465 54.7934 31.7972C54.6736 31.748 54.5647 31.6757 54.473 31.5846C54.3812 31.4934 54.3085 31.3851 54.2588 31.266C54.2092 31.1468 54.1836 31.0191 54.1836 30.8901C54.1836 30.7611 54.2092 30.6333 54.2588 30.5142C54.3085 30.395 54.3812 30.2867 54.473 30.1956C54.5647 30.1044 54.6736 30.0322 54.7934 29.9829C54.9133 29.9337 55.0417 29.9084 55.1713 29.9086H58.6238C58.8852 29.9089 59.1357 30.0125 59.3204 30.1965C59.5051 30.3805 59.6089 30.63 59.6089 30.8901C59.6089 31.1501 59.5051 31.3996 59.3204 31.5836C59.1357 31.7676 58.8852 31.8712 58.6238 31.8716Z" fill="white"/>
<path d="M58.6238 31.8716H55.1713C55.0417 31.8717 54.9133 31.8465 54.7934 31.7972C54.6736 31.748 54.5647 31.6757 54.473 31.5846C54.3812 31.4934 54.3085 31.3851 54.2588 31.266C54.2092 31.1468 54.1836 31.0191 54.1836 30.8901C54.1836 30.7611 54.2092 30.6333 54.2588 30.5142C54.3085 30.395 54.3812 30.2867 54.473 30.1956C54.5647 30.1044 54.6736 30.0322 54.7934 29.9829C54.9133 29.9337 55.0417 29.9084 55.1713 29.9086H58.6238C58.8852 29.9089 59.1357 30.0125 59.3204 30.1965C59.5051 30.3805 59.6089 30.63 59.6089 30.8901C59.6089 31.1501 59.5051 31.3996 59.3204 31.5836C59.1357 31.7676 58.8852 31.8712 58.6238 31.8716Z" fill="#CCCCCC"/>
<path d="M60.3882 91.4376H21.1782C20.6224 91.437 20.0896 91.2171 19.6967 90.826C19.3037 90.435 19.0827 89.9049 19.082 89.3519V76.8379C19.0827 76.2849 19.3037 75.7548 19.6967 75.3638C20.0896 74.9727 20.6224 74.7528 21.1782 74.7522H60.3882C60.9439 74.7528 61.4767 74.9727 61.8697 75.3638C62.2627 75.7548 62.4837 76.2849 62.4843 76.8379V89.3519C62.4837 89.9049 62.2627 90.435 61.8697 90.826C61.4767 91.2171 60.9439 91.437 60.3882 91.4376ZM21.1782 74.9976C20.6878 74.9981 20.2177 75.1922 19.871 75.5372C19.5242 75.8822 19.3292 76.3499 19.3286 76.8379V89.3519C19.3292 89.8398 19.5242 90.3076 19.871 90.6526C20.2177 90.9976 20.6878 91.1917 21.1782 91.1922H60.3882C60.8786 91.1917 61.3487 90.9976 61.6954 90.6526C62.0421 90.3076 62.2372 89.8398 62.2377 89.3519V76.8379C62.2372 76.3499 62.0421 75.8822 61.6954 75.5372C61.3487 75.1922 60.8786 74.9981 60.3882 74.9976H21.1782Z" fill="#CCCCCC"/>
<path d="M45.9254 82.4201H32.2389C31.9772 82.4201 31.7263 82.3167 31.5414 82.1326C31.3564 81.9486 31.2524 81.6989 31.2524 81.4386C31.2524 81.1783 31.3564 80.9287 31.5414 80.7446C31.7263 80.5605 31.9772 80.4571 32.2389 80.4571H45.9254C46.1868 80.4575 46.4373 80.561 46.622 80.7451C46.8067 80.9291 46.9105 81.1785 46.9105 81.4386C46.9105 81.6987 46.8067 81.9481 46.622 82.1322C46.4373 82.3162 46.1868 82.4198 45.9254 82.4201Z" fill="#E6E6E6"/>
<path d="M58.6251 85.7327H32.2385C31.9771 85.7323 31.7266 85.6288 31.5419 85.4447C31.3572 85.2607 31.2534 85.0113 31.2534 84.7512C31.2534 84.4911 31.3572 84.2417 31.5419 84.0576C31.7266 83.8736 31.9771 83.77 32.2385 83.7697H58.6251C58.8868 83.7697 59.1377 83.8731 59.3226 84.0572C59.5076 84.2412 59.6116 84.4909 59.6116 84.7512C59.6116 85.0115 59.5076 85.2611 59.3226 85.4452C59.1377 85.6293 58.8868 85.7327 58.6251 85.7327Z" fill="#E6E6E6"/>
<path d="M25.6541 86.7755C27.6971 86.7755 29.3532 85.1276 29.3532 83.0949C29.3532 81.0622 27.6971 79.4143 25.6541 79.4143C23.6112 79.4143 21.9551 81.0622 21.9551 83.0949C21.9551 85.1276 23.6112 86.7755 25.6541 86.7755Z" fill="#E6E6E6"/>
<path d="M58.6239 89.72H55.1715C54.9099 89.72 54.659 89.6166 54.474 89.4325C54.289 89.2485 54.1851 88.9988 54.1851 88.7385C54.1851 88.4782 54.289 88.2285 54.474 88.0445C54.659 87.8604 54.9099 87.757 55.1715 87.757H58.6239C58.8853 87.7574 59.1359 87.8609 59.3206 88.0449C59.5053 88.229 59.609 88.4784 59.609 88.7385C59.609 88.9986 59.5053 89.248 59.3206 89.4321C59.1359 89.6161 58.8853 89.7196 58.6239 89.72Z" fill="white"/>
<path d="M58.6239 89.72H55.1715C54.9099 89.72 54.659 89.6166 54.474 89.4325C54.289 89.2485 54.1851 88.9988 54.1851 88.7385C54.1851 88.4782 54.289 88.2285 54.474 88.0445C54.659 87.8604 54.9099 87.757 55.1715 87.757H58.6239C58.8853 87.7574 59.1359 87.8609 59.3206 88.0449C59.5053 88.229 59.609 88.4784 59.609 88.7385C59.609 88.9986 59.5053 89.248 59.3206 89.4321C59.1359 89.6161 58.8853 89.7196 58.6239 89.72Z" fill="#CCCCCC"/>
<path d="M60.3882 114.683H21.1782C20.6224 114.683 20.0896 114.463 19.6967 114.072C19.3037 113.681 19.0827 113.151 19.082 112.598V100.084C19.0827 99.5308 19.3037 99.0006 19.6967 98.6096C20.0896 98.2186 20.6224 97.9987 21.1782 97.998H60.3882C60.9439 97.9987 61.4767 98.2186 61.8697 98.6096C62.2627 99.0006 62.4837 99.5308 62.4843 100.084V112.598C62.4837 113.151 62.2627 113.681 61.8697 114.072C61.4767 114.463 60.9439 114.683 60.3882 114.683ZM21.1782 98.2434C20.6878 98.244 20.2177 98.438 19.871 98.783C19.5242 99.128 19.3292 99.5958 19.3286 100.084V112.598C19.3292 113.086 19.5242 113.553 19.871 113.898C20.2177 114.243 20.6878 114.438 21.1782 114.438H60.3882C60.8786 114.438 61.3487 114.243 61.6954 113.898C62.0421 113.553 62.2372 113.086 62.2377 112.598V100.084C62.2372 99.5958 62.0421 99.128 61.6954 98.783C61.3487 98.438 60.8786 98.244 60.3882 98.2434H21.1782Z" fill="#CCCCCC"/>
<path d="M45.9254 105.666H32.2389C31.9772 105.666 31.7263 105.563 31.5414 105.378C31.3564 105.194 31.2524 104.945 31.2524 104.684C31.2524 104.424 31.3564 104.175 31.5414 103.99C31.7263 103.806 31.9772 103.703 32.2389 103.703H45.9254C46.1868 103.703 46.4373 103.807 46.622 103.991C46.8067 104.175 46.9105 104.424 46.9105 104.684C46.9105 104.945 46.8067 105.194 46.622 105.378C46.4373 105.562 46.1868 105.666 45.9254 105.666Z" fill="#E6E6E6"/>
<path d="M58.6251 108.979H32.2385C31.9771 108.978 31.7266 108.875 31.5419 108.691C31.3572 108.507 31.2534 108.257 31.2534 107.997C31.2534 107.737 31.3572 107.487 31.5419 107.303C31.7266 107.119 31.9771 107.016 32.2385 107.016H58.6251C58.8868 107.016 59.1377 107.119 59.3226 107.303C59.5076 107.487 59.6116 107.737 59.6116 107.997C59.6116 108.257 59.5076 108.507 59.3226 108.691C59.1377 108.875 58.8868 108.979 58.6251 108.979Z" fill="#E6E6E6"/>
<path d="M25.6541 110.021C27.6971 110.021 29.3532 108.373 29.3532 106.341C29.3532 104.308 27.6971 102.66 25.6541 102.66C23.6112 102.66 21.9551 104.308 21.9551 106.341C21.9551 108.373 23.6112 110.021 25.6541 110.021Z" fill="#E6E6E6"/>
<path d="M58.6239 112.966H55.1715C54.9099 112.966 54.659 112.862 54.474 112.678C54.289 112.494 54.1851 112.245 54.1851 111.984C54.1851 111.724 54.289 111.474 54.474 111.29C54.659 111.106 54.9099 111.003 55.1715 111.003H58.6239C58.8853 111.003 59.1359 111.107 59.3206 111.291C59.5053 111.475 59.609 111.724 59.609 111.984C59.609 112.244 59.5053 112.494 59.3206 112.678C59.1359 112.862 58.8853 112.966 58.6239 112.966Z" fill="white"/>
<path d="M58.6239 112.966H55.1715C54.9099 112.966 54.659 112.862 54.474 112.678C54.289 112.494 54.1851 112.245 54.1851 111.984C54.1851 111.724 54.289 111.474 54.474 111.29C54.659 111.106 54.9099 111.003 55.1715 111.003H58.6239C58.8853 111.003 59.1359 111.107 59.3206 111.291C59.5053 111.475 59.609 111.724 59.609 111.984C59.609 112.244 59.5053 112.494 59.3206 112.678C59.1359 112.862 58.8853 112.966 58.6239 112.966Z" fill="#CCCCCC"/>
<path d="M35.9632 135.891H38.1497L39.1897 127.5L35.9629 127.5L35.9632 135.891Z" fill="#FFB8B8"/>
<path d="M35.4053 135.181L39.711 135.181H39.7112C40.0716 135.181 40.4284 135.251 40.7613 135.389C41.0942 135.526 41.3967 135.727 41.6515 135.98C41.9063 136.234 42.1085 136.535 42.2464 136.866C42.3843 137.197 42.4552 137.552 42.4552 137.911V138L35.4054 138L35.4053 135.181Z" fill="#2F2E41"/>
<path d="M27.2245 135.891H29.4109L30.451 127.5L27.2241 127.5L27.2245 135.891Z" fill="#FFB8B8"/>
<path d="M26.667 135.181L30.9728 135.181H30.973C31.3333 135.181 31.6901 135.251 32.023 135.389C32.3559 135.526 32.6584 135.727 32.9133 135.98C33.1681 136.234 33.3702 136.535 33.5081 136.866C33.646 137.197 33.717 137.552 33.717 137.911V138L26.6671 138L26.667 135.181Z" fill="#2F2E41"/>
<path d="M36.3997 77.7977C38.8188 77.7977 40.7799 75.8464 40.7799 73.4393C40.7799 71.0323 38.8188 69.081 36.3997 69.081C33.9806 69.081 32.0195 71.0323 32.0195 73.4393C32.0195 75.8464 33.9806 77.7977 36.3997 77.7977Z" fill="#FFB8B8"/>
<path d="M39.3452 134.08H35.2879C35.1817 134.08 35.0765 134.059 34.9785 134.018C34.8805 133.978 34.7916 133.918 34.717 133.843C34.6424 133.768 34.5835 133.678 34.5437 133.58C34.504 133.482 34.4842 133.378 34.4855 133.272L34.7212 114.102C34.7221 114.034 34.6967 113.968 34.6502 113.918C34.6038 113.868 34.5399 113.837 34.4716 113.833C34.4033 113.828 34.3359 113.85 34.2831 113.893C34.2304 113.937 34.1964 113.999 34.1882 114.066L31.8268 133.378C31.803 133.572 31.7088 133.75 31.5621 133.879C31.4154 134.008 31.2262 134.08 31.0302 134.08H26.9339C26.8232 134.08 26.7138 134.057 26.6124 134.013C26.511 133.969 26.4198 133.905 26.3447 133.824C26.2695 133.743 26.212 133.648 26.1757 133.544C26.1394 133.439 26.1252 133.329 26.1338 133.219L28.8387 98.7809L28.9123 98.7729L41.8648 97.381L40.1469 133.32C40.1373 133.525 40.0486 133.718 39.8993 133.86C39.75 134.001 39.5515 134.08 39.3452 134.08Z" fill="#2F2E41"/>
<path d="M28.9962 100.895C28.7881 100.895 28.5883 100.814 28.4391 100.669C28.2899 100.525 28.2029 100.329 28.1965 100.122C28.1258 97.9441 28.0046 90.4094 29.4131 84.8778C29.7975 83.3667 30.6604 82.0188 31.8741 81.0333C33.0879 80.0478 34.5881 79.4771 36.153 79.4055C37.6933 79.3218 39.221 79.7228 40.5194 80.5517C41.8177 81.3806 42.8208 82.5952 43.3862 84.0233C45.7537 90.0039 47.9905 97.3757 45.2019 98.5319C41.5468 100.047 31.9115 100.723 29.0454 100.893C29.0289 100.894 29.0125 100.895 28.9962 100.895Z" fill="#4079AC"/>
<path d="M45.737 69.0343C45.8059 69.1047 45.8802 69.1696 45.9593 69.2283L45.4995 78.0167L43.5869 78.991L44.6874 82.0551L48.2416 80.6577C48.5288 80.5448 48.7714 80.3423 48.933 80.0806C49.0946 79.8188 49.1665 79.512 49.1379 79.2061L48.2068 69.2371C48.5115 69.0109 48.7398 68.6978 48.8612 68.3393C48.9827 67.9809 48.9916 67.5942 48.8868 67.2306C48.782 66.867 48.5684 66.5437 48.2745 66.3039C47.9805 66.064 47.6201 65.9189 47.2413 65.8878C46.8624 65.8567 46.483 65.9411 46.1535 66.1297C45.824 66.3184 45.5601 66.6025 45.3968 66.944C45.2335 67.2856 45.1786 67.6686 45.2394 68.042C45.3001 68.4154 45.4737 68.7615 45.7371 69.0343H45.737Z" fill="#FFB8B8"/>
<path d="M45.5361 78.3438L46.8815 82.1481C46.9198 82.2564 46.9342 82.3716 46.9237 82.4858C46.9132 82.6001 46.8781 82.7108 46.8207 82.8103C46.7633 82.9099 46.6851 82.996 46.5913 83.0627C46.4975 83.1295 46.3903 83.1753 46.2771 83.1971L42.3099 83.9615C41.7522 84.1533 41.1408 84.1173 40.6098 83.8612C40.0788 83.6051 39.6715 83.15 39.4772 82.5956C39.283 82.0411 39.3176 81.4327 39.5736 80.9037C39.8295 80.3746 40.2859 79.9682 40.8426 79.7734L44.4047 77.9026C44.5067 77.8491 44.6191 77.818 44.7342 77.8116C44.8493 77.8052 44.9645 77.8236 45.0719 77.8654C45.1793 77.9073 45.2763 77.9717 45.3564 78.0543C45.4365 78.1368 45.4978 78.2356 45.5361 78.3438V78.3438Z" fill="#4079AC"/>
<path d="M26.7644 69.0343C26.6956 69.1047 26.6213 69.1696 26.5422 69.2283L27.002 78.0167L28.9146 78.991L27.8141 82.0551L24.2598 80.6577C23.9727 80.5448 23.7301 80.3423 23.5685 80.0806C23.4069 79.8188 23.335 79.512 23.3635 79.2061L24.2947 69.2371C23.99 69.0109 23.7617 68.6978 23.6403 68.3393C23.5188 67.9809 23.5099 67.5942 23.6147 67.2306C23.7195 66.867 23.9331 66.5437 24.227 66.3039C24.521 66.064 24.8813 65.9189 25.2602 65.8878C25.6391 65.8567 26.0185 65.9411 26.348 66.1297C26.6775 66.3184 26.9414 66.6025 27.1047 66.944C27.268 67.2856 27.3229 67.6686 27.2621 68.042C27.2013 68.4154 27.0277 68.7615 26.7644 69.0343Z" fill="#FFB8B8"/>
<path d="M27.4298 77.8654C27.5372 77.8235 27.6524 77.8051 27.7675 77.8115C27.8827 77.8179 27.9951 77.849 28.097 77.9026L31.6591 79.7734C32.2158 79.9682 32.6722 80.3746 32.9281 80.9037C33.1841 81.4327 33.2187 82.0411 33.0245 82.5955C32.8302 83.15 32.4229 83.6051 31.8919 83.8612C31.3609 84.1173 30.7495 84.1533 30.1918 83.9615L26.2246 83.1971C26.1114 83.1753 26.0042 83.1295 25.9104 83.0627C25.8166 82.996 25.7384 82.9099 25.681 82.8103C25.6236 82.7108 25.5885 82.6001 25.578 82.4858C25.5675 82.3716 25.5819 82.2564 25.6202 82.1481L26.9656 78.3438C27.0039 78.2355 27.0651 78.1367 27.1452 78.0542C27.2254 77.9716 27.3224 77.9072 27.4298 77.8654Z" fill="#4079AC"/>
<path d="M38.101 74.1822C38.078 73.6263 38.2182 73.0757 38.5045 72.5977C38.7909 72.1198 39.2109 71.7351 39.7133 71.4908C41.0447 70.8068 41.8812 69.348 41.5147 68.0159C41.0455 66.3108 38.7132 65.205 36.8234 65.7916C36.312 65.9723 35.8187 66.2004 35.3502 66.4729L34.1155 67.1314C33.5881 67.3942 33.0796 67.6929 32.5936 68.0254C31.8657 68.5592 31.2951 69.2776 30.9415 70.1057C30.588 70.9339 30.4644 71.8412 30.5837 72.7331C30.8268 74.4666 31.9677 76.0563 33.5294 77.1447C34.1267 77.5888 34.8165 77.8939 35.548 78.0374C36.2966 78.1602 37.1299 78.0207 37.6773 77.5575C38.5326 76.8336 38.4442 75.6214 38.1676 74.6089C38.131 74.4693 38.1087 74.3263 38.101 74.1822Z" fill="#2F2E41"/>
</g>
<defs>
<clipPath id="clip0_134_894">
<rect width="78" height="138" fill="white"/>
</clipPath>
</defs>
</svg>
